<?xml version="1.0" encoding="UTF-8" standalone="no"?>
<svg
   xmlns:dc="http://purl.org/dc/elements/1.1/"
   xmlns:cc="http://creativecommons.org/ns#"
   xmlns:rdf="http://www.w3.org/1999/02/22-rdf-syntax-ns#"
   xmlns:svg="http://www.w3.org/2000/svg"
   xmlns="http://www.w3.org/2000/svg"
   xmlns:sodipodi="http://sodipodi.sourceforge.net/DTD/sodipodi-0.dtd"
   xmlns:inkscape="http://www.inkscape.org/namespaces/inkscape"
   width="1366px"
   height="657px"
   viewBox="0 0 1366 657"
   version="1.1"
   id="SVGRoot"
   sodipodi:docname="background2.svg"
   inkscape:version="1.0.1 (3bc2e813f5, 2020-09-07)">
  <defs
     id="defs833">
    <filter
       inkscape:collect="always"
       style="color-interpolation-filters:sRGB"
       id="filter3188"
       x="-0.019941775"
       width="1.0398836"
       y="-0.020016743"
       height="1.0400335">
      <feGaussianBlur
         inkscape:collect="always"
         stdDeviation="0.011672119"
         id="feGaussianBlur3190" />
    </filter>
    <filter
       inkscape:collect="always"
       style="color-interpolation-filters:sRGB"
       id="filter3188-7"
       x="-0.019941775"
       width="1.0398836"
       y="-0.020016743"
       height="1.0400335">
      <feGaussianBlur
         inkscape:collect="always"
         stdDeviation="0.011672119"
         id="feGaussianBlur3190-9" />
    </filter>
    <filter
       inkscape:collect="always"
       style="color-interpolation-filters:sRGB"
       id="filter3188-6"
       x="-0.019941775"
       width="1.0398836"
       y="-0.020016743"
       height="1.0400335">
      <feGaussianBlur
         inkscape:collect="always"
         stdDeviation="0.011672119"
         id="feGaussianBlur3190-97" />
    </filter>
    <filter
       inkscape:collect="always"
       style="color-interpolation-filters:sRGB"
       id="filter3188-7-5"
       x="-0.019941775"
       width="1.0398836"
       y="-0.020016743"
       height="1.0400335">
      <feGaussianBlur
         inkscape:collect="always"
         stdDeviation="0.011672119"
         id="feGaussianBlur3190-9-4" />
    </filter>
    <filter
       inkscape:collect="always"
       style="color-interpolation-filters:sRGB"
       id="filter3188-6-0"
       x="-0.019941775"
       width="1.0398836"
       y="-0.020016743"
       height="1.0400335">
      <feGaussianBlur
         inkscape:collect="always"
         stdDeviation="0.011672119"
         id="feGaussianBlur3190-97-2" />
    </filter>
    <filter
       inkscape:collect="always"
       style="color-interpolation-filters:sRGB"
       id="filter3188-7-5-9"
       x="-0.019941775"
       width="1.0398836"
       y="-0.020016743"
       height="1.0400335">
      <feGaussianBlur
         inkscape:collect="always"
         stdDeviation="0.011672119"
         id="feGaussianBlur3190-9-4-1" />
    </filter>
    <filter
       inkscape:collect="always"
       style="color-interpolation-filters:sRGB"
       id="filter3188-6-0-1"
       x="-0.019941775"
       width="1.0398836"
       y="-0.020016743"
       height="1.0400335">
      <feGaussianBlur
         inkscape:collect="always"
         stdDeviation="0.011672119"
         id="feGaussianBlur3190-97-2-7" />
    </filter>
    <filter
       inkscape:collect="always"
       style="color-interpolation-filters:sRGB"
       id="filter3188-7-5-9-4"
       x="-0.019941775"
       width="1.0398836"
       y="-0.020016743"
       height="1.0400335">
      <feGaussianBlur
         inkscape:collect="always"
         stdDeviation="0.011672119"
         id="feGaussianBlur3190-9-4-1-7" />
    </filter>
  </defs>
  <sodipodi:namedview
     id="base"
     pagecolor="#ffffff"
     bordercolor="#666666"
     borderopacity="1.0"
     inkscape:pageopacity="0.0"
     inkscape:pageshadow="2"
     inkscape:zoom="0.35"
     inkscape:cx="609.62451"
     inkscape:cy="232.65213"
     inkscape:document-units="px"
     inkscape:current-layer="layer1"
     inkscape:document-rotation="0"
     showgrid="false"
     inkscape:window-width="1267"
     inkscape:window-height="728"
     inkscape:window-x="83"
     inkscape:window-y="0"
     inkscape:window-maximized="0" />
  <metadata
     id="metadata836">
    <rdf:RDF>
      <cc:Work
         rdf:about="">
        <dc:format>image/svg+xml</dc:format>
        <dc:type
           rdf:resource="http://purl.org/dc/dcmitype/StillImage" />
        <dc:title />
      </cc:Work>
    </rdf:RDF>
  </metadata>
  <g
     inkscape:label="Layer 1"
     inkscape:groupmode="layer"
     id="layer1">
    <rect
       style="opacity:1;fill:#3792cb;fill-opacity:1;stroke-width:3.39999"
       id="rect1407"
       width="1368.5715"
       height="311.53036"
       x="-2.8571362"
       y="345.6124" />
    <path
       style="fill:#ff5555;stroke:none;stroke-width:0.157895px;stroke-linecap:butt;stroke-linejoin:miter;stroke-opacity:1"
       d="m 47.374555,562.89099 c 0,0 -2.23297,-4.62543 -7.65589,-5.58242 0,0 0.95698,10.04835 -0.15951,11.16484 0,0 -1.59498,7.97489 -0.63799,11.16484 0,0 1.43548,6.06092 6.06091,8.13439 0,0 7.65589,2.39246 10.84585,-4.78494 0,0 3.18995,-6.6989 3.34945,-10.84584 0,0 2.07347,-9.56987 3.18996,-10.20786 0,0 -0.47849,-2.39247 -7.3369,1.91397 0,0 -1.59498,-3.66845 -3.03046,-5.26343 0,0 -4.14691,3.18997 -4.62542,4.30645 z"
       id="path2719" />
    <path
       style="fill:#008000;stroke:none;stroke-width:0.157895px;stroke-linecap:butt;stroke-linejoin:miter;stroke-opacity:1"
       d="m 42.031385,614.80754 c 0,0 0,-10.52686 0.23925,-13.31807 0,0 1.03672,-12.12186 2.71144,-13.71683 0,0 2.15322,0.47849 2.63171,0.39874 0,0 -1.91397,9.49012 -1.99372,11.24459 0,0 -1.03674,11.88259 -0.71774,13.39782 0,0 0.55825,8.53313 0.87723,8.69263 l -0.63798,1.51522 z"
       id="path2723" />
    <path
       style="fill:#77dd77;fill-opacity:1;stroke:none;stroke-width:0.157895px;stroke-linecap:butt;stroke-linejoin:miter;stroke-opacity:1"
       d="m 45.141595,623.02167 c 0,0 2.54954,-5.21742 2.88789,-6.79637 0,0 2.25562,-7.21807 2.14284,-8.79701 0,0 1.46616,-7.33083 2.14286,-9.69925 0,0 3.60902,-6.99248 5.07519,-9.3609 0,0 2.81954,-4.17294 2.4812,1.12782 l -0.78947,7.89473 c 0,0 -0.11278,4.96241 -1.24061,8.00752 0,0 -1.91729,6.09023 -2.70676,7.66918 0,0 -2.48121,5.30075 -3.38346,7.66917 0,0 -1.9173,3.49624 -2.03008,5.41353 0,0 -1.46616,14.54887 -9.69925,6.20301 0,0 -5.63909,-7.33083 -7.21804,-9.81203 0,0 -2.4812,-4.51128 -5.18797,-5.6391 0,0 -2.93233,-4.28571 4.28571,-1.80451 0,0 -2.93233,-19.84962 2.03008,-23.90977 0,0 0.78947,-1.2406 2.36842,6.09022 0,0 0.45113,7.44361 2.03007,9.02256 z"
       id="path2731" />
    <path
       style="fill:#ff5555;stroke:none;stroke-width:0.157895px;stroke-linecap:butt;stroke-linejoin:miter;stroke-opacity:1"
       d="m 109.02047,564.08723 c 0,0 2.47222,-3.9077 3.18996,-4.70519 0,0 2.07343,-0.319 5.42289,1.43547 0,0 2.55196,-2.79121 3.5887,-3.18995 0,0 4.38619,4.94443 4.78493,12.75982 0,0 1.11648,14.1953 -7.73564,16.90676 0,0 -9.64962,1.67473 -13.63706,-9.96861 0,0 -4.14694,-12.44082 -1.91397,-15.23203 0,0 2.79128,0.0797 6.30019,1.99373 z"
       id="path2733" />
    <path
       style="fill:none;stroke:#000000;stroke-width:0.157895px;stroke-linecap:butt;stroke-linejoin:miter;stroke-opacity:1"
       d="m 114.90921,616.11252 c 0,0 3.04511,-27.18046 0.67669,-28.7594"
       id="path2737" />
    <path
       style="fill:#008000;stroke:none;stroke-width:0.157895px;stroke-linecap:butt;stroke-linejoin:miter;stroke-opacity:1"
       d="m 115.58594,587.35313 2.6854,-0.059 0.5852,11.78826 c 0,0 -1.46616,3.60902 -0.56391,11.72932 0,0 1.01504,7.21804 -1.2406,10.48872 l -2.14282,-5.18794"
       id="path2739" />
    <path
       style="fill:#ff00ff;stroke:none;stroke-width:0.157895px;stroke-linecap:butt;stroke-linejoin:miter;stroke-opacity:1"
       d="m 77.200655,582.03073 c 0,0 -3.26971,-5.82167 -9.25088,-2.23297 0,0 -0.0797,0.79747 1.51522,1.75446 0,0 1.59497,1.83423 1.51522,4.62544 0,0 -0.7975,9.41037 -0.0797,11.72309 0,0 1.27597,8.45338 9.968594,10.20785 0,0 6.30016,0.39875 9.17112,-6.06091 v 0 c 0,0 1.59498,-5.34318 1.19623,-11.80284 0,0 -0.31899,-7.89514 2.31272,-9.56986 0,0 0,-3.9077 -8.45338,1.83422 0,0 -3.34945,-3.66845 -4.62543,-4.38619 0,0 -1.11644,0.15952 -3.269684,3.90771 z"
       id="path2741" />
    <path
       style="fill:#008000;stroke:none;stroke-width:0.157895px;stroke-linecap:butt;stroke-linejoin:miter;stroke-opacity:1"
       d="m 80.869109,608.10863 c 0,0 -0.24562,11.27457 -0.13279,14.09412 0,0 0.45104,9.92479 -0.22564,10.60148 l 1.91729,3.15789 1.2406,-4.28571 c 0,0 -1.12783,-22.78196 -0.45113,-23.79699 z"
       id="path2743" />
    <path
       style="fill:#77dd77;fill-opacity:1;stroke:none;stroke-width:0.157895px;stroke-linecap:butt;stroke-linejoin:miter;stroke-opacity:1"
       d="m 117.05207,621.30049 c 0,0 -8.45865,-21.8797 -9.81204,-22.33083 0,0 -4.51131,1.01502 -3.15792,17.48118 0.22556,0 3.04511,12.63158 7.33082,16.57895 0,0 5.07519,8.45865 9.47369,-0.22556 0,0 4.06015,-12.85715 5.41353,-15.67669 v 0 c 0,0 6.42857,-15 6.76692,-15.56391 0,0 8.68417,-18.15793 -4.73685,-1.80452 l -1.69172,2.93233 c 0,0 -8.23309,-16.2406 -8.797,3.27068 0,0 1.35345,13.19554 -0.78943,15.33837 z"
       id="path2751" />
    <path
       style="fill:#77dd77;fill-opacity:1;stroke:none;stroke-width:0.157895px;stroke-linecap:butt;stroke-linejoin:miter;stroke-opacity:1"
       d="m 82.427999,635.96215 1.24059,-4.28571 c 0,0 2.3684,-15.33838 5.41352,-18.27071 0,0 5.07518,-11.39098 10.37594,-12.63158 0,0 1.691721,0.6767 -3.49625,13.64662 0,0 -5.52631,15.67669 -4.84962,17.70677 0,0 -1.46616,13.87218 -10.6015,21.99248 0,0 -13.082714,-9.3609 -14.548884,-22.55639 0,0 -0.45113,-11.2782 0.33836,-14.09775 0,0 2.59397,-11.27819 4.51127,0.22557 0,0 2.25564,9.13533 2.59398,10.03759 0,0 2.03008,-15.22556 4.3985,-0.5639 0,0 4.624114,8.79705 4.624094,8.79701 z"
       id="path2753" />
    <path
       style="fill:#ffd05a;fill-opacity:1;stroke:none;stroke-width:1.056;stroke-linecap:butt;stroke-linejoin:miter;stroke-miterlimit:4;stroke-dasharray:none;stroke-opacity:1"
       d="m 169.13812,597.72821 c 0,0 -0.1595,-10.04837 8.37363,-10.04837 0,0 8.21412,0.23924 7.57613,10.36735 0,0 6.45966,-6.22041 12.12183,1.99372 0,0 4.38619,7.4964 -4.22669,12.52058 0,0 8.61288,3.5887 4.14694,12.99907 0,0 -4.54568,6.6989 -12.12183,1.59497 0,0 1.75448,9.09138 -7.81539,10.28761 0,0 -8.37363,-0.319 -7.97489,-10.52685 0,0 -7.41664,6.53941 -12.83957,-3.50895 0,0 -2.15322,-8.05464 5.26343,-11.16485 0,0 -7.73564,-3.2697 -4.38619,-12.04208 0,0 4.78495,-8.37361 11.8826,-2.4722 z"
       id="path3284" />
    <ellipse
       style="fill:#ffffff;fill-opacity:1;stroke-width:0.0354167;filter:url(#filter3188)"
       id="path2024"
       cx="2.2649522"
       cy="-3.6828492"
       rx="0.7023719"
       ry="0.69974136"
       transform="matrix(15.157895,0,0,-15.157895,143.19235,555.29045)" />
    <path
       style="fill:#eaf4f2;fill-opacity:1;stroke:none;stroke-width:0.157895px;stroke-linecap:butt;stroke-linejoin:miter;stroke-opacity:1"
       d="m 182.8606,620.39293 c -11.16485,2.07347 -12.75983,-16.98652 -12.75983,-16.98652 0,0 -6.22042,5.82165 -1.03674,13.79654 0,0 5.74194,8.45343 13.79657,3.18998 z"
       id="path3192" />
    <path
       style="fill:none;stroke:#000000;stroke-width:0.157895px;stroke-linecap:butt;stroke-linejoin:miter;stroke-opacity:1"
       d="M 176.54109,637.76219 Z"
       id="path3288" />
    <path
       id="path3290"
       style="opacity:1;fill:#a7af54;fill-opacity:1;stroke:#f7efe2;stroke-width:0;stroke-linecap:butt;stroke-linejoin:miter;stroke-miterlimit:4;stroke-dasharray:none;stroke-opacity:1"
       d="m 176.54102,637.76215 v 9.3306 c -2.71145,-8.61286 -11.16489,-8.37367 -11.16489,-8.37367 0.79749,15.47129 12.28156,15.15235 12.28156,15.15235 11.96232,-1.35573 11.88251,-15.23191 11.88251,-15.23191 -8.29388,0.0797 -11.24476,8.37366 -11.24476,8.37366 l -0.0796,-9.25103 z" />
    <path
       style="fill:#939941;fill-opacity:1;stroke:none;stroke-width:0.157895px;stroke-linecap:butt;stroke-linejoin:miter;stroke-opacity:1"
       d="m 177.42169,650.64763 c 0,0 2.42481,-10.0376 11.78572,-10.09399 0,0 -0.26107,11.91756 -11.54972,13.31779 0,0 -6.94654,-0.85541 -9.59691,-5.47947 0,0 -1.9173,-2.65038 -2.48121,-7.78196 0,0 8.57145,-1.24054 11.84212,10.03763 z"
       id="path3385" />
    <path
       style="opacity:1;fill:#ef5b5b;fill-opacity:1;stroke:none;stroke-width:0.410526;stroke-linecap:butt;stroke-linejoin:miter;stroke-miterlimit:4;stroke-dasharray:none;stroke-opacity:1"
       d="m 223.7961,585.43061 c 0,0 -1.2406,-8.34587 -11.16542,-10.60151 0,0 -8.68423,-1.46618 -11.27822,6.54135 0,0 4.28572,-0.11278 4.96241,5.97744 0,0 0.22556,6.99248 -1.01504,12.96993 -0.15862,0.46819 -2.0726,11.47354 -0.47762,17.05597 0,0 3.11021,10.12811 17.06626,9.88886 0,0 16.34853,1.91397 20.25622,-8.77238 0,0 2.15322,-6.06092 0.638,-14.1953 0,0 -2.23297,-11.80284 -1.83423,-12.91932 0,0 -1.27599,-9.25087 4.78494,-10.04836 0,0 -2.23297,-8.13439 -11.5636,-6.37991 0,0 -9.34332,2.54447 -10.3737,10.48323 z"
       id="path3387" />
    <path
       style="fill:#e24949;fill-opacity:0.286275;stroke:none;stroke-width:0.157895px;stroke-linecap:butt;stroke-linejoin:miter;stroke-opacity:1"
       d="m 205.5608,608.52355 c 0,0 2.76315,8.1767 4.56767,9.30452 0,0 6.31576,4.90599 11.05261,4.73682 0,0 13.02631,0.50752 18.04511,-2.19925 0,0 -5.6391,6.48496 -18.21429,5.13158 0,0 -11.10902,-1.07144 -13.13909,-6.42857 0,-0.39474 -3.49621,-5.97741 -2.31201,-10.5451 z"
       id="path3391" />
    <path
       style="opacity:1;fill:#a7af54;fill-opacity:1;stroke:#f7efe2;stroke-width:0.205264;stroke-linecap:butt;stroke-linejoin:miter;stroke-miterlimit:4;stroke-dasharray:none;stroke-opacity:1"
       d="m 221.8885,627.26267 0.0256,13.34736 c 0,0 -3.04507,-9.98123 -13.98492,-10.60153 0,0 -0.22557,16.69173 13.87218,18.60902 0,0 6.82331,0.22557 11.33459,-4.56767 0,0 4.45488,-4.51128 4.79323,-13.98496 0,0 -10.31955,-0.45113 -14.09775,10.6015 v -13.36466 z"
       id="path3393" />
    <path
       style="fill:#939941;fill-opacity:1;stroke:none;stroke-width:0.157895px;stroke-linecap:butt;stroke-linejoin:miter;stroke-opacity:1"
       d="m 222.70366,644.99725 c 0,0 4.10526,-13.50001 14.84211,-12.55264 0,0 0.55259,12.39471 -12.9474,16.34208 0,0 -8.84211,0.78947 -13.97368,-7.3421 0,0 -1.42106,-1.5 -2.52632,-8.84211 0,0 11.05268,-2.13152 14.60529,12.39477 z"
       id="path3397" />
    <path
       style="fill:#ffd05a;fill-opacity:1;stroke:none;stroke-width:1.07418;stroke-linecap:butt;stroke-linejoin:miter;stroke-miterlimit:4;stroke-dasharray:none;stroke-opacity:1"
       d="m 261.49301,597.53822 c 0,0 -0.15949,-10.04837 8.37363,-10.04837 0,0 8.21413,0.23924 7.57614,10.36735 0,0 6.45965,-6.22042 12.12183,1.99372 0,0 4.38625,7.4964 -4.2267,12.52058 0,0 8.61295,3.58869 4.14695,12.99906 0,0 -4.54569,6.69891 -12.12184,1.59498 0,0 1.75448,9.09137 -7.81538,10.28761 0,0 -8.37364,-0.319 -7.97489,-10.52686 0,0 -7.41665,6.53941 -12.83957,-3.50895 0,0 -2.15322,-8.05463 5.26342,-11.16484 0,0 -7.73564,-3.26971 -4.38618,-12.04208 0,0 4.78495,-8.37361 11.88259,-2.4722 z"
       id="path3284-4" />
    <ellipse
       style="fill:#ffffff;fill-opacity:1;stroke-width:0.0354167;filter:url(#filter3188-7)"
       id="path2024-0"
       cx="2.2649522"
       cy="-3.6828492"
       rx="0.7023719"
       ry="0.69974136"
       transform="matrix(15.157895,0,0,-15.157895,235.54724,555.10046)" />
    <path
       style="fill:#eaf4f2;fill-opacity:1;stroke:none;stroke-width:0.157895px;stroke-linecap:butt;stroke-linejoin:miter;stroke-opacity:1"
       d="m 275.21549,620.20294 c -11.16485,2.07347 -12.75983,-16.98652 -12.75983,-16.98652 0,0 -6.22042,5.82165 -1.03674,13.79654 0,0 5.74194,8.45343 13.79657,3.18998 z"
       id="path3192-2" />
    <path
       style="fill:none;stroke:#000000;stroke-width:0.157895px;stroke-linecap:butt;stroke-linejoin:miter;stroke-opacity:1"
       d="M 268.89598,637.57219 Z"
       id="path3288-7" />
    <path
       id="path3290-4"
       style="opacity:1;fill:#a7af54;fill-opacity:1;stroke:#f7efe2;stroke-width:0;stroke-linecap:butt;stroke-linejoin:miter;stroke-miterlimit:4;stroke-dasharray:none;stroke-opacity:1"
       d="m 268.8959,637.57213 v 9.33059 c -2.71145,-8.61285 -11.16489,-8.37366 -11.16489,-8.37366 0.7975,15.47129 12.28156,15.15234 12.28156,15.15234 11.96232,-1.35573 11.88251,-15.2319 11.88251,-15.2319 -8.29388,0.0797 -11.24476,8.37366 -11.24476,8.37366 l -0.0796,-9.25103 z" />
    <path
       style="fill:#939941;fill-opacity:1;stroke:none;stroke-width:0.157895px;stroke-linecap:butt;stroke-linejoin:miter;stroke-opacity:1"
       d="m 269.77658,650.45763 c 0,0 2.42481,-10.03759 11.78572,-10.09399 0,0 -0.26107,11.91757 -11.54972,13.31779 0,0 -6.94654,-0.8554 -9.59691,-5.47947 0,0 -1.9173,-2.65037 -2.48121,-7.78195 0,0 8.57145,-1.24054 11.84212,10.03762 z"
       id="path3385-4" />
    <path
       id="path3370-4"
       style="fill:#f2f2f2;fill-opacity:0;stroke:#f7efe2;stroke-width:0;stroke-miterlimit:4;stroke-dasharray:none;stroke-opacity:1"
       d="m 268.18352,640.55332 c -0.19937,-0.002 -0.40048,0.19369 -0.40398,0.58841 -7.9e-4,0.0949 -0.004,0.20421 0.004,0.28803 0.008,0.0483 -0.009,0.10247 -0.013,0.14961 -0.0208,0.22525 -0.0208,0.13082 0.0617,0.38363 0.005,0.005 0.0103,0.009 0.0155,0.0136 -0.002,0.0238 -0.005,0.0414 -0.0126,0.13264 0.0123,0.0885 0.02,0.17798 0.0367,0.26582 0.0113,0.0594 0.0471,0.11156 0.0679,0.16839 0.0581,0.15882 0.0993,0.32359 0.12702,0.49034 0.1296,0.77877 0.93659,0.61779 0.78177,-0.15635 l 3.1e-4,-3.2e-4 c -0.0133,-0.0664 -0.0241,-0.13354 -0.0397,-0.19952 -0.0309,-0.12975 -0.0678,-0.26066 -0.11262,-0.38672 -0.0176,-0.0493 -0.0368,-0.0979 -0.0561,-0.14643 -0.0362,-0.0913 -0.0626,-0.1005 -0.009,-0.0673 0.0439,-0.16714 0.0271,-0.31721 -0.0579,-0.47276 0.008,-0.0723 0.008,-0.17766 0.006,-0.22543 -0.008,-0.0761 -0.003,-0.15332 -0.002,-0.23005 0.004,-0.39471 -0.19383,-0.59372 -0.3932,-0.59549 z m -0.27138,1.47996 c 0.0393,0.0344 0.0785,0.069 0.11777,0.10337 0.0393,0.0344 -0.0958,-0.0558 -0.11777,-0.10307 -4e-5,-9e-5 4e-5,-1.6e-4 0,-3e-4 z" />
    <path
       id="path3374-6"
       style="fill:#f2f2f2;fill-opacity:0;stroke:#f7efe2;stroke-width:0;stroke-miterlimit:4;stroke-dasharray:none;stroke-opacity:1"
       d="m 268.18352,640.55332 c -0.19937,-0.002 -0.40048,0.19369 -0.40398,0.58841 -7.9e-4,0.0949 -0.004,0.20421 0.004,0.28803 0.008,0.0483 -0.009,0.10247 -0.013,0.14961 -0.0208,0.22525 -0.0208,0.13082 0.0617,0.38363 0.005,0.005 0.0103,0.009 0.0155,0.0136 -0.002,0.0238 -0.005,0.0414 -0.0126,0.13264 0.0123,0.0885 0.02,0.17798 0.0367,0.26582 0.0113,0.0594 0.0471,0.11156 0.0679,0.16839 0.0581,0.15882 0.0993,0.32359 0.12702,0.49034 0.1296,0.77877 0.93659,0.61779 0.78177,-0.15635 l 3.1e-4,-3.2e-4 c -0.0133,-0.0664 -0.0241,-0.13354 -0.0397,-0.19952 -0.0309,-0.12975 -0.0678,-0.26066 -0.11262,-0.38672 -0.0176,-0.0493 -0.0368,-0.0979 -0.0561,-0.14643 -0.0362,-0.0913 -0.0626,-0.1005 -0.009,-0.0673 0.0439,-0.16714 0.0271,-0.31721 -0.0579,-0.47276 0.008,-0.0723 0.008,-0.17766 0.006,-0.22543 -0.008,-0.0761 -0.003,-0.15332 -0.002,-0.23005 0.004,-0.39471 -0.19383,-0.59372 -0.3932,-0.59549 z m -0.27138,1.47996 c 0.0393,0.0344 0.0785,0.069 0.11777,0.10337 0.0393,0.0344 -0.0958,-0.0558 -0.11777,-0.10307 -4e-5,-9e-5 4e-5,-1.6e-4 0,-3e-4 z" />
    <path
       id="path3370"
       style="fill:#f2f2f2;fill-opacity:0;stroke:#f7efe2;stroke-width:0;stroke-miterlimit:4;stroke-dasharray:none;stroke-opacity:1"
       d="m 175.82864,640.74334 c -0.19937,-0.002 -0.40049,0.19368 -0.40399,0.58841 -7.9e-4,0.0949 -0.005,0.20421 0.004,0.28803 0.008,0.0483 -0.009,0.10243 -0.0129,0.14957 -0.0208,0.22524 -0.0208,0.13078 0.0617,0.38363 0.005,0.005 0.0103,0.009 0.0154,0.0136 -0.002,0.0238 -0.005,0.0413 -0.0127,0.13261 0.0123,0.0885 0.02,0.17798 0.0367,0.26583 0.0113,0.0594 0.0471,0.11155 0.0678,0.16838 0.058,0.15883 0.0993,0.32359 0.12706,0.49034 0.1296,0.77876 0.93659,0.61779 0.78176,-0.15636 l 3.2e-4,-3.1e-4 c -0.0133,-0.0664 -0.0242,-0.13355 -0.0398,-0.19953 -0.0309,-0.12975 -0.0677,-0.26065 -0.11256,-0.38672 -0.0176,-0.0493 -0.0369,-0.098 -0.0561,-0.14648 -0.0362,-0.0913 -0.0626,-0.10043 -0.009,-0.0672 0.044,-0.16714 0.0272,-0.31721 -0.058,-0.47276 0.008,-0.0723 0.008,-0.17766 0.006,-0.22543 -0.008,-0.0761 -0.003,-0.15333 -0.002,-0.23006 0.004,-0.39472 -0.19383,-0.59372 -0.3932,-0.5955 z m -0.27138,1.47996 c 0.0393,0.0344 0.0785,0.0689 0.1178,0.10331 0.0393,0.0344 -0.0958,-0.0557 -0.1178,-0.10301 -4e-5,-9e-5 4e-5,-1.5e-4 0,-3.1e-4 z" />
    <path
       id="path3374"
       style="fill:#f2f2f2;fill-opacity:0;stroke:#f7efe2;stroke-width:0;stroke-miterlimit:4;stroke-dasharray:none;stroke-opacity:1"
       d="m 175.82864,640.74334 c -0.19937,-0.002 -0.40049,0.19368 -0.40399,0.58841 -7.9e-4,0.0949 -0.005,0.20421 0.004,0.28803 0.008,0.0483 -0.009,0.10243 -0.0129,0.14957 -0.0208,0.22524 -0.0208,0.13078 0.0617,0.38363 0.005,0.005 0.0103,0.009 0.0154,0.0136 -0.002,0.0238 -0.005,0.0413 -0.0127,0.13261 0.0123,0.0885 0.02,0.17798 0.0367,0.26583 0.0113,0.0594 0.0471,0.11155 0.0678,0.16838 0.058,0.15883 0.0993,0.32359 0.12706,0.49034 0.1296,0.77876 0.93659,0.61779 0.78176,-0.15636 l 3.2e-4,-3.1e-4 c -0.0133,-0.0664 -0.0242,-0.13355 -0.0398,-0.19953 -0.0309,-0.12975 -0.0677,-0.26065 -0.11256,-0.38672 -0.0176,-0.0493 -0.0369,-0.098 -0.0561,-0.14648 -0.0362,-0.0913 -0.0626,-0.10043 -0.009,-0.0672 0.044,-0.16714 0.0272,-0.31721 -0.058,-0.47276 0.008,-0.0723 0.008,-0.17766 0.006,-0.22543 -0.008,-0.0761 -0.003,-0.15333 -0.002,-0.23006 0.004,-0.39472 -0.19383,-0.59372 -0.3932,-0.5955 z m -0.27138,1.47996 c 0.0393,0.0344 0.0785,0.0689 0.1178,0.10331 0.0393,0.0344 -0.0958,-0.0557 -0.1178,-0.10301 -4e-5,-9e-5 4e-5,-1.5e-4 0,-3.1e-4 z" />
    <path
       style="fill:#ff5555;stroke:none;stroke-width:0.157895px;stroke-linecap:butt;stroke-linejoin:miter;stroke-opacity:1"
       d="m 338.2317,563.46241 c 0,0 -2.23297,-4.62543 -7.65589,-5.58242 0,0 0.95698,10.04835 -0.15951,11.16484 0,0 -1.59498,7.97489 -0.63799,11.16484 0,0 1.43548,6.06092 6.06091,8.13439 0,0 7.65589,2.39246 10.84585,-4.78494 0,0 3.18995,-6.6989 3.34945,-10.84584 0,0 2.07347,-9.56987 3.18996,-10.20786 0,0 -0.47849,-2.39247 -7.3369,1.91397 0,0 -1.59498,-3.66845 -3.03046,-5.26343 0,0 -4.14691,3.18997 -4.62542,4.30645 z"
       id="path2719-1" />
    <path
       style="fill:#008000;stroke:none;stroke-width:0.157895px;stroke-linecap:butt;stroke-linejoin:miter;stroke-opacity:1"
       d="m 332.88853,615.37896 c 0,0 0,-10.52686 0.23925,-13.31807 0,0 1.03672,-12.12186 2.71144,-13.71683 0,0 2.15322,0.47849 2.63171,0.39874 0,0 -1.91397,9.49012 -1.99372,11.24459 0,0 -1.03674,11.88259 -0.71774,13.39782 0,0 0.55825,8.53313 0.87723,8.69263 l -0.63798,1.51522 z"
       id="path2723-3" />
    <path
       style="fill:#77dd77;fill-opacity:1;stroke:none;stroke-width:0.157895px;stroke-linecap:butt;stroke-linejoin:miter;stroke-opacity:1"
       d="m 335.99874,623.59309 c 0,0 2.54954,-5.21742 2.88789,-6.79637 0,0 2.25562,-7.21807 2.14284,-8.79701 0,0 1.46616,-7.33083 2.14286,-9.69925 0,0 3.60902,-6.99248 5.07519,-9.3609 0,0 2.81954,-4.17294 2.4812,1.12782 l -0.78947,7.89473 c 0,0 -0.11278,4.96241 -1.24061,8.00752 0,0 -1.91729,6.09023 -2.70676,7.66918 0,0 -2.48121,5.30075 -3.38346,7.66917 0,0 -1.9173,3.49624 -2.03008,5.41353 0,0 -1.46616,14.54887 -9.69925,6.20301 0,0 -5.63909,-7.33083 -7.21804,-9.81203 0,0 -2.4812,-4.51128 -5.18797,-5.6391 0,0 -2.93233,-4.28571 4.28571,-1.80451 0,0 -2.93233,-19.84962 2.03008,-23.90977 0,0 0.78947,-1.2406 2.36842,6.09022 0,0 0.45113,7.44361 2.03007,9.02256 z"
       id="path2731-1" />
    <path
       style="fill:#ff5555;stroke:none;stroke-width:0.157895px;stroke-linecap:butt;stroke-linejoin:miter;stroke-opacity:1"
       d="m 399.87761,564.65865 c 0,0 2.47222,-3.9077 3.18996,-4.70519 0,0 2.07343,-0.319 5.42289,1.43547 0,0 2.55196,-2.79121 3.5887,-3.18995 0,0 4.38619,4.94443 4.78493,12.75982 0,0 1.11648,14.1953 -7.73564,16.90676 0,0 -9.64962,1.67473 -13.63706,-9.96861 0,0 -4.14694,-12.44082 -1.91397,-15.23203 0,0 2.79128,0.0797 6.30019,1.99373 z"
       id="path2733-2" />
    <path
       style="fill:none;stroke:#000000;stroke-width:0.157895px;stroke-linecap:butt;stroke-linejoin:miter;stroke-opacity:1"
       d="m 405.76635,616.68394 c 0,0 3.04511,-27.18046 0.67669,-28.7594"
       id="path2737-1" />
    <path
       style="fill:#008000;stroke:none;stroke-width:0.157895px;stroke-linecap:butt;stroke-linejoin:miter;stroke-opacity:1"
       d="m 406.44308,587.92455 2.6854,-0.059 0.5852,11.78826 c 0,0 -1.46616,3.60902 -0.56391,11.72932 0,0 1.01504,7.21804 -1.2406,10.48872 l -2.14282,-5.18794"
       id="path2739-8" />
    <path
       style="fill:#ff00ff;stroke:none;stroke-width:0.157895px;stroke-linecap:butt;stroke-linejoin:miter;stroke-opacity:1"
       d="m 368.0578,582.60215 c 0,0 -3.26971,-5.82167 -9.25088,-2.23297 0,0 -0.0797,0.79747 1.51522,1.75446 0,0 1.59497,1.83423 1.51522,4.62544 0,0 -0.7975,9.41037 -0.0797,11.72309 0,0 1.27597,8.45338 9.96859,10.20785 0,0 6.30016,0.39875 9.17112,-6.06091 v 0 c 0,0 1.59498,-5.34318 1.19623,-11.80284 0,0 -0.31899,-7.89514 2.31272,-9.56986 0,0 0,-3.9077 -8.45338,1.83422 0,0 -3.34945,-3.66845 -4.62543,-4.38619 0,0 -1.11644,0.15952 -3.26968,3.90771 z"
       id="path2741-2" />
    <path
       style="fill:#008000;stroke:none;stroke-width:0.157895px;stroke-linecap:butt;stroke-linejoin:miter;stroke-opacity:1"
       d="m 371.72625,608.68005 c 0,0 -0.24562,11.27457 -0.13279,14.09412 0,0 0.45104,9.92479 -0.22564,10.60148 l 1.91729,3.15789 1.2406,-4.28571 c 0,0 -1.12783,-22.78196 -0.45113,-23.79699 z"
       id="path2743-3" />
    <path
       style="fill:#77dd77;fill-opacity:1;stroke:none;stroke-width:0.157895px;stroke-linecap:butt;stroke-linejoin:miter;stroke-opacity:1"
       d="m 407.90921,621.87191 c 0,0 -8.45865,-21.8797 -9.81204,-22.33083 0,0 -4.51131,1.01502 -3.15792,17.48118 0.22556,0 3.04511,12.63158 7.33082,16.57895 0,0 5.07519,8.45865 9.47369,-0.22556 0,0 4.06015,-12.85715 5.41353,-15.67669 v 0 c 0,0 6.42857,-15 6.76692,-15.56391 0,0 8.68417,-18.15793 -4.73685,-1.80452 l -1.69172,2.93233 c 0,0 -8.23309,-16.2406 -8.797,3.27068 0,0 1.35345,13.19554 -0.78943,15.33837 z"
       id="path2751-3" />
    <path
       style="fill:#77dd77;fill-opacity:1;stroke:none;stroke-width:0.157895px;stroke-linecap:butt;stroke-linejoin:miter;stroke-opacity:1"
       d="m 373.28514,636.53357 1.24059,-4.28571 c 0,0 2.3684,-15.33838 5.41352,-18.27071 0,0 5.07518,-11.39098 10.37594,-12.63158 0,0 1.69172,0.6767 -3.49625,13.64662 0,0 -5.52631,15.67669 -4.84962,17.70677 0,0 -1.46616,13.87218 -10.6015,21.99248 0,0 -13.08271,-9.3609 -14.54888,-22.55639 0,0 -0.45113,-11.2782 0.33836,-14.09775 0,0 2.59397,-11.27819 4.51127,0.22557 0,0 2.25564,9.13533 2.59398,10.03759 0,0 2.03008,-15.22556 4.3985,-0.5639 0,0 4.62411,8.79705 4.62409,8.79701 z"
       id="path2753-6" />
    <path
       style="fill:#ffd05a;fill-opacity:1;stroke:none;stroke-width:1.056;stroke-linecap:butt;stroke-linejoin:miter;stroke-miterlimit:4;stroke-dasharray:none;stroke-opacity:1"
       d="m 472.28098,597.7282 c 0,0 -0.1595,-10.04837 8.37363,-10.04837 0,0 8.21412,0.23924 7.57613,10.36735 0,0 6.45966,-6.22041 12.12183,1.99372 0,0 4.38619,7.4964 -4.22669,12.52058 0,0 8.61288,3.5887 4.14694,12.99907 0,0 -4.54568,6.6989 -12.12183,1.59497 0,0 1.75448,9.09138 -7.81539,10.28761 0,0 -8.37363,-0.319 -7.97489,-10.52685 0,0 -7.41663,6.53941 -12.83956,-3.50895 0,0 -2.15322,-8.05464 5.26343,-11.16485 0,0 -7.73564,-3.2697 -4.38619,-12.04208 0,0 4.78495,-8.37361 11.88259,-2.4722 z"
       id="path3284-9" />
    <ellipse
       style="fill:#ffffff;fill-opacity:1;stroke-width:0.0354167;filter:url(#filter3188-6)"
       id="path2024-5"
       cx="2.2649522"
       cy="-3.6828492"
       rx="0.7023719"
       ry="0.69974136"
       transform="matrix(15.157895,0,0,-15.157895,446.33521,555.29044)" />
    <path
       style="fill:#eaf4f2;fill-opacity:1;stroke:none;stroke-width:0.157895px;stroke-linecap:butt;stroke-linejoin:miter;stroke-opacity:1"
       d="m 486.00346,620.39292 c -11.16485,2.07347 -12.75983,-16.98652 -12.75983,-16.98652 0,0 -6.22041,5.82165 -1.03674,13.79654 0,0 5.74194,8.45343 13.79657,3.18998 z"
       id="path3192-8" />
    <path
       style="fill:none;stroke:#000000;stroke-width:0.157895px;stroke-linecap:butt;stroke-linejoin:miter;stroke-opacity:1"
       d="M 479.68395,637.76218 Z"
       id="path3288-9" />
    <path
       id="path3290-3"
       style="opacity:1;fill:#a7af54;fill-opacity:1;stroke:#f7efe2;stroke-width:0;stroke-linecap:butt;stroke-linejoin:miter;stroke-miterlimit:4;stroke-dasharray:none;stroke-opacity:1"
       d="m 479.68388,637.76214 v 9.3306 c -2.71145,-8.61286 -11.16488,-8.37367 -11.16488,-8.37367 0.79748,15.47129 12.28155,15.15235 12.28155,15.15235 11.96232,-1.35573 11.88251,-15.23191 11.88251,-15.23191 -8.29388,0.0797 -11.24476,8.37366 -11.24476,8.37366 l -0.0796,-9.25103 z" />
    <path
       style="fill:#939941;fill-opacity:1;stroke:none;stroke-width:0.157895px;stroke-linecap:butt;stroke-linejoin:miter;stroke-opacity:1"
       d="m 480.56455,650.64762 c 0,0 2.42481,-10.0376 11.78572,-10.09399 0,0 -0.26107,11.91756 -11.54972,13.31779 0,0 -6.94654,-0.85541 -9.59691,-5.47947 0,0 -1.9173,-2.65038 -2.4812,-7.78196 0,0 8.57144,-1.24054 11.84211,10.03763 z"
       id="path3385-8" />
    <path
       style="opacity:1;fill:#ef5b5b;fill-opacity:1;stroke:none;stroke-width:0.410526;stroke-linecap:butt;stroke-linejoin:miter;stroke-miterlimit:4;stroke-dasharray:none;stroke-opacity:1"
       d="m 526.93896,585.4306 c 0,0 -1.2406,-8.34587 -11.16542,-10.60151 0,0 -8.68423,-1.46618 -11.27822,6.54135 0,0 4.28572,-0.11278 4.96241,5.97744 0,0 0.22556,6.99248 -1.01504,12.96993 -0.15862,0.46819 -2.0726,11.47354 -0.47762,17.05597 0,0 3.11021,10.12811 17.06626,9.88886 0,0 16.34853,1.91397 20.25622,-8.77238 0,0 2.15322,-6.06092 0.638,-14.1953 0,0 -2.23297,-11.80284 -1.83423,-12.91932 0,0 -1.27599,-9.25087 4.78494,-10.04836 0,0 -2.23297,-8.13439 -11.5636,-6.37991 0,0 -9.34332,2.54447 -10.3737,10.48323 z"
       id="path3387-5" />
    <path
       style="fill:#e24949;fill-opacity:0.286275;stroke:none;stroke-width:0.157895px;stroke-linecap:butt;stroke-linejoin:miter;stroke-opacity:1"
       d="m 508.70366,608.52354 c 0,0 2.76315,8.1767 4.56767,9.30452 0,0 6.31576,4.90599 11.05261,4.73682 0,0 13.02631,0.50752 18.04511,-2.19925 0,0 -5.6391,6.48496 -18.21429,5.13158 0,0 -11.10902,-1.07144 -13.13909,-6.42857 0,-0.39474 -3.49621,-5.97741 -2.31201,-10.5451 z"
       id="path3391-9" />
    <path
       style="opacity:1;fill:#a7af54;fill-opacity:1;stroke:#f7efe2;stroke-width:0.205264;stroke-linecap:butt;stroke-linejoin:miter;stroke-miterlimit:4;stroke-dasharray:none;stroke-opacity:1"
       d="m 525.03136,627.26266 0.0256,13.34736 c 0,0 -3.04507,-9.98123 -13.98492,-10.60153 0,0 -0.22557,16.69173 13.87218,18.60902 0,0 6.82331,0.22557 11.33459,-4.56767 0,0 4.45488,-4.51128 4.79323,-13.98496 0,0 -10.31955,-0.45113 -14.09775,10.6015 v -13.36466 z"
       id="path3393-5" />
    <path
       style="fill:#939941;fill-opacity:1;stroke:none;stroke-width:0.157895px;stroke-linecap:butt;stroke-linejoin:miter;stroke-opacity:1"
       d="m 525.84652,644.99724 c 0,0 4.10526,-13.50001 14.84211,-12.55264 0,0 0.55259,12.39471 -12.9474,16.34208 0,0 -8.84211,0.78947 -13.97368,-7.3421 0,0 -1.42106,-1.5 -2.52632,-8.84211 0,0 11.05268,-2.13152 14.60529,12.39477 z"
       id="path3397-4" />
    <path
       style="fill:#ffd05a;fill-opacity:1;stroke:none;stroke-width:1.07418;stroke-linecap:butt;stroke-linejoin:miter;stroke-miterlimit:4;stroke-dasharray:none;stroke-opacity:1"
       d="m 564.63587,597.53821 c 0,0 -0.15949,-10.04837 8.37363,-10.04837 0,0 8.21413,0.23924 7.57614,10.36735 0,0 6.45965,-6.22042 12.12183,1.99372 0,0 4.38625,7.4964 -4.2267,12.52058 0,0 8.61295,3.58869 4.14695,12.99906 0,0 -4.54569,6.69891 -12.12184,1.59498 0,0 1.75448,9.09137 -7.81538,10.28761 0,0 -8.37364,-0.319 -7.97489,-10.52686 0,0 -7.41665,6.53941 -12.83957,-3.50895 0,0 -2.15322,-8.05463 5.26342,-11.16484 0,0 -7.73564,-3.26971 -4.38618,-12.04208 0,0 4.78495,-8.37361 11.88259,-2.4722 z"
       id="path3284-4-7" />
    <ellipse
       style="fill:#ffffff;fill-opacity:1;stroke-width:0.0354167;filter:url(#filter3188-7-5)"
       id="path2024-0-6"
       cx="2.2649522"
       cy="-3.6828492"
       rx="0.7023719"
       ry="0.69974136"
       transform="matrix(15.157895,0,0,-15.157895,538.6901,555.10045)" />
    <path
       style="fill:#eaf4f2;fill-opacity:1;stroke:none;stroke-width:0.157895px;stroke-linecap:butt;stroke-linejoin:miter;stroke-opacity:1"
       d="m 578.35835,620.20293 c -11.16485,2.07347 -12.75983,-16.98652 -12.75983,-16.98652 0,0 -6.22042,5.82165 -1.03674,13.79654 0,0 5.74194,8.45343 13.79657,3.18998 z"
       id="path3192-2-4" />
    <path
       style="fill:none;stroke:#000000;stroke-width:0.157895px;stroke-linecap:butt;stroke-linejoin:miter;stroke-opacity:1"
       d="M 572.03884,637.57218 Z"
       id="path3288-7-5" />
    <path
       id="path3290-4-6"
       style="opacity:1;fill:#a7af54;fill-opacity:1;stroke:#f7efe2;stroke-width:0;stroke-linecap:butt;stroke-linejoin:miter;stroke-miterlimit:4;stroke-dasharray:none;stroke-opacity:1"
       d="m 572.03876,637.57212 v 9.33059 c -2.71145,-8.61285 -11.16489,-8.37366 -11.16489,-8.37366 0.7975,15.47129 12.28156,15.15234 12.28156,15.15234 11.96232,-1.35573 11.88251,-15.2319 11.88251,-15.2319 -8.29388,0.0797 -11.24476,8.37366 -11.24476,8.37366 l -0.0796,-9.25103 z" />
    <path
       style="fill:#939941;fill-opacity:1;stroke:none;stroke-width:0.157895px;stroke-linecap:butt;stroke-linejoin:miter;stroke-opacity:1"
       d="m 572.91944,650.45762 c 0,0 2.42481,-10.03759 11.78572,-10.09399 0,0 -0.26107,11.91757 -11.54972,13.31779 0,0 -6.94654,-0.8554 -9.59691,-5.47947 0,0 -1.9173,-2.65037 -2.48121,-7.78195 0,0 8.57145,-1.24054 11.84212,10.03762 z"
       id="path3385-4-5" />
    <path
       id="path3370-4-1"
       style="fill:#f2f2f2;fill-opacity:0;stroke:#f7efe2;stroke-width:0;stroke-miterlimit:4;stroke-dasharray:none;stroke-opacity:1"
       d="m 571.32638,640.55331 c -0.19937,-0.002 -0.40048,0.19369 -0.40398,0.58841 -7.9e-4,0.0949 -0.004,0.20421 0.004,0.28803 0.008,0.0483 -0.009,0.10247 -0.013,0.14961 -0.0208,0.22525 -0.0208,0.13082 0.0617,0.38363 0.005,0.005 0.0103,0.009 0.0155,0.0136 -0.002,0.0238 -0.005,0.0414 -0.0126,0.13264 0.0123,0.0885 0.02,0.17798 0.0367,0.26582 0.0113,0.0594 0.0471,0.11156 0.0679,0.16839 0.0581,0.15882 0.0993,0.32359 0.12702,0.49034 0.1296,0.77877 0.93659,0.61779 0.78177,-0.15635 l 3.1e-4,-3.2e-4 c -0.0133,-0.0664 -0.0241,-0.13354 -0.0397,-0.19952 -0.0309,-0.12975 -0.0678,-0.26066 -0.11262,-0.38672 -0.0176,-0.0493 -0.0368,-0.0979 -0.0561,-0.14643 -0.0362,-0.0913 -0.0626,-0.1005 -0.009,-0.0673 0.0439,-0.16714 0.0271,-0.31721 -0.0579,-0.47276 0.008,-0.0723 0.008,-0.17766 0.006,-0.22543 -0.008,-0.0761 -0.003,-0.15332 -0.002,-0.23005 0.004,-0.39471 -0.19383,-0.59372 -0.3932,-0.59549 z m -0.27138,1.47996 c 0.0393,0.0344 0.0785,0.069 0.11777,0.10337 0.0393,0.0344 -0.0958,-0.0558 -0.11777,-0.10307 -4e-5,-9e-5 4e-5,-1.6e-4 0,-3e-4 z" />
    <path
       id="path3374-6-5"
       style="fill:#f2f2f2;fill-opacity:0;stroke:#f7efe2;stroke-width:0;stroke-miterlimit:4;stroke-dasharray:none;stroke-opacity:1"
       d="m 571.32638,640.55331 c -0.19937,-0.002 -0.40048,0.19369 -0.40398,0.58841 -7.9e-4,0.0949 -0.004,0.20421 0.004,0.28803 0.008,0.0483 -0.009,0.10247 -0.013,0.14961 -0.0208,0.22525 -0.0208,0.13082 0.0617,0.38363 0.005,0.005 0.0103,0.009 0.0155,0.0136 -0.002,0.0238 -0.005,0.0414 -0.0126,0.13264 0.0123,0.0885 0.02,0.17798 0.0367,0.26582 0.0113,0.0594 0.0471,0.11156 0.0679,0.16839 0.0581,0.15882 0.0993,0.32359 0.12702,0.49034 0.1296,0.77877 0.93659,0.61779 0.78177,-0.15635 l 3.1e-4,-3.2e-4 c -0.0133,-0.0664 -0.0241,-0.13354 -0.0397,-0.19952 -0.0309,-0.12975 -0.0678,-0.26066 -0.11262,-0.38672 -0.0176,-0.0493 -0.0368,-0.0979 -0.0561,-0.14643 -0.0362,-0.0913 -0.0626,-0.1005 -0.009,-0.0673 0.0439,-0.16714 0.0271,-0.31721 -0.0579,-0.47276 0.008,-0.0723 0.008,-0.17766 0.006,-0.22543 -0.008,-0.0761 -0.003,-0.15332 -0.002,-0.23005 0.004,-0.39471 -0.19383,-0.59372 -0.3932,-0.59549 z m -0.27138,1.47996 c 0.0393,0.0344 0.0785,0.069 0.11777,0.10337 0.0393,0.0344 -0.0958,-0.0558 -0.11777,-0.10307 -4e-5,-9e-5 4e-5,-1.6e-4 0,-3e-4 z" />
    <path
       id="path3370-0"
       style="fill:#f2f2f2;fill-opacity:0;stroke:#f7efe2;stroke-width:0;stroke-miterlimit:4;stroke-dasharray:none;stroke-opacity:1"
       d="m 478.9715,640.74333 c -0.19937,-0.002 -0.40049,0.19368 -0.40399,0.58841 -7.9e-4,0.0949 -0.005,0.20421 0.004,0.28803 0.008,0.0483 -0.009,0.10243 -0.0129,0.14957 -0.0208,0.22524 -0.0208,0.13078 0.0617,0.38363 0.005,0.005 0.0103,0.009 0.0154,0.0136 -0.002,0.0238 -0.005,0.0413 -0.0127,0.13261 0.0123,0.0885 0.02,0.17798 0.0367,0.26583 0.0113,0.0594 0.0471,0.11155 0.0678,0.16838 0.058,0.15883 0.0993,0.32359 0.12706,0.49034 0.1296,0.77876 0.93659,0.61779 0.78176,-0.15636 l 3.2e-4,-3.1e-4 c -0.0133,-0.0664 -0.0242,-0.13355 -0.0398,-0.19953 -0.0309,-0.12975 -0.0677,-0.26065 -0.11256,-0.38672 -0.0176,-0.0493 -0.0369,-0.098 -0.0561,-0.14648 -0.0362,-0.0913 -0.0626,-0.10043 -0.009,-0.0672 0.044,-0.16714 0.0272,-0.31721 -0.058,-0.47276 0.008,-0.0723 0.008,-0.17766 0.006,-0.22543 -0.008,-0.0761 -0.003,-0.15333 -0.002,-0.23006 0.004,-0.39472 -0.19383,-0.59372 -0.3932,-0.5955 z m -0.27138,1.47996 c 0.0393,0.0344 0.0785,0.0689 0.1178,0.10331 0.0393,0.0344 -0.0958,-0.0557 -0.1178,-0.10301 -4e-5,-9e-5 4e-5,-1.5e-4 0,-3.1e-4 z" />
    <path
       id="path3374-2"
       style="fill:#f2f2f2;fill-opacity:0;stroke:#f7efe2;stroke-width:0;stroke-miterlimit:4;stroke-dasharray:none;stroke-opacity:1"
       d="m 478.9715,640.74333 c -0.19937,-0.002 -0.40049,0.19368 -0.40399,0.58841 -7.9e-4,0.0949 -0.005,0.20421 0.004,0.28803 0.008,0.0483 -0.009,0.10243 -0.0129,0.14957 -0.0208,0.22524 -0.0208,0.13078 0.0617,0.38363 0.005,0.005 0.0103,0.009 0.0154,0.0136 -0.002,0.0238 -0.005,0.0413 -0.0127,0.13261 0.0123,0.0885 0.02,0.17798 0.0367,0.26583 0.0113,0.0594 0.0471,0.11155 0.0678,0.16838 0.058,0.15883 0.0993,0.32359 0.12706,0.49034 0.1296,0.77876 0.93659,0.61779 0.78176,-0.15636 l 3.2e-4,-3.1e-4 c -0.0133,-0.0664 -0.0242,-0.13355 -0.0398,-0.19953 -0.0309,-0.12975 -0.0677,-0.26065 -0.11256,-0.38672 -0.0176,-0.0493 -0.0369,-0.098 -0.0561,-0.14648 -0.0362,-0.0913 -0.0626,-0.10043 -0.009,-0.0672 0.044,-0.16714 0.0272,-0.31721 -0.058,-0.47276 0.008,-0.0723 0.008,-0.17766 0.006,-0.22543 -0.008,-0.0761 -0.003,-0.15333 -0.002,-0.23006 0.004,-0.39472 -0.19383,-0.59372 -0.3932,-0.5955 z m -0.27138,1.47996 c 0.0393,0.0344 0.0785,0.0689 0.1178,0.10331 0.0393,0.0344 -0.0958,-0.0557 -0.1178,-0.10301 -4e-5,-9e-5 4e-5,-1.5e-4 0,-3.1e-4 z" />
    <path
       style="fill:#ff5555;stroke:none;stroke-width:0.157895px;stroke-linecap:butt;stroke-linejoin:miter;stroke-opacity:1"
       d="m 649.66027,562.89098 c 0,0 -2.23297,-4.62543 -7.65589,-5.58242 0,0 0.95698,10.04835 -0.15951,11.16484 0,0 -1.59498,7.97489 -0.63799,11.16484 0,0 1.43548,6.06092 6.06091,8.13439 0,0 7.65589,2.39246 10.84585,-4.78494 0,0 3.18995,-6.6989 3.34945,-10.84584 0,0 2.07347,-9.56987 3.18996,-10.20786 0,0 -0.47849,-2.39247 -7.3369,1.91397 0,0 -1.59498,-3.66845 -3.03046,-5.26343 0,0 -4.14691,3.18997 -4.62542,4.30645 z"
       id="path2719-1-0" />
    <path
       style="fill:#008000;stroke:none;stroke-width:0.157895px;stroke-linecap:butt;stroke-linejoin:miter;stroke-opacity:1"
       d="m 644.3171,614.80753 c 0,0 0,-10.52686 0.23925,-13.31807 0,0 1.03672,-12.12186 2.71144,-13.71683 0,0 2.15322,0.47849 2.63171,0.39874 0,0 -1.91397,9.49012 -1.99372,11.24459 0,0 -1.03674,11.88259 -0.71774,13.39782 0,0 0.55825,8.53313 0.87723,8.69263 l -0.63798,1.51522 z"
       id="path2723-3-5" />
    <path
       style="fill:#77dd77;fill-opacity:1;stroke:none;stroke-width:0.157895px;stroke-linecap:butt;stroke-linejoin:miter;stroke-opacity:1"
       d="m 647.42731,623.02166 c 0,0 2.54954,-5.21742 2.88789,-6.79637 0,0 2.25562,-7.21807 2.14284,-8.79701 0,0 1.46616,-7.33083 2.14286,-9.69925 0,0 3.60902,-6.99248 5.07519,-9.3609 0,0 2.81954,-4.17294 2.4812,1.12782 l -0.78947,7.89473 c 0,0 -0.11278,4.96241 -1.24061,8.00752 0,0 -1.91729,6.09023 -2.70676,7.66918 0,0 -2.48121,5.30075 -3.38346,7.66917 0,0 -1.9173,3.49624 -2.03008,5.41353 0,0 -1.46616,14.54887 -9.69925,6.20301 0,0 -5.63909,-7.33083 -7.21804,-9.81203 0,0 -2.4812,-4.51128 -5.18797,-5.6391 0,0 -2.93233,-4.28571 4.28571,-1.80451 0,0 -2.93233,-19.84962 2.03008,-23.90977 0,0 0.78947,-1.2406 2.36842,6.09022 0,0 0.45113,7.44361 2.03007,9.02256 z"
       id="path2731-1-0" />
    <path
       style="fill:#ff5555;stroke:none;stroke-width:0.157895px;stroke-linecap:butt;stroke-linejoin:miter;stroke-opacity:1"
       d="m 711.30618,564.08722 c 0,0 2.47222,-3.9077 3.18996,-4.70519 0,0 2.07343,-0.319 5.42289,1.43547 0,0 2.55196,-2.79121 3.5887,-3.18995 0,0 4.38619,4.94443 4.78493,12.75982 0,0 1.11648,14.1953 -7.73564,16.90676 0,0 -9.64962,1.67473 -13.63706,-9.96861 0,0 -4.14694,-12.44082 -1.91397,-15.23203 0,0 2.79128,0.0797 6.30019,1.99373 z"
       id="path2733-2-5" />
    <path
       style="fill:none;stroke:#000000;stroke-width:0.157895px;stroke-linecap:butt;stroke-linejoin:miter;stroke-opacity:1"
       d="m 717.19492,616.11251 c 0,0 3.04511,-27.18046 0.67669,-28.7594"
       id="path2737-1-4" />
    <path
       style="fill:#008000;stroke:none;stroke-width:0.157895px;stroke-linecap:butt;stroke-linejoin:miter;stroke-opacity:1"
       d="m 717.87165,587.35312 2.6854,-0.059 0.5852,11.78826 c 0,0 -1.46616,3.60902 -0.56391,11.72932 0,0 1.01504,7.21804 -1.2406,10.48872 l -2.14282,-5.18794"
       id="path2739-8-5" />
    <path
       style="fill:#ff00ff;stroke:none;stroke-width:0.157895px;stroke-linecap:butt;stroke-linejoin:miter;stroke-opacity:1"
       d="m 679.48637,582.03072 c 0,0 -3.26971,-5.82167 -9.25088,-2.23297 0,0 -0.0797,0.79747 1.51522,1.75446 0,0 1.59497,1.83423 1.51522,4.62544 0,0 -0.7975,9.41037 -0.0797,11.72309 0,0 1.27597,8.45338 9.96859,10.20785 0,0 6.30016,0.39875 9.17112,-6.06091 v 0 c 0,0 1.59498,-5.34318 1.19623,-11.80284 0,0 -0.31899,-7.89514 2.31272,-9.56986 0,0 0,-3.9077 -8.45338,1.83422 0,0 -3.34945,-3.66845 -4.62543,-4.38619 0,0 -1.11644,0.15952 -3.26968,3.90771 z"
       id="path2741-2-4" />
    <path
       style="fill:#008000;stroke:none;stroke-width:0.157895px;stroke-linecap:butt;stroke-linejoin:miter;stroke-opacity:1"
       d="m 683.15482,608.10862 c 0,0 -0.24562,11.27457 -0.13279,14.09412 0,0 0.45104,9.92479 -0.22564,10.60148 l 1.91729,3.15789 1.2406,-4.28571 c 0,0 -1.12783,-22.78196 -0.45113,-23.79699 z"
       id="path2743-3-5" />
    <path
       style="fill:#77dd77;fill-opacity:1;stroke:none;stroke-width:0.157895px;stroke-linecap:butt;stroke-linejoin:miter;stroke-opacity:1"
       d="m 719.33778,621.30048 c 0,0 -8.45865,-21.8797 -9.81204,-22.33083 0,0 -4.51131,1.01502 -3.15792,17.48118 0.22556,0 3.04511,12.63158 7.33082,16.57895 0,0 5.07519,8.45865 9.47369,-0.22556 0,0 4.06015,-12.85715 5.41353,-15.67669 v 0 c 0,0 6.42857,-15 6.76692,-15.56391 0,0 8.68417,-18.15793 -4.73685,-1.80452 l -1.69172,2.93233 c 0,0 -8.23309,-16.2406 -8.797,3.27068 0,0 1.35345,13.19554 -0.78943,15.33837 z"
       id="path2751-3-7" />
    <path
       style="fill:#77dd77;fill-opacity:1;stroke:none;stroke-width:0.157895px;stroke-linecap:butt;stroke-linejoin:miter;stroke-opacity:1"
       d="m 684.71371,635.96214 1.24059,-4.28571 c 0,0 2.3684,-15.33838 5.41352,-18.27071 0,0 5.07518,-11.39098 10.37594,-12.63158 0,0 1.69172,0.6767 -3.49625,13.64662 0,0 -5.52631,15.67669 -4.84962,17.70677 0,0 -1.46616,13.87218 -10.6015,21.99248 0,0 -13.08271,-9.3609 -14.54888,-22.55639 0,0 -0.45113,-11.2782 0.33836,-14.09775 0,0 2.59397,-11.27819 4.51127,0.22557 0,0 2.25564,9.13533 2.59398,10.03759 0,0 2.03008,-15.22556 4.3985,-0.5639 0,0 4.62411,8.79705 4.62409,8.79701 z"
       id="path2753-6-2" />
    <path
       style="fill:#ffd05a;fill-opacity:1;stroke:none;stroke-width:1.056;stroke-linecap:butt;stroke-linejoin:miter;stroke-miterlimit:4;stroke-dasharray:none;stroke-opacity:1"
       d="m 779.99526,596.29964 c 0,0 -0.1595,-10.04837 8.37363,-10.04837 0,0 8.21412,0.23924 7.57613,10.36735 0,0 6.45966,-6.22041 12.12183,1.99372 0,0 4.38619,7.4964 -4.22669,12.52058 0,0 8.61288,3.5887 4.14694,12.99907 0,0 -4.54568,6.6989 -12.12183,1.59497 0,0 1.75448,9.09138 -7.81539,10.28761 0,0 -8.37363,-0.319 -7.97489,-10.52685 0,0 -7.41663,6.53941 -12.83956,-3.50895 0,0 -2.15322,-8.05464 5.26343,-11.16485 0,0 -7.73564,-3.2697 -4.38619,-12.04208 0,0 4.78495,-8.37361 11.88259,-2.4722 z"
       id="path3284-9-5" />
    <ellipse
       style="fill:#ffffff;fill-opacity:1;stroke-width:0.0354167;filter:url(#filter3188-6-0)"
       id="path2024-5-0"
       cx="2.2649522"
       cy="-3.6828492"
       rx="0.7023719"
       ry="0.69974136"
       transform="matrix(15.157895,0,0,-15.157895,754.04949,553.86188)" />
    <path
       style="fill:#eaf4f2;fill-opacity:1;stroke:none;stroke-width:0.157895px;stroke-linecap:butt;stroke-linejoin:miter;stroke-opacity:1"
       d="m 793.71774,618.96436 c -11.16485,2.07347 -12.75983,-16.98652 -12.75983,-16.98652 0,0 -6.22041,5.82165 -1.03674,13.79654 0,0 5.74194,8.45343 13.79657,3.18998 z"
       id="path3192-8-3" />
    <path
       style="fill:none;stroke:#000000;stroke-width:0.157895px;stroke-linecap:butt;stroke-linejoin:miter;stroke-opacity:1"
       d="M 787.39823,636.33362 Z"
       id="path3288-9-0" />
    <path
       id="path3290-3-9"
       style="opacity:1;fill:#a7af54;fill-opacity:1;stroke:#f7efe2;stroke-width:0;stroke-linecap:butt;stroke-linejoin:miter;stroke-miterlimit:4;stroke-dasharray:none;stroke-opacity:1"
       d="m 787.39816,636.33358 v 9.3306 c -2.71145,-8.61286 -11.16488,-8.37367 -11.16488,-8.37367 0.79748,15.47129 12.28155,15.15235 12.28155,15.15235 11.96232,-1.35573 11.88251,-15.23191 11.88251,-15.23191 -8.29388,0.0797 -11.24476,8.37366 -11.24476,8.37366 l -0.0796,-9.25103 z" />
    <path
       style="fill:#939941;fill-opacity:1;stroke:none;stroke-width:0.157895px;stroke-linecap:butt;stroke-linejoin:miter;stroke-opacity:1"
       d="m 788.27883,649.21906 c 0,0 2.42481,-10.0376 11.78572,-10.09399 0,0 -0.26107,11.91756 -11.54972,13.31779 0,0 -6.94654,-0.85541 -9.59691,-5.47947 0,0 -1.9173,-2.65038 -2.4812,-7.78196 0,0 8.57144,-1.24054 11.84211,10.03763 z"
       id="path3385-8-8" />
    <path
       style="opacity:1;fill:#ef5b5b;fill-opacity:1;stroke:none;stroke-width:0.410526;stroke-linecap:butt;stroke-linejoin:miter;stroke-miterlimit:4;stroke-dasharray:none;stroke-opacity:1"
       d="m 834.65324,584.00204 c 0,0 -1.2406,-8.34587 -11.16542,-10.60151 0,0 -8.68423,-1.46618 -11.27822,6.54135 0,0 4.28572,-0.11278 4.96241,5.97744 0,0 0.22556,6.99248 -1.01504,12.96993 -0.15862,0.46819 -2.0726,11.47354 -0.47762,17.05597 0,0 3.11021,10.12811 17.06626,9.88886 0,0 16.34853,1.91397 20.25622,-8.77238 0,0 2.15322,-6.06092 0.638,-14.1953 0,0 -2.23297,-11.80284 -1.83423,-12.91932 0,0 -1.27599,-9.25087 4.78494,-10.04836 0,0 -2.23297,-8.13439 -11.5636,-6.37991 0,0 -9.34332,2.54447 -10.3737,10.48323 z"
       id="path3387-5-4" />
    <path
       style="fill:#e24949;fill-opacity:0.286275;stroke:none;stroke-width:0.157895px;stroke-linecap:butt;stroke-linejoin:miter;stroke-opacity:1"
       d="m 816.41794,607.09498 c 0,0 2.76315,8.1767 4.56767,9.30452 0,0 6.31576,4.90599 11.05261,4.73682 0,0 13.02631,0.50752 18.04511,-2.19925 0,0 -5.6391,6.48496 -18.21429,5.13158 0,0 -11.10902,-1.07144 -13.13909,-6.42857 0,-0.39474 -3.49621,-5.97741 -2.31201,-10.5451 z"
       id="path3391-9-3" />
    <path
       style="opacity:1;fill:#a7af54;fill-opacity:1;stroke:#f7efe2;stroke-width:0.205264;stroke-linecap:butt;stroke-linejoin:miter;stroke-miterlimit:4;stroke-dasharray:none;stroke-opacity:1"
       d="m 832.74564,625.8341 0.0256,13.34736 c 0,0 -3.04507,-9.98123 -13.98492,-10.60153 0,0 -0.22557,16.69173 13.87218,18.60902 0,0 6.82331,0.22557 11.33459,-4.56767 0,0 4.45488,-4.51128 4.79323,-13.98496 0,0 -10.31955,-0.45113 -14.09775,10.6015 v -13.36466 z"
       id="path3393-5-2" />
    <path
       style="fill:#939941;fill-opacity:1;stroke:none;stroke-width:0.157895px;stroke-linecap:butt;stroke-linejoin:miter;stroke-opacity:1"
       d="m 833.5608,643.56868 c 0,0 4.10526,-13.50001 14.84211,-12.55264 0,0 0.55259,12.39471 -12.9474,16.34208 0,0 -8.84211,0.78947 -13.97368,-7.3421 0,0 -1.42106,-1.5 -2.52632,-8.84211 0,0 11.05268,-2.13152 14.60529,12.39477 z"
       id="path3397-4-6" />
    <path
       style="fill:#ffd05a;fill-opacity:1;stroke:none;stroke-width:1.07418;stroke-linecap:butt;stroke-linejoin:miter;stroke-miterlimit:4;stroke-dasharray:none;stroke-opacity:1"
       d="m 872.35015,596.10965 c 0,0 -0.15949,-10.04837 8.37363,-10.04837 0,0 8.21413,0.23924 7.57614,10.36735 0,0 6.45965,-6.22042 12.12183,1.99372 0,0 4.38625,7.4964 -4.2267,12.52058 0,0 8.61295,3.58869 4.14695,12.99906 0,0 -4.54569,6.69891 -12.12184,1.59498 0,0 1.75448,9.09137 -7.81538,10.28761 0,0 -8.37364,-0.319 -7.97489,-10.52686 0,0 -7.41665,6.53941 -12.83957,-3.50895 0,0 -2.15322,-8.05463 5.26342,-11.16484 0,0 -7.73564,-3.26971 -4.38618,-12.04208 0,0 4.78495,-8.37361 11.88259,-2.4722 z"
       id="path3284-4-7-1" />
    <ellipse
       style="fill:#ffffff;fill-opacity:1;stroke-width:0.0354167;filter:url(#filter3188-7-5-9)"
       id="path2024-0-6-1"
       cx="2.2649522"
       cy="-3.6828492"
       rx="0.7023719"
       ry="0.69974136"
       transform="matrix(15.157895,0,0,-15.157895,846.40438,553.67189)" />
    <path
       style="fill:#eaf4f2;fill-opacity:1;stroke:none;stroke-width:0.157895px;stroke-linecap:butt;stroke-linejoin:miter;stroke-opacity:1"
       d="m 886.07263,618.77437 c -11.16485,2.07347 -12.75983,-16.98652 -12.75983,-16.98652 0,0 -6.22042,5.82165 -1.03674,13.79654 0,0 5.74194,8.45343 13.79657,3.18998 z"
       id="path3192-2-4-1" />
    <path
       style="fill:none;stroke:#000000;stroke-width:0.157895px;stroke-linecap:butt;stroke-linejoin:miter;stroke-opacity:1"
       d="M 879.75312,636.14362 Z"
       id="path3288-7-5-2" />
    <path
       id="path3290-4-6-6"
       style="opacity:1;fill:#a7af54;fill-opacity:1;stroke:#f7efe2;stroke-width:0;stroke-linecap:butt;stroke-linejoin:miter;stroke-miterlimit:4;stroke-dasharray:none;stroke-opacity:1"
       d="m 879.75304,636.14356 v 9.33059 c -2.71145,-8.61285 -11.16489,-8.37366 -11.16489,-8.37366 0.7975,15.47129 12.28156,15.15234 12.28156,15.15234 11.96232,-1.35573 11.88251,-15.2319 11.88251,-15.2319 -8.29388,0.0797 -11.24476,8.37366 -11.24476,8.37366 l -0.0796,-9.25103 z" />
    <path
       style="fill:#939941;fill-opacity:1;stroke:none;stroke-width:0.157895px;stroke-linecap:butt;stroke-linejoin:miter;stroke-opacity:1"
       d="m 880.63372,649.02906 c 0,0 2.42481,-10.03759 11.78572,-10.09399 0,0 -0.26107,11.91757 -11.54972,13.31779 0,0 -6.94654,-0.8554 -9.59691,-5.47947 0,0 -1.9173,-2.65037 -2.48121,-7.78195 0,0 8.57145,-1.24054 11.84212,10.03762 z"
       id="path3385-4-5-5" />
    <path
       id="path3370-4-1-6"
       style="fill:#f2f2f2;fill-opacity:0;stroke:#f7efe2;stroke-width:0;stroke-miterlimit:4;stroke-dasharray:none;stroke-opacity:1"
       d="m 879.04066,639.12475 c -0.19937,-0.002 -0.40048,0.19369 -0.40398,0.58841 -7.9e-4,0.0949 -0.004,0.20421 0.004,0.28803 0.008,0.0483 -0.009,0.10247 -0.013,0.14961 -0.0208,0.22525 -0.0208,0.13082 0.0617,0.38363 0.005,0.005 0.0103,0.009 0.0155,0.0136 -0.002,0.0238 -0.005,0.0414 -0.0126,0.13264 0.0123,0.0885 0.02,0.17798 0.0367,0.26582 0.0113,0.0594 0.0471,0.11156 0.0679,0.16839 0.0581,0.15882 0.0993,0.32359 0.12702,0.49034 0.1296,0.77877 0.93659,0.61779 0.78177,-0.15635 l 3.1e-4,-3.2e-4 c -0.0133,-0.0664 -0.0241,-0.13354 -0.0397,-0.19952 -0.0309,-0.12975 -0.0678,-0.26066 -0.11262,-0.38672 -0.0176,-0.0493 -0.0368,-0.0979 -0.0561,-0.14643 -0.0362,-0.0913 -0.0626,-0.1005 -0.009,-0.0673 0.0439,-0.16714 0.0271,-0.31721 -0.0579,-0.47276 0.008,-0.0723 0.008,-0.17766 0.006,-0.22543 -0.008,-0.0761 -0.003,-0.15332 -0.002,-0.23005 0.004,-0.39471 -0.19383,-0.59372 -0.3932,-0.59549 z m -0.27138,1.47996 c 0.0393,0.0344 0.0785,0.069 0.11777,0.10337 0.0393,0.0344 -0.0958,-0.0558 -0.11777,-0.10307 -4e-5,-9e-5 4e-5,-1.6e-4 0,-3e-4 z" />
    <path
       id="path3374-6-5-5"
       style="fill:#f2f2f2;fill-opacity:0;stroke:#f7efe2;stroke-width:0;stroke-miterlimit:4;stroke-dasharray:none;stroke-opacity:1"
       d="m 879.04066,639.12475 c -0.19937,-0.002 -0.40048,0.19369 -0.40398,0.58841 -7.9e-4,0.0949 -0.004,0.20421 0.004,0.28803 0.008,0.0483 -0.009,0.10247 -0.013,0.14961 -0.0208,0.22525 -0.0208,0.13082 0.0617,0.38363 0.005,0.005 0.0103,0.009 0.0155,0.0136 -0.002,0.0238 -0.005,0.0414 -0.0126,0.13264 0.0123,0.0885 0.02,0.17798 0.0367,0.26582 0.0113,0.0594 0.0471,0.11156 0.0679,0.16839 0.0581,0.15882 0.0993,0.32359 0.12702,0.49034 0.1296,0.77877 0.93659,0.61779 0.78177,-0.15635 l 3.1e-4,-3.2e-4 c -0.0133,-0.0664 -0.0241,-0.13354 -0.0397,-0.19952 -0.0309,-0.12975 -0.0678,-0.26066 -0.11262,-0.38672 -0.0176,-0.0493 -0.0368,-0.0979 -0.0561,-0.14643 -0.0362,-0.0913 -0.0626,-0.1005 -0.009,-0.0673 0.0439,-0.16714 0.0271,-0.31721 -0.0579,-0.47276 0.008,-0.0723 0.008,-0.17766 0.006,-0.22543 -0.008,-0.0761 -0.003,-0.15332 -0.002,-0.23005 0.004,-0.39471 -0.19383,-0.59372 -0.3932,-0.59549 z m -0.27138,1.47996 c 0.0393,0.0344 0.0785,0.069 0.11777,0.10337 0.0393,0.0344 -0.0958,-0.0558 -0.11777,-0.10307 -4e-5,-9e-5 4e-5,-1.6e-4 0,-3e-4 z" />
    <path
       id="path3370-0-3"
       style="fill:#f2f2f2;fill-opacity:0;stroke:#f7efe2;stroke-width:0;stroke-miterlimit:4;stroke-dasharray:none;stroke-opacity:1"
       d="m 786.68578,639.31477 c -0.19937,-0.002 -0.40049,0.19368 -0.40399,0.58841 -7.9e-4,0.0949 -0.005,0.20421 0.004,0.28803 0.008,0.0483 -0.009,0.10243 -0.0129,0.14957 -0.0208,0.22524 -0.0208,0.13078 0.0617,0.38363 0.005,0.005 0.0103,0.009 0.0154,0.0136 -0.002,0.0238 -0.005,0.0413 -0.0127,0.13261 0.0123,0.0885 0.02,0.17798 0.0367,0.26583 0.0113,0.0594 0.0471,0.11155 0.0678,0.16838 0.058,0.15883 0.0993,0.32359 0.12706,0.49034 0.1296,0.77876 0.93659,0.61779 0.78176,-0.15636 l 3.2e-4,-3.1e-4 c -0.0133,-0.0664 -0.0242,-0.13355 -0.0398,-0.19953 -0.0309,-0.12975 -0.0677,-0.26065 -0.11256,-0.38672 -0.0176,-0.0493 -0.0369,-0.098 -0.0561,-0.14648 -0.0362,-0.0913 -0.0626,-0.10043 -0.009,-0.0672 0.044,-0.16714 0.0272,-0.31721 -0.058,-0.47276 0.008,-0.0723 0.008,-0.17766 0.006,-0.22543 -0.008,-0.0761 -0.003,-0.15333 -0.002,-0.23006 0.004,-0.39472 -0.19383,-0.59372 -0.3932,-0.5955 z m -0.27138,1.47996 c 0.0393,0.0344 0.0785,0.0689 0.1178,0.10331 0.0393,0.0344 -0.0958,-0.0557 -0.1178,-0.10301 -4e-5,-9e-5 4e-5,-1.5e-4 0,-3.1e-4 z" />
    <path
       id="path3374-2-5"
       style="fill:#f2f2f2;fill-opacity:0;stroke:#f7efe2;stroke-width:0;stroke-miterlimit:4;stroke-dasharray:none;stroke-opacity:1"
       d="m 786.68578,639.31477 c -0.19937,-0.002 -0.40049,0.19368 -0.40399,0.58841 -7.9e-4,0.0949 -0.005,0.20421 0.004,0.28803 0.008,0.0483 -0.009,0.10243 -0.0129,0.14957 -0.0208,0.22524 -0.0208,0.13078 0.0617,0.38363 0.005,0.005 0.0103,0.009 0.0154,0.0136 -0.002,0.0238 -0.005,0.0413 -0.0127,0.13261 0.0123,0.0885 0.02,0.17798 0.0367,0.26583 0.0113,0.0594 0.0471,0.11155 0.0678,0.16838 0.058,0.15883 0.0993,0.32359 0.12706,0.49034 0.1296,0.77876 0.93659,0.61779 0.78176,-0.15636 l 3.2e-4,-3.1e-4 c -0.0133,-0.0664 -0.0242,-0.13355 -0.0398,-0.19953 -0.0309,-0.12975 -0.0677,-0.26065 -0.11256,-0.38672 -0.0176,-0.0493 -0.0369,-0.098 -0.0561,-0.14648 -0.0362,-0.0913 -0.0626,-0.10043 -0.009,-0.0672 0.044,-0.16714 0.0272,-0.31721 -0.058,-0.47276 0.008,-0.0723 0.008,-0.17766 0.006,-0.22543 -0.008,-0.0761 -0.003,-0.15333 -0.002,-0.23006 0.004,-0.39472 -0.19383,-0.59372 -0.3932,-0.5955 z m -0.27138,1.47996 c 0.0393,0.0344 0.0785,0.0689 0.1178,0.10331 0.0393,0.0344 -0.0958,-0.0557 -0.1178,-0.10301 -4e-5,-9e-5 4e-5,-1.5e-4 0,-3.1e-4 z" />
    <path
       style="fill:#ff5555;stroke:none;stroke-width:0.157895px;stroke-linecap:butt;stroke-linejoin:miter;stroke-opacity:1"
       d="m 944.8031,564.31955 c 0,0 -2.2329,-4.62543 -7.6559,-5.58242 0,0 0.957,10.04835 -0.1595,11.16484 0,0 -1.59496,7.97489 -0.638,11.16484 0,0 1.4355,6.06092 6.0609,8.13439 0,0 7.6559,2.39246 10.8459,-4.78494 0,0 3.1899,-6.6989 3.3494,-10.84584 0,0 2.0735,-9.56987 3.19,-10.20786 0,0 -0.4785,-2.39247 -7.3369,1.91397 0,0 -1.595,-3.66845 -3.0305,-5.26343 0,0 -4.1469,3.18997 -4.6254,4.30645 z"
       id="path2719-1-0-5" />
    <path
       style="fill:#008000;stroke:none;stroke-width:0.157895px;stroke-linecap:butt;stroke-linejoin:miter;stroke-opacity:1"
       d="m 939.46,616.2361 c 0,0 0,-10.52686 0.2392,-13.31807 0,0 1.0367,-12.12186 2.7114,-13.71683 0,0 2.1533,0.47849 2.6318,0.39874 0,0 -1.914,9.49012 -1.9938,11.24459 0,0 -1.0367,11.88259 -0.7177,13.39782 0,0 0.5582,8.53313 0.8772,8.69263 l -0.638,1.51522 z"
       id="path2723-3-5-1" />
    <path
       style="fill:#77dd77;fill-opacity:1;stroke:none;stroke-width:0.157895px;stroke-linecap:butt;stroke-linejoin:miter;stroke-opacity:1"
       d="m 942.5702,624.45023 c 0,0 2.5495,-5.21742 2.8879,-6.79637 0,0 2.2556,-7.21807 2.1428,-8.79701 0,0 1.4662,-7.33083 2.1429,-9.69925 0,0 3.609,-6.99248 5.0751,-9.3609 0,0 2.8196,-4.17294 2.4812,1.12782 l -0.7894,7.89473 c 0,0 -0.1128,4.96241 -1.2406,8.00752 0,0 -1.9173,6.09023 -2.7068,7.66918 0,0 -2.4812,5.30075 -3.3835,7.66917 0,0 -1.9173,3.49624 -2.03,5.41353 0,0 -1.4662,14.54887 -9.6993,6.20301 0,0 -5.63908,-7.33083 -7.21803,-9.81203 0,0 -2.4812,-4.51128 -5.18797,-5.6391 0,0 -2.93233,-4.28571 4.28571,-1.80451 0,0 -2.93233,-19.84962 2.03008,-23.90977 0,0 0.78947,-1.2406 2.36842,6.09022 0,0 0.45113,7.44361 2.03007,9.02256 z"
       id="path2731-1-0-6" />
    <path
       style="fill:#ff5555;stroke:none;stroke-width:0.157895px;stroke-linecap:butt;stroke-linejoin:miter;stroke-opacity:1"
       d="m 1006.449,565.51579 c 0,0 2.4723,-3.9077 3.19,-4.70519 0,0 2.0734,-0.319 5.4229,1.43547 0,0 2.5519,-2.79121 3.5887,-3.18995 0,0 4.3862,4.94443 4.7849,12.75982 0,0 1.1165,14.1953 -7.7356,16.90676 0,0 -9.6496,1.67473 -13.6371,-9.96861 0,0 -4.1469,-12.44082 -1.914,-15.23203 0,0 2.7913,0.0797 6.3002,1.99373 z"
       id="path2733-2-5-7" />
    <path
       style="fill:none;stroke:#000000;stroke-width:0.157895px;stroke-linecap:butt;stroke-linejoin:miter;stroke-opacity:1"
       d="m 1012.3378,617.54108 c 0,0 3.0451,-27.18046 0.6767,-28.7594"
       id="path2737-1-4-3" />
    <path
       style="fill:#008000;stroke:none;stroke-width:0.157895px;stroke-linecap:butt;stroke-linejoin:miter;stroke-opacity:1"
       d="m 1013.0145,588.78169 2.6854,-0.059 0.5852,11.78826 c 0,0 -1.4662,3.60902 -0.5639,11.72932 0,0 1.015,7.21804 -1.2406,10.48872 l -2.1428,-5.18794"
       id="path2739-8-5-6" />
    <path
       style="fill:#ff00ff;stroke:none;stroke-width:0.157895px;stroke-linecap:butt;stroke-linejoin:miter;stroke-opacity:1"
       d="m 974.6292,583.45929 c 0,0 -3.2697,-5.82167 -9.2509,-2.23297 0,0 -0.08,0.79747 1.5153,1.75446 0,0 1.5949,1.83423 1.5152,4.62544 0,0 -0.7975,9.41037 -0.08,11.72309 0,0 1.276,8.45338 9.9686,10.20785 0,0 6.3001,0.39875 9.1711,-6.06091 v 0 c 0,0 1.595,-5.34318 1.1962,-11.80284 0,0 -0.319,-7.89514 2.3127,-9.56986 0,0 0,-3.9077 -8.4533,1.83422 0,0 -3.3495,-3.66845 -4.6255,-4.38619 0,0 -1.1164,0.15952 -3.2696,3.90771 z"
       id="path2741-2-4-0" />
    <path
       style="fill:#008000;stroke:none;stroke-width:0.157895px;stroke-linecap:butt;stroke-linejoin:miter;stroke-opacity:1"
       d="m 978.2977,609.53719 c 0,0 -0.2456,11.27457 -0.1328,14.09412 0,0 0.451,9.92479 -0.2257,10.60148 l 1.9173,3.15789 1.2406,-4.28571 c 0,0 -1.1278,-22.78196 -0.4511,-23.79699 z"
       id="path2743-3-5-1" />
    <path
       style="fill:#77dd77;fill-opacity:1;stroke:none;stroke-width:0.157895px;stroke-linecap:butt;stroke-linejoin:miter;stroke-opacity:1"
       d="m 1014.4806,622.72905 c 0,0 -8.4586,-21.8797 -9.812,-22.33083 0,0 -4.5113,1.01502 -3.1579,17.48118 0.2255,0 3.0451,12.63158 7.3308,16.57895 0,0 5.0752,8.45865 9.4737,-0.22556 0,0 4.0601,-12.85715 5.4135,-15.67669 v 0 c 0,0 6.4286,-15 6.7669,-15.56391 0,0 8.6842,-18.15793 -4.7368,-1.80452 l -1.6917,2.93233 c 0,0 -8.2331,-16.2406 -8.797,3.27068 0,0 1.3534,13.19554 -0.7895,15.33837 z"
       id="path2751-3-7-3" />
    <path
       style="fill:#77dd77;fill-opacity:1;stroke:none;stroke-width:0.157895px;stroke-linecap:butt;stroke-linejoin:miter;stroke-opacity:1"
       d="m 979.8566,637.39071 1.2406,-4.28571 c 0,0 2.3684,-15.33838 5.4135,-18.27071 0,0 5.0752,-11.39098 10.3759,-12.63158 0,0 1.6917,0.6767 -3.4962,13.64662 0,0 -5.5263,15.67669 -4.8497,17.70677 0,0 -1.4661,13.87218 -10.6015,21.99248 0,0 -13.0827,-9.3609 -14.5488,-22.55639 0,0 -0.4512,-11.2782 0.3383,-14.09775 0,0 2.594,-11.27819 4.5113,0.22557 0,0 2.2556,9.13533 2.594,10.03759 0,0 2.0301,-15.22556 4.3985,-0.5639 0,0 4.6241,8.79705 4.6241,8.79701 z"
       id="path2753-6-2-1" />
    <path
       style="fill:#ffd05a;fill-opacity:1;stroke:none;stroke-width:1.056;stroke-linecap:butt;stroke-linejoin:miter;stroke-miterlimit:4;stroke-dasharray:none;stroke-opacity:1"
       d="m 1080.5667,596.29963 c 0,0 -0.1595,-10.04837 8.3736,-10.04837 0,0 8.2141,0.23924 7.5761,10.36735 0,0 6.4597,-6.22041 12.1219,1.99372 0,0 4.3862,7.4964 -4.2267,12.52058 0,0 8.6129,3.5887 4.1469,12.99907 0,0 -4.5457,6.6989 -12.1218,1.59497 0,0 1.7545,9.09138 -7.8154,10.28761 0,0 -8.3736,-0.319 -7.9749,-10.52685 0,0 -7.4166,6.53941 -12.8395,-3.50895 0,0 -2.1533,-8.05464 5.2634,-11.16485 0,0 -7.7357,-3.2697 -4.3862,-12.04208 0,0 4.7849,-8.37361 11.8826,-2.4722 z"
       id="path3284-9-5-8" />
    <ellipse
       style="fill:#ffffff;fill-opacity:1;stroke-width:0.0354167;filter:url(#filter3188-6-0-1)"
       id="path2024-5-0-5"
       cx="2.2649522"
       cy="-3.6828492"
       rx="0.7023719"
       ry="0.69974136"
       transform="matrix(15.157895,0,0,-15.157895,1054.6209,553.86187)" />
    <path
       style="fill:#eaf4f2;fill-opacity:1;stroke:none;stroke-width:0.157895px;stroke-linecap:butt;stroke-linejoin:miter;stroke-opacity:1"
       d="m 1094.2892,618.96435 c -11.1649,2.07347 -12.7599,-16.98652 -12.7599,-16.98652 0,0 -6.2204,5.82165 -1.0367,13.79654 0,0 5.7419,8.45343 13.7966,3.18998 z"
       id="path3192-8-3-1" />
    <path
       style="fill:none;stroke:#000000;stroke-width:0.157895px;stroke-linecap:butt;stroke-linejoin:miter;stroke-opacity:1"
       d="M 1087.9697,636.33361 Z"
       id="path3288-9-0-6" />
    <path
       id="path3290-3-9-1"
       style="opacity:1;fill:#a7af54;fill-opacity:1;stroke:#f7efe2;stroke-width:0;stroke-linecap:butt;stroke-linejoin:miter;stroke-miterlimit:4;stroke-dasharray:none;stroke-opacity:1"
       d="m 1087.9696,636.33357 v 9.3306 c -2.7115,-8.61286 -11.1649,-8.37367 -11.1649,-8.37367 0.7975,15.47129 12.2816,15.15235 12.2816,15.15235 11.9623,-1.35573 11.8825,-15.23191 11.8825,-15.23191 -8.2939,0.0797 -11.2448,8.37366 -11.2448,8.37366 l -0.08,-9.25103 z" />
    <path
       style="fill:#939941;fill-opacity:1;stroke:none;stroke-width:0.157895px;stroke-linecap:butt;stroke-linejoin:miter;stroke-opacity:1"
       d="m 1088.8503,649.21905 c 0,0 2.4248,-10.0376 11.7857,-10.09399 0,0 -0.2611,11.91756 -11.5497,13.31779 0,0 -6.9466,-0.85541 -9.597,-5.47947 0,0 -1.9173,-2.65038 -2.4812,-7.78196 0,0 8.5715,-1.24054 11.8422,10.03763 z"
       id="path3385-8-8-1" />
    <path
       style="opacity:1;fill:#ef5b5b;fill-opacity:1;stroke:none;stroke-width:0.410526;stroke-linecap:butt;stroke-linejoin:miter;stroke-miterlimit:4;stroke-dasharray:none;stroke-opacity:1"
       d="m 1135.2247,584.00203 c 0,0 -1.2406,-8.34587 -11.1655,-10.60151 0,0 -8.6842,-1.46618 -11.2782,6.54135 0,0 4.2857,-0.11278 4.9624,5.97744 0,0 0.2256,6.99248 -1.015,12.96993 -0.1586,0.46819 -2.0726,11.47354 -0.4776,17.05597 0,0 3.1102,10.12811 17.0662,9.88886 0,0 16.3486,1.91397 20.2563,-8.77238 0,0 2.1532,-6.06092 0.638,-14.1953 0,0 -2.233,-11.80284 -1.8343,-12.91932 0,0 -1.276,-9.25087 4.785,-10.04836 0,0 -2.233,-8.13439 -11.5636,-6.37991 0,0 -9.3434,2.54447 -10.3737,10.48323 z"
       id="path3387-5-4-8" />
    <path
       style="fill:#e24949;fill-opacity:0.286275;stroke:none;stroke-width:0.157895px;stroke-linecap:butt;stroke-linejoin:miter;stroke-opacity:1"
       d="m 1116.9894,607.09497 c 0,0 2.7631,8.1767 4.5676,9.30452 0,0 6.3158,4.90599 11.0526,4.73682 0,0 13.0264,0.50752 18.0452,-2.19925 0,0 -5.6391,6.48496 -18.2143,5.13158 0,0 -11.1091,-1.07144 -13.1391,-6.42857 0,-0.39474 -3.4962,-5.97741 -2.312,-10.5451 z"
       id="path3391-9-3-3" />
    <path
       style="opacity:1;fill:#a7af54;fill-opacity:1;stroke:#f7efe2;stroke-width:0.205264;stroke-linecap:butt;stroke-linejoin:miter;stroke-miterlimit:4;stroke-dasharray:none;stroke-opacity:1"
       d="m 1133.3171,625.83409 0.026,13.34736 c 0,0 -3.0451,-9.98123 -13.985,-10.60153 0,0 -0.2255,16.69173 13.8722,18.60902 0,0 6.8233,0.22557 11.3346,-4.56767 0,0 4.4549,-4.51128 4.7932,-13.98496 0,0 -10.3195,-0.45113 -14.0977,10.6015 v -13.36466 z"
       id="path3393-5-2-1" />
    <path
       style="fill:#939941;fill-opacity:1;stroke:none;stroke-width:0.157895px;stroke-linecap:butt;stroke-linejoin:miter;stroke-opacity:1"
       d="m 1134.1322,643.56867 c 0,0 4.1053,-13.50001 14.8421,-12.55264 0,0 0.5526,12.39471 -12.9474,16.34208 0,0 -8.8421,0.78947 -13.9736,-7.3421 0,0 -1.4211,-1.5 -2.5264,-8.84211 0,0 11.0527,-2.13152 14.6053,12.39477 z"
       id="path3397-4-6-5" />
    <path
       style="fill:#ffd05a;fill-opacity:1;stroke:none;stroke-width:1.07418;stroke-linecap:butt;stroke-linejoin:miter;stroke-miterlimit:4;stroke-dasharray:none;stroke-opacity:1"
       d="m 1172.9216,596.10964 c 0,0 -0.1595,-10.04837 8.3737,-10.04837 0,0 8.2141,0.23924 7.5761,10.36735 0,0 6.4596,-6.22042 12.1218,1.99372 0,0 4.3863,7.4964 -4.2267,12.52058 0,0 8.613,3.58869 4.147,12.99906 0,0 -4.5457,6.69891 -12.1219,1.59498 0,0 1.7545,9.09137 -7.8153,10.28761 0,0 -8.3737,-0.319 -7.9749,-10.52686 0,0 -7.4167,6.53941 -12.8396,-3.50895 0,0 -2.1533,-8.05463 5.2634,-11.16484 0,0 -7.7357,-3.26971 -4.3862,-12.04208 0,0 4.785,-8.37361 11.8826,-2.4722 z"
       id="path3284-4-7-1-5" />
    <ellipse
       style="fill:#ffffff;fill-opacity:1;stroke-width:0.0354167;filter:url(#filter3188-7-5-9-4)"
       id="path2024-0-6-1-2"
       cx="2.2649522"
       cy="-3.6828492"
       rx="0.7023719"
       ry="0.69974136"
       transform="matrix(15.157895,0,0,-15.157895,1146.9758,553.67188)" />
    <path
       style="fill:#eaf4f2;fill-opacity:1;stroke:none;stroke-width:0.157895px;stroke-linecap:butt;stroke-linejoin:miter;stroke-opacity:1"
       d="m 1186.6441,618.77436 c -11.1648,2.07347 -12.7598,-16.98652 -12.7598,-16.98652 0,0 -6.2204,5.82165 -1.0368,13.79654 0,0 5.742,8.45343 13.7966,3.18998 z"
       id="path3192-2-4-1-3" />
    <path
       style="fill:none;stroke:#000000;stroke-width:0.157895px;stroke-linecap:butt;stroke-linejoin:miter;stroke-opacity:1"
       d="M 1180.3246,636.14361 Z"
       id="path3288-7-5-2-4" />
    <path
       id="path3290-4-6-6-3"
       style="opacity:1;fill:#a7af54;fill-opacity:1;stroke:#f7efe2;stroke-width:0;stroke-linecap:butt;stroke-linejoin:miter;stroke-miterlimit:4;stroke-dasharray:none;stroke-opacity:1"
       d="m 1180.3245,636.14355 v 9.33059 c -2.7114,-8.61285 -11.1649,-8.37366 -11.1649,-8.37366 0.7975,15.47129 12.2816,15.15234 12.2816,15.15234 11.9623,-1.35573 11.8825,-15.2319 11.8825,-15.2319 -8.2939,0.0797 -11.2448,8.37366 -11.2448,8.37366 l -0.08,-9.25103 z" />
    <path
       style="fill:#939941;fill-opacity:1;stroke:none;stroke-width:0.157895px;stroke-linecap:butt;stroke-linejoin:miter;stroke-opacity:1"
       d="m 1181.2052,649.02905 c 0,0 2.4248,-10.03759 11.7857,-10.09399 0,0 -0.2611,11.91757 -11.5497,13.31779 0,0 -6.9465,-0.8554 -9.5969,-5.47947 0,0 -1.9173,-2.65037 -2.4812,-7.78195 0,0 8.5714,-1.24054 11.8421,10.03762 z"
       id="path3385-4-5-5-7" />
    <path
       id="path3370-4-1-6-1"
       style="fill:#f2f2f2;fill-opacity:0;stroke:#f7efe2;stroke-width:0;stroke-miterlimit:4;stroke-dasharray:none;stroke-opacity:1"
       d="m 1179.6121,639.12474 c -0.1993,-0.002 -0.4004,0.19369 -0.4039,0.58841 -8e-4,0.0949 0,0.20421 0,0.28803 0.01,0.0483 -0.01,0.10247 -0.013,0.14961 -0.021,0.22525 -0.021,0.13082 0.062,0.38363 0,0.005 0.01,0.009 0.015,0.0136 0,0.0238 0,0.0414 -0.013,0.13264 0.012,0.0885 0.02,0.17798 0.037,0.26582 0.011,0.0594 0.047,0.11156 0.068,0.16839 0.058,0.15882 0.099,0.32359 0.127,0.49034 0.1296,0.77877 0.9366,0.61779 0.7817,-0.15635 l 4e-4,-3.2e-4 c -0.013,-0.0664 -0.024,-0.13354 -0.04,-0.19952 -0.031,-0.12975 -0.068,-0.26066 -0.1127,-0.38672 -0.018,-0.0493 -0.037,-0.0979 -0.056,-0.14643 -0.036,-0.0913 -0.063,-0.1005 -0.01,-0.0673 0.044,-0.16714 0.027,-0.31721 -0.058,-0.47276 0.01,-0.0723 0.01,-0.17766 0.01,-0.22543 -0.01,-0.0761 0,-0.15332 0,-0.23005 0,-0.39471 -0.1938,-0.59372 -0.3932,-0.59549 z m -0.2713,1.47996 c 0.039,0.0344 0.078,0.069 0.1177,0.10337 0.039,0.0344 -0.096,-0.0558 -0.1177,-0.10307 -10e-5,-9e-5 0,-1.6e-4 0,-3e-4 z" />
    <path
       id="path3374-6-5-5-0"
       style="fill:#f2f2f2;fill-opacity:0;stroke:#f7efe2;stroke-width:0;stroke-miterlimit:4;stroke-dasharray:none;stroke-opacity:1"
       d="m 1179.6121,639.12474 c -0.1993,-0.002 -0.4004,0.19369 -0.4039,0.58841 -8e-4,0.0949 0,0.20421 0,0.28803 0.01,0.0483 -0.01,0.10247 -0.013,0.14961 -0.021,0.22525 -0.021,0.13082 0.062,0.38363 0,0.005 0.01,0.009 0.015,0.0136 0,0.0238 0,0.0414 -0.013,0.13264 0.012,0.0885 0.02,0.17798 0.037,0.26582 0.011,0.0594 0.047,0.11156 0.068,0.16839 0.058,0.15882 0.099,0.32359 0.127,0.49034 0.1296,0.77877 0.9366,0.61779 0.7817,-0.15635 l 4e-4,-3.2e-4 c -0.013,-0.0664 -0.024,-0.13354 -0.04,-0.19952 -0.031,-0.12975 -0.068,-0.26066 -0.1127,-0.38672 -0.018,-0.0493 -0.037,-0.0979 -0.056,-0.14643 -0.036,-0.0913 -0.063,-0.1005 -0.01,-0.0673 0.044,-0.16714 0.027,-0.31721 -0.058,-0.47276 0.01,-0.0723 0.01,-0.17766 0.01,-0.22543 -0.01,-0.0761 0,-0.15332 0,-0.23005 0,-0.39471 -0.1938,-0.59372 -0.3932,-0.59549 z m -0.2713,1.47996 c 0.039,0.0344 0.078,0.069 0.1177,0.10337 0.039,0.0344 -0.096,-0.0558 -0.1177,-0.10307 -10e-5,-9e-5 0,-1.6e-4 0,-3e-4 z" />
    <path
       id="path3370-0-3-5"
       style="fill:#f2f2f2;fill-opacity:0;stroke:#f7efe2;stroke-width:0;stroke-miterlimit:4;stroke-dasharray:none;stroke-opacity:1"
       d="m 1087.2572,639.31476 c -0.1994,-0.002 -0.4005,0.19368 -0.404,0.58841 -8e-4,0.0949 -0.01,0.20421 0,0.28803 0.01,0.0483 -0.01,0.10243 -0.013,0.14957 -0.021,0.22524 -0.021,0.13078 0.062,0.38363 0.01,0.005 0.01,0.009 0.015,0.0136 0,0.0238 0,0.0413 -0.013,0.13261 0.012,0.0885 0.02,0.17798 0.037,0.26583 0.011,0.0594 0.047,0.11155 0.068,0.16838 0.058,0.15883 0.099,0.32359 0.1271,0.49034 0.1296,0.77876 0.9366,0.61779 0.7817,-0.15636 l 4e-4,-3.1e-4 c -0.013,-0.0664 -0.024,-0.13355 -0.04,-0.19953 -0.031,-0.12975 -0.068,-0.26065 -0.1126,-0.38672 -0.018,-0.0493 -0.037,-0.098 -0.056,-0.14648 -0.036,-0.0913 -0.063,-0.10043 -0.01,-0.0672 0.044,-0.16714 0.027,-0.31721 -0.058,-0.47276 0.01,-0.0723 0.01,-0.17766 0.01,-0.22543 -0.01,-0.0761 0,-0.15333 0,-0.23006 0,-0.39472 -0.1938,-0.59372 -0.3932,-0.5955 z m -0.2714,1.47996 c 0.039,0.0344 0.079,0.0689 0.1178,0.10331 0.039,0.0344 -0.096,-0.0557 -0.1178,-0.10301 0,-9e-5 10e-5,-1.5e-4 0,-3.1e-4 z" />
    <path
       id="path3374-2-5-3"
       style="fill:#f2f2f2;fill-opacity:0;stroke:#f7efe2;stroke-width:0;stroke-miterlimit:4;stroke-dasharray:none;stroke-opacity:1"
       d="m 1087.2572,639.31476 c -0.1994,-0.002 -0.4005,0.19368 -0.404,0.58841 -8e-4,0.0949 -0.01,0.20421 0,0.28803 0.01,0.0483 -0.01,0.10243 -0.013,0.14957 -0.021,0.22524 -0.021,0.13078 0.062,0.38363 0.01,0.005 0.01,0.009 0.015,0.0136 0,0.0238 0,0.0413 -0.013,0.13261 0.012,0.0885 0.02,0.17798 0.037,0.26583 0.011,0.0594 0.047,0.11155 0.068,0.16838 0.058,0.15883 0.099,0.32359 0.1271,0.49034 0.1296,0.77876 0.9366,0.61779 0.7817,-0.15636 l 4e-4,-3.1e-4 c -0.013,-0.0664 -0.024,-0.13355 -0.04,-0.19953 -0.031,-0.12975 -0.068,-0.26065 -0.1126,-0.38672 -0.018,-0.0493 -0.037,-0.098 -0.056,-0.14648 -0.036,-0.0913 -0.063,-0.10043 -0.01,-0.0672 0.044,-0.16714 0.027,-0.31721 -0.058,-0.47276 0.01,-0.0723 0.01,-0.17766 0.01,-0.22543 -0.01,-0.0761 0,-0.15333 0,-0.23006 0,-0.39472 -0.1938,-0.59372 -0.3932,-0.5955 z m -0.2714,1.47996 c 0.039,0.0344 0.079,0.0689 0.1178,0.10331 0.039,0.0344 -0.096,-0.0557 -0.1178,-0.10301 0,-9e-5 10e-5,-1.5e-4 0,-3.1e-4 z" />
    <path
       style="fill:#ff5555;stroke:none;stroke-width:0.157895px;stroke-linecap:butt;stroke-linejoin:miter;stroke-opacity:1"
       d="m 1248.6721,565.931 c 0,0 -2.2329,-4.62543 -7.6559,-5.58242 0,0 0.957,10.04835 -0.1595,11.16484 0,0 -1.595,7.97489 -0.638,11.16484 0,0 1.4355,6.06092 6.0609,8.13439 0,0 7.6559,2.39246 10.8459,-4.78494 0,0 3.1899,-6.6989 3.3494,-10.84584 0,0 2.0735,-9.56987 3.19,-10.20786 0,0 -0.4785,-2.39247 -7.3369,1.91397 0,0 -1.595,-3.66845 -3.0305,-5.26343 0,0 -4.1469,3.18997 -4.6254,4.30645 z"
       id="path2719-1-0-5-9" />
    <path
       style="fill:#008000;stroke:none;stroke-width:0.157895px;stroke-linecap:butt;stroke-linejoin:miter;stroke-opacity:1"
       d="m 1243.329,617.84755 c 0,0 0,-10.52686 0.2392,-13.31807 0,0 1.0367,-12.12186 2.7114,-13.71683 0,0 2.1533,0.47849 2.6318,0.39874 0,0 -1.914,9.49012 -1.9938,11.24459 0,0 -1.0367,11.88259 -0.7177,13.39782 0,0 0.5582,8.53313 0.8772,8.69263 l -0.638,1.51522 z"
       id="path2723-3-5-1-5" />
    <path
       style="fill:#77dd77;fill-opacity:1;stroke:none;stroke-width:0.157895px;stroke-linecap:butt;stroke-linejoin:miter;stroke-opacity:1"
       d="m 1246.4392,626.06168 c 0,0 2.5495,-5.21742 2.8879,-6.79637 0,0 2.2556,-7.21807 2.1428,-8.79701 0,0 1.4662,-7.33083 2.1429,-9.69925 0,0 3.609,-6.99248 5.0751,-9.3609 0,0 2.8196,-4.17294 2.4812,1.12782 l -0.7894,7.89473 c 0,0 -0.1128,4.96241 -1.2406,8.00752 0,0 -1.9173,6.09023 -2.7068,7.66918 0,0 -2.4812,5.30075 -3.3835,7.66917 0,0 -1.9173,3.49624 -2.03,5.41353 0,0 -1.4662,14.54887 -9.6993,6.20301 0,0 -5.6391,-7.33083 -7.218,-9.81203 0,0 -2.4812,-4.51128 -5.188,-5.6391 0,0 -2.9323,-4.28571 4.2857,-1.80451 0,0 -2.9323,-19.84962 2.0301,-23.90977 0,0 0.7895,-1.2406 2.3684,6.09022 0,0 0.4511,7.44361 2.0301,9.02256 z"
       id="path2731-1-0-6-9" />
    <path
       style="fill:#ff5555;stroke:none;stroke-width:0.157895px;stroke-linecap:butt;stroke-linejoin:miter;stroke-opacity:1"
       d="m 1310.318,567.12724 c 0,0 2.4723,-3.9077 3.19,-4.70519 0,0 2.0734,-0.319 5.4229,1.43547 0,0 2.5519,-2.79121 3.5887,-3.18995 0,0 4.3862,4.94443 4.7849,12.75982 0,0 1.1165,14.1953 -7.7356,16.90676 0,0 -9.6496,1.67473 -13.6371,-9.96861 0,0 -4.1469,-12.44082 -1.914,-15.23203 0,0 2.7913,0.0797 6.3002,1.99373 z"
       id="path2733-2-5-7-8" />
    <path
       style="fill:none;stroke:#000000;stroke-width:0.157895px;stroke-linecap:butt;stroke-linejoin:miter;stroke-opacity:1"
       d="m 1316.2068,619.15253 c 0,0 3.0451,-27.18046 0.6767,-28.7594"
       id="path2737-1-4-3-4" />
    <path
       style="fill:#008000;stroke:none;stroke-width:0.157895px;stroke-linecap:butt;stroke-linejoin:miter;stroke-opacity:1"
       d="m 1316.8835,590.39314 2.6854,-0.059 0.5852,11.78826 c 0,0 -1.4662,3.60902 -0.5639,11.72932 0,0 1.015,7.21804 -1.2406,10.48872 l -2.1428,-5.18794"
       id="path2739-8-5-6-0" />
    <path
       style="fill:#ff00ff;stroke:none;stroke-width:0.157895px;stroke-linecap:butt;stroke-linejoin:miter;stroke-opacity:1"
       d="m 1278.4982,585.07074 c 0,0 -3.2697,-5.82167 -9.2509,-2.23297 0,0 -0.08,0.79747 1.5153,1.75446 0,0 1.5949,1.83423 1.5152,4.62544 0,0 -0.7975,9.41037 -0.08,11.72309 0,0 1.276,8.45338 9.9686,10.20785 0,0 6.3001,0.39875 9.1711,-6.06091 v 0 c 0,0 1.595,-5.34318 1.1962,-11.80284 0,0 -0.319,-7.89514 2.3127,-9.56986 0,0 0,-3.9077 -8.4533,1.83422 0,0 -3.3495,-3.66845 -4.6255,-4.38619 0,0 -1.1164,0.15952 -3.2696,3.90771 z"
       id="path2741-2-4-0-3" />
    <path
       style="fill:#008000;stroke:none;stroke-width:0.157895px;stroke-linecap:butt;stroke-linejoin:miter;stroke-opacity:1"
       d="m 1282.1667,611.14864 c 0,0 -0.2456,11.27457 -0.1328,14.09412 0,0 0.451,9.92479 -0.2257,10.60148 l 1.9173,3.15789 1.2406,-4.28571 c 0,0 -1.1278,-22.78196 -0.4511,-23.79699 z"
       id="path2743-3-5-1-5" />
    <path
       style="fill:#77dd77;fill-opacity:1;stroke:none;stroke-width:0.157895px;stroke-linecap:butt;stroke-linejoin:miter;stroke-opacity:1"
       d="m 1318.3496,624.3405 c 0,0 -8.4586,-21.8797 -9.812,-22.33083 0,0 -4.5113,1.01502 -3.1579,17.48118 0.2255,0 3.0451,12.63158 7.3308,16.57895 0,0 5.0752,8.45865 9.4737,-0.22556 0,0 4.0601,-12.85715 5.4135,-15.67669 v 0 c 0,0 6.4286,-15 6.7669,-15.56391 0,0 8.6842,-18.15793 -4.7368,-1.80452 l -1.6917,2.93233 c 0,0 -8.2331,-16.2406 -8.797,3.27068 0,0 1.3534,13.19554 -0.7895,15.33837 z"
       id="path2751-3-7-3-0" />
    <path
       style="fill:#77dd77;fill-opacity:1;stroke:none;stroke-width:0.157895px;stroke-linecap:butt;stroke-linejoin:miter;stroke-opacity:1"
       d="m 1283.7256,639.00216 1.2406,-4.28571 c 0,0 2.3684,-15.33838 5.4135,-18.27071 0,0 5.0752,-11.39098 10.3759,-12.63158 0,0 1.6917,0.6767 -3.4962,13.64662 0,0 -5.5263,15.67669 -4.8497,17.70677 0,0 -1.4661,13.87218 -10.6015,21.99248 0,0 -13.0827,-9.3609 -14.5488,-22.55639 0,0 -0.4512,-11.2782 0.3383,-14.09775 0,0 2.594,-11.27819 4.5113,0.22557 0,0 2.2556,9.13533 2.594,10.03759 0,0 2.0301,-15.22556 4.3985,-0.5639 0,0 4.6241,8.79705 4.6241,8.79701 z"
       id="path2753-6-2-1-5" />
  </g>
</svg>
