<?xml version="1.0" encoding="UTF-8" standalone="no"?>
<svg
   xmlns:dc="http://purl.org/dc/elements/1.1/"
   xmlns:cc="http://creativecommons.org/ns#"
   xmlns:rdf="http://www.w3.org/1999/02/22-rdf-syntax-ns#"
   xmlns:svg="http://www.w3.org/2000/svg"
   xmlns="http://www.w3.org/2000/svg"
   xmlns:sodipodi="http://sodipodi.sourceforge.net/DTD/sodipodi-0.dtd"
   xmlns:inkscape="http://www.inkscape.org/namespaces/inkscape"
   width="11.0in"
   height="5.5in"
   viewBox="0 0 11.0 9.5"
   version="1.1"
   transform="translate(-440,-50)"
   id="SVGRoot"
   sodipodi:docname="bouquet.svg"
   inkscape:version="1.0.1 (3bc2e813f5, 2020-09-07)">
  <defs
     id="defs833" />
  <sodipodi:namedview
     id="base"
     pagecolor="#ffffff"
     bordercolor="#666666"
     borderopacity="1.0"
     inkscape:pageopacity="0.0"
     inkscape:pageshadow="2"
     inkscape:zoom="0.49497475"
     inkscape:cx="697.00554"
     inkscape:cy="497.34243"
     inkscape:document-units="in"
     inkscape:current-layer="layer1"
     inkscape:document-rotation="0"
     showgrid="false"
     inkscape:window-width="1366"
     inkscape:window-height="705"
     inkscape:window-x="-8"
     inkscape:window-y="-8"
     inkscape:window-maximized="1" />
  <metadata
     id="metadata836">
    <rdf:RDF>
      <cc:Work
         rdf:about="">
        <dc:format>image/svg+xml</dc:format>
        <dc:type
           rdf:resource="http://purl.org/dc/dcmitype/StillImage" />
        <dc:title></dc:title>
      </cc:Work>
    </rdf:RDF>
  </metadata>
  <g
     inkscape:label="Layer 1"
     inkscape:groupmode="layer"
     id="layer1">
    <path
       style="fill:#f39eb5;stroke:#000000;stroke-width:0.02708333;stroke-linecap:butt;stroke-linejoin:miter;stroke-opacity:1;fill-opacity:1;stroke-miterlimit:4;stroke-dasharray:none;opacity:1"
       d="m 7.168901,6.1495555 c 0,0 0.3794644,0.4464287 0.4017859,0.6101193 0.014879,-0.00372 0.3422595,-0.1450915 0.412944,-0.1339308 0,0 -0.2008928,-0.3571428 -0.2306547,-0.375744 L 7.0982142,6.0081846 Z"
       id="path1367" />
    <path
       style="fill:#f39eb5;stroke:#000000;stroke-width:0.025;stroke-linecap:butt;stroke-linejoin:miter;stroke-opacity:1;fill-opacity:1;stroke-miterlimit:4;stroke-dasharray:none;opacity:1"
       d="m 6.4397245,6.2818882 -0.394591,0.6366066 c 0,0 0.3104116,-0.021045 0.4156359,0.015784 L 6.77644,6.3555431 6.8191985,6.0416686 c 0,0 -0.2795089,0.2244381 -0.379474,0.2402196 z"
       id="path1365" />
    <ellipse
       style="opacity:0.993548;fill:#ffff00;stroke:#000000;stroke-width:0.015625"
       id="path1421"
       cx="5.8042121"
       cy="2.0222692"
       rx="0.23272459"
       ry="0.20423923" />
    <ellipse
       style="opacity:0.993548;fill:#ffff00;stroke:#000000;stroke-width:0.015625"
       id="path1421-2"
       cx="6.0156255"
       cy="3.0729167"
       rx="0.14880958"
       ry="0.13764887" />
    <ellipse
       style="opacity:0.993548;fill:#ffff00;stroke:#000000;stroke-width:0.015625"
       id="path1421-2-4"
       cx="7.1205354"
       cy="2.6116071"
       rx="0.171131"
       ry="0.15625006" />
    <path
       style="fill:#f46d8d;fill-opacity:1;stroke:#000000;stroke-width:0.0197917;stroke-linecap:butt;stroke-linejoin:miter;stroke-miterlimit:4;stroke-dasharray:none;stroke-opacity:1"
       d="m 5.5768856,1.9624324 c 0,0 -0.741831,-0.3367176 -0.2946279,-0.6892189 0,0 0.7470903,-0.2683222 0.6050376,0.557688 0,0 -0.2788407,-0.089439 -0.3104097,0.1315309 z"
       id="path855" />
    <path
       style="fill:#f46d8d;fill-opacity:1;stroke:#000000;stroke-width:0.0197917;stroke-linecap:butt;stroke-linejoin:miter;stroke-miterlimit:4;stroke-dasharray:none;stroke-opacity:1"
       d="m 5.5768856,1.9624324 c 0,0 -0.741831,-0.3367176 -0.2946279,-0.6892189 0,0 0.7470903,-0.2683222 0.6050376,0.557688 0,0 -0.2788407,-0.089439 -0.3104097,0.1315309 z"
       id="path857" />
    <path
       style="fill:#f46d8d;fill-opacity:1;stroke:#000000;stroke-width:0.0197917;stroke-linecap:butt;stroke-linejoin:miter;stroke-miterlimit:4;stroke-dasharray:none;stroke-opacity:1"
       d="m 5.5768856,1.9624324 c 0,0 -0.741831,-0.3367176 -0.2946279,-0.6892189 0,0 0.7470903,-0.2683222 0.6050376,0.557688 0,0 -0.2788407,-0.089439 -0.3104097,0.1315309 z"
       id="path859" />
    <path
       style="fill:#f46d8d;stroke:#000000;stroke-width:0.01979167;stroke-linecap:butt;stroke-linejoin:miter;stroke-opacity:1;fill-opacity:1;stroke-miterlimit:4;stroke-dasharray:none"
       d="m 5.5768856,1.9624324 c 0,0 -0.741831,-0.3367176 -0.2946279,-0.6892189 0,0 0.7470903,-0.2683222 0.6050376,0.557688 0,0 -0.2788407,-0.089439 -0.3104097,0.1315309 z"
       id="path1453" />
    <path
       style="fill:#f46d8d;stroke:#000000;stroke-width:0.0261811;stroke-linecap:butt;stroke-linejoin:miter;stroke-opacity:1;fill-opacity:1;stroke-miterlimit:4;stroke-dasharray:none"
       d="m 5.8872972,1.830902 c 0,0 0.102288,-0.417211 0.6826454,-0.1493539 0,0 0.1525276,0.3236602 -0.1525319,0.3869043 0,0 -0.2604166,0 -0.3869047,0.00744 0,0 0.055844,-0.2035229 -0.1432088,-0.2449904 z"
       id="path1455" />
    <path
       style="fill:#f46d8d;stroke:#000000;stroke-width:0.02770833;stroke-linecap:butt;stroke-linejoin:miter;stroke-opacity:0.86666667;fill-opacity:1;stroke-miterlimit:4;stroke-dasharray:none"
       d="m 5.5768874,1.962433 c 0,0 -0.7145347,-0.2250813 -0.7182549,0.2176272 0,0 0.055802,0.2418148 0.3199389,0.2232136 0,0 0.3683036,-0.096726 0.4575893,-0.2418155 0,0 -0.092505,-0.08183 -0.059273,-0.1990253 z"
       id="path840" />
    <path
       style="fill:#f46d8d;stroke:#000000;stroke-width:0.02145833;stroke-linecap:butt;stroke-linejoin:miter;stroke-opacity:1;fill-opacity:1;stroke-miterlimit:4;stroke-dasharray:none"
       d="m 5.6361625,2.161459 c 0,0 -0.6026787,0.3534227 -0.1339286,0.5691967 0,0 0.2343732,0.081844 0.3348197,0.033481 -0.00744,-0.00744 -0.063244,-0.2566962 0.1636904,-0.2715772 0,0 -0.044643,-0.2529762 -0.063244,-0.2938988 0,0 -0.2046095,0.074406 -0.3013375,-0.037202 z"
       id="path838" />
    <path
       style="fill:#f46d8d;stroke:#000000;stroke-width:0.02083333;stroke-linecap:butt;stroke-linejoin:miter;stroke-opacity:1;fill-opacity:1;stroke-miterlimit:4;stroke-dasharray:none"
       d="m 5.9375019,2.1986614 c 0,0 0.052083,0.2938989 0.1413691,0.3013394 0,0 0.1822897,0.066963 0.2455338,0.048362 0,0 0,-0.2529759 0.1636904,-0.3087795 0,0 -0.00744,-0.1190476 -0.1674107,-0.1636904 l -0.2901785,-5e-7 c 0,0 -0.00744,0.1190494 -0.093004,0.122769 z"
       id="path843" />
    <path
       style="fill:#f46d8d;stroke:#000000;stroke-width:0.01979167;stroke-linecap:butt;stroke-linejoin:miter;stroke-opacity:1;fill-opacity:1;stroke-miterlimit:4;stroke-dasharray:none"
       d="m 5.9300614,2.9650307 c 0,0 -0.342258,-0.5468736 0.1488116,-0.4650291 0,0 0.1488056,0.066962 0.2455318,0.048361 0,0 0.1837134,0.082243 0.096903,0.2742772 0,0 -0.1762501,0.2051872 -0.2683213,0.1920342 0,0 -0.088088,-0.1255927 -0.2229251,-0.049643 z"
       id="path845" />
    <path
       style="fill:#f46d8d;stroke:#000000;stroke-width:0.01979167;stroke-linecap:butt;stroke-linejoin:miter;stroke-opacity:1;fill-opacity:1;stroke-miterlimit:4;stroke-dasharray:none"
       d="m 6.1529884,3.0146749 c 0,0 0.2630606,-0.1420527 0.5050764,-0.097332 0,0 0.2104464,0.044719 0.1552037,0.3104102 0,0 -0.063135,0.3288257 -0.4077439,0.1473139 0,0 -0.199926,-0.1709894 -0.2656912,-0.2314933 0,0 0.060508,-0.063133 0.013155,-0.1288988 z"
       id="path847" />
    <path
       style="fill:#f46d8d;stroke:#000000;stroke-width:0.01979167;stroke-linecap:butt;stroke-linejoin:miter;stroke-opacity:1;fill-opacity:1;stroke-miterlimit:4;stroke-dasharray:none"
       d="m 5.968846,3.1988174 c 0,0 -0.1894036,0.5787334 0.2919973,0.4919235 0,0 0.2157077,-0.068397 0.1446813,-0.3156739 0,0 -0.2183403,-0.1946648 -0.2656912,-0.2314933 0,0 -0.076284,0.099965 -0.1709874,0.055244 z"
       id="path849" />
    <path
       style="fill:#f46d8d;stroke:#000000;stroke-width:0.01979167;stroke-linecap:butt;stroke-linejoin:miter;stroke-opacity:1;fill-opacity:1;stroke-miterlimit:4;stroke-dasharray:none"
       d="m 5.968848,3.1988184 c 0,0 -0.052614,0.4550939 -0.2367566,0.4814 0,0 -0.2998909,0.052611 -0.3577642,-0.1499457 0,0 -0.00526,-0.186773 0.2051872,-0.26043 L 5.8820341,3.12779 c 0,0 0.018422,0.065769 0.086814,0.071028 z"
       id="path851" />
    <path
       style="fill:#f46d8d;stroke:#000000;stroke-width:0.01979167;stroke-linecap:butt;stroke-linejoin:miter;stroke-opacity:1;fill-opacity:1;stroke-miterlimit:4;stroke-dasharray:none"
       d="m 5.8794053,2.8884058 c 0,0 -0.5787334,-0.2499076 -0.6444985,0.1315304 0,0 -0.044726,0.3209308 0.3446076,0.2499065 L 5.8820341,3.12779 c 0,0 -0.045998,-0.1255926 0.048027,-0.1627593 z"
       id="path853" />
    <path
       style="fill:#00ff00;stroke:#008000;stroke-width:0.03125;stroke-linecap:butt;stroke-linejoin:miter;stroke-opacity:1;stroke-miterlimit:4;stroke-dasharray:none"
       d="m 6.8266391,2.0796138 c 0,0 -0.4501489,-0.2976192 -0.078125,-0.8072919 0,0 0.3794621,0.093006 0.3087776,0.554315 0,0 -0.2046087,0.011162 -0.2306526,0.2529769 z"
       id="path891" />
    <path
       style="fill:#f46d8d;stroke:#000000;stroke-width:0.01979167;stroke-linecap:butt;stroke-linejoin:miter;stroke-opacity:1;fill-opacity:1;stroke-miterlimit:4;stroke-dasharray:none"
       d="m 7.0312522,2.4888401 c 0,0 -0.5394346,-0.6175597 0.1227679,-0.6808038 0,0 0.5171109,0.037202 0.3050573,0.4017851 L 7.2061012,2.485119 c 0,0 -0.115323,-0.059522 -0.174849,0.00372 z"
       id="path875" />
    <path
       style="fill:#00ff00;stroke:#008000;stroke-width:0.03125;stroke-linecap:butt;stroke-linejoin:miter;stroke-opacity:1;stroke-miterlimit:4;stroke-dasharray:none"
       d="m 7.4867059,1.9492794 c 0,0 0.2314933,-0.3261952 0.6839577,-0.2972586 0,0 0.084177,0.4603555 -0.3025223,0.6655427 0,0 -0.086819,-0.1918088 -0.4090639,-0.1077421 0,0 0.090765,-0.1421641 0.027628,-0.260542 z"
       id="path885" />
    <path
       style="fill:#f46d8d;stroke:#000000;stroke-width:0.01979167;stroke-linecap:butt;stroke-linejoin:miter;stroke-opacity:1;fill-opacity:1;stroke-miterlimit:4;stroke-dasharray:none"
       d="m 7.2061036,2.4851198 c 0,0 0.2700798,-0.4542917 0.6120587,-0.2227982 0,0 0.3735435,0.4235267 -0.2209734,0.5024449 L 7.2894081,2.6674341 c 0,0 0.020164,-0.1594413 -0.083305,-0.1823143 z"
       id="path877" />
    <path
       style="fill:#f46d8d;stroke:#000000;stroke-width:0.01979167;stroke-linecap:butt;stroke-linejoin:miter;stroke-opacity:1;fill-opacity:1;stroke-miterlimit:4;stroke-dasharray:none"
       d="m 7.1499882,2.767398 c 0,0 -0.031567,0.5918864 0.2420158,0.568211 0,0 0.3761743,0.076286 0.4261558,-0.3235656 0,0 -0.1236384,-0.2841053 -0.5287517,-0.3446093 0,0 -0.092067,0.099965 -0.1394199,0.099964 z"
       id="path879" />
    <path
       style="fill:#f46d8d;stroke:#000000;stroke-width:0.01979167;stroke-linecap:butt;stroke-linejoin:miter;stroke-opacity:1;fill-opacity:1;stroke-miterlimit:4;stroke-dasharray:none"
       d="m 6.9474316,2.6569125 c 0,0 -0.3682849,0.1104855 -0.3682849,0.247277 0,0 0.2893645,-0.042091 0.2472748,0.3314554 0,0 0.199926,0.092071 0.3288257,-0.1920342 L 7.1499882,2.767398 c 0,0 -0.131528,0.023676 -0.2025566,-0.1104855 z"
       id="path881" />
    <path
       style="fill:#00ff00;stroke:#008000;stroke-width:0.02395833;stroke-linecap:butt;stroke-linejoin:miter;stroke-opacity:1;stroke-miterlimit:4;stroke-dasharray:none"
       d="m 6.8266412,2.0796144 c 0,0 -0.2306569,-0.208334 -0.2306569,-0.1264888 -0.00744,0.022321 -0.1748534,0.1674102 -0.2752998,0.1227673 0,0 0.1785714,0.055804 0.1674107,0.1636904 0,0 0.1934524,-0.1450893 0.4241072,0.1153274 0,0 -0.085559,-0.2752957 -0.085561,-0.2752963 z"
       id="path893" />
    <path
       style="fill:#f46d8d;stroke:#000000;stroke-width:0.01979167;stroke-linecap:butt;stroke-linejoin:miter;stroke-opacity:1;fill-opacity:1;stroke-miterlimit:4;stroke-dasharray:none"
       d="m 7.0312544,2.4888398 c 0,0 -0.3125024,-0.4110862 -0.5431571,-0.2492557 0,0 -0.1581121,0.068823 -0.1636925,0.3087787 0,0 0.094866,0.029762 0.1302083,0.1692711 l 0.2771577,0.018601 0.2156608,-0.079323 c 0,0 0.016863,-0.1606317 0.083823,-0.1680727 z"
       id="path883" />
    <path
       style="fill:#00ff00;stroke:#008000;stroke-width:0.03125;stroke-linecap:butt;stroke-linejoin:miter;stroke-opacity:1;stroke-miterlimit:4;stroke-dasharray:none"
       d="m 7.805062,3.0915188 c 0,0 0.5133931,0.2120537 0.6770835,0.1488096 0,0 0.1004438,-0.4278284 -0.5878003,-0.5915189 l -0.2971563,0.115957 c 0,0 0.2487982,0.1705032 0.2078731,0.3267523 z"
       id="path887" />
    <path
       style="fill:#00ff00;stroke:#008000;stroke-width:0.03125;stroke-linecap:butt;stroke-linejoin:miter;stroke-opacity:1;fill-opacity:1;stroke-miterlimit:4;stroke-dasharray:none"
       d="m 5.2976208,2.5223223 c 0,0 -0.450149,-0.1599704 -0.7663694,0.2827381 0,0 0.4650284,0.2455348 0.7105641,0.1897313 0,0 -0.037202,-0.2194941 0.3311012,-0.1897322 l 0.044643,-0.044643 c 0,0 -0.2678536,-0.02976 -0.3199387,-0.2380944 z"
       id="path889" />
    <path
       style="fill:#00ff00;stroke:#000000;stroke-width:0.0104167px;stroke-linecap:butt;stroke-linejoin:miter;stroke-opacity:1"
       d="M 6.4213099,2.8226407 6.3239779,2.941018 6.5791488,2.9041904 c 0,0 0.026406,-0.1123068 0.1526242,-0.1679546 L 6.4546131,2.7176339 c 0,0 -0.033301,0.1050077 -0.033303,0.1050068 z"
       id="path895" />
    <path
       style="fill:#a0b4cd;stroke:#000000;stroke-width:0.02770833;stroke-linecap:butt;stroke-linejoin:miter;stroke-opacity:1;fill-opacity:1;stroke-miterlimit:4;stroke-dasharray:none;opacity:1"
       d="M 6.763395,5.6622042 6.0193471,3.668156 c 0,0 0.4677242,0.14096 0.3861775,-0.293089 0,0 0.3053541,0.2167585 0.4208969,-0.1394221 0,0 0.06718,0.049325 0.2159892,-0.017639 l 0.1711309,-0.00744 c 0,0 0.093006,0.2790174 0.5133929,0.052083 0,0 -0.7924107,1.9308035 -0.7552083,2.3697915 z"
       id="path865" />
    <path
       style="fill:#a0b4cd;stroke:#000000;stroke-width:0.0375;stroke-linecap:butt;stroke-linejoin:miter;stroke-opacity:1;fill-opacity:1;stroke-miterlimit:4;stroke-dasharray:none;opacity:1"
       d="m 7.0982142,6.0081845 c 0.093006,0.1525298 0.3608631,1.5624999 0.3608631,1.5624999 -0.096726,0.033482 -0.8705335,0.022324 -0.8705335,0.022324 0.1153274,-0.1041667 0.2306547,-1.5513398 0.2306547,-1.5513398 0,0 0.1785692,0.00744 0.2790157,-0.033484 z"
       id="path867" />
    <ellipse
       style="opacity:1;fill:#accfcb;fill-opacity:1;stroke:none;stroke-width:0.0375;stroke-miterlimit:4;stroke-dasharray:none"
       id="path1039"
       cx="7.0089312"
       cy="3.4523823"
       rx="0.14880957"
       ry="0.13392861" />
    <ellipse
       style="opacity:1;fill:#accfcb;fill-opacity:1;stroke:none;stroke-width:0.0375;stroke-miterlimit:4;stroke-dasharray:none"
       id="path1039-2"
       cx="6.6592264"
       cy="3.6755953"
       rx="0.14880957"
       ry="0.13392861" />
    <ellipse
       style="opacity:1;fill:#accfcb;fill-opacity:1;stroke:none;stroke-width:0.0375;stroke-miterlimit:4;stroke-dasharray:none"
       id="path1039-26"
       cx="7.2767859"
       cy="3.6607144"
       rx="0.14880957"
       ry="0.13392861" />
    <ellipse
       style="opacity:1;fill:#accfcb;fill-opacity:1;stroke:none;stroke-width:0.0375;stroke-miterlimit:4;stroke-dasharray:none"
       id="path1039-9"
       cx="7.0982141"
       cy="4.0625005"
       rx="0.19345242"
       ry="0.14880957" />
    <ellipse
       style="opacity:1;fill:#accfcb;fill-opacity:1;stroke:none;stroke-width:0.0375;stroke-miterlimit:4;stroke-dasharray:none"
       id="path1039-1"
       cx="6.8303571"
       cy="4.5535712"
       rx="0.20833337"
       ry="0.171131" />
    <ellipse
       style="opacity:1;fill:#accfcb;fill-opacity:1;stroke:none;stroke-width:0.0375;stroke-miterlimit:4;stroke-dasharray:none"
       id="path1039-5-4"
       cx="6.8154759"
       cy="5.1636906"
       rx="0.14880957"
       ry="0.13392861" />
    <ellipse
       style="opacity:1;fill:#accfcb;fill-opacity:1;stroke:none;stroke-width:0.0375;stroke-miterlimit:4;stroke-dasharray:none"
       id="path1039-5"
       cx="6.4062495"
       cy="4.2261906"
       rx="0.14880957"
       ry="0.13392861" />
    <ellipse
       style="opacity:1;fill:#accfcb;fill-opacity:1;stroke:none;stroke-width:0.0375;stroke-miterlimit:4;stroke-dasharray:none"
       id="path1142"
       cx="7.124258"
       cy="7.228425"
       rx="0.18973219"
       ry="0.17485125" />
    <circle
       style="opacity:1;fill:#accfcb;fill-opacity:1;stroke:none;stroke-width:0.0375;stroke-miterlimit:4;stroke-dasharray:none"
       id="path1144"
       cx="7.0200915"
       cy="6.3653293"
       r="0.093005985" />
    <ellipse
       style="opacity:1;fill:#accfcb;fill-opacity:1;stroke:none;stroke-width:0.0375;stroke-miterlimit:4;stroke-dasharray:none"
       id="path1146"
       cx="6.9828887"
       cy="6.8712821"
       rx="0.10788693"
       ry="0.10044646" />
    <path
       style="fill:#f39eb5;stroke:#000000;stroke-width:0.03541667;stroke-linecap:butt;stroke-linejoin:miter;stroke-opacity:1;fill-opacity:1;stroke-miterlimit:4;stroke-dasharray:none;opacity:1"
       d="m 6.7633972,5.662206 c 0,0 -0.7130025,-0.2168507 -1.1233771,-0.037969 0,0 0.0947,0.7313061 0.2788424,0.8207466 0,0 0.70634,-0.1858071 0.900336,-0.403315 0,0 0.1430646,0.040054 0.2790157,-0.033484 0,0 0.4831911,0.2263506 0.8146474,0.2526567 0,0 0.2893666,-0.2683218 0.2472769,-0.8102266 0,0 -0.419654,-0.2308655 -1.1884123,0.1818257 z"
       id="path1150" />
    <path
       style="fill:#f39eb5;stroke:#000000;stroke-width:0.02291667;stroke-linecap:butt;stroke-linejoin:miter;stroke-opacity:1;fill-opacity:1;stroke-miterlimit:4;stroke-dasharray:none;opacity:1"
       d="m 6.9717262,5.6324404 c 0.107887,0.044643 0.126488,0.3757438 0.126488,0.3757438 C 7.0461308,6.0751512 6.737353,6.0825912 6.737353,6.0825912 6.629466,5.9672638 6.68527,5.6994065 6.68527,5.6994065 c 0,0 0.2864562,-0.066966 0.2864562,-0.066966 z"
       id="path1152" />
    <circle
       style="opacity:1;fill:#ffffff;fill-opacity:1;stroke:none;stroke-width:0.0239583;stroke-miterlimit:4;stroke-dasharray:none"
       id="path1258"
       cx="7.3958354"
       cy="5.7217283"
       r="0.026041675" />
    <circle
       style="opacity:1;fill:#ffffff;fill-opacity:1;stroke:none;stroke-width:0.0239583;stroke-miterlimit:4;stroke-dasharray:none"
       id="path1258-9"
       cx="7.5632443"
       cy="5.6063986"
       r="0.026041677" />
    <circle
       style="opacity:1;fill:#ffffff;fill-opacity:1;stroke:none;stroke-width:0.0239583;stroke-miterlimit:4;stroke-dasharray:none"
       id="path1258-3"
       cx="7.8087797"
       cy="5.7663693"
       r="0.026041677" />
    <circle
       style="opacity:1;fill:#ffffff;fill-opacity:1;stroke:none;stroke-width:0.0239583;stroke-miterlimit:4;stroke-dasharray:none"
       id="path1258-0"
       cx="7.8645835"
       cy="5.9263396"
       r="0.026041677" />
    <circle
       style="opacity:1;fill:#ffffff;fill-opacity:1;stroke:none;stroke-width:0.0239583;stroke-miterlimit:4;stroke-dasharray:none"
       id="path1258-7"
       cx="7.9761906"
       cy="5.4985118"
       r="0.026041677" />
    <circle
       style="opacity:1;fill:#ffffff;fill-opacity:1;stroke:none;stroke-width:0.0239583;stroke-miterlimit:4;stroke-dasharray:none"
       id="path1258-4"
       cx="8.0282736"
       cy="5.598958"
       r="0.026041677" />
    <circle
       style="opacity:1;fill:#ffffff;fill-opacity:1;stroke:none;stroke-width:0.0239583;stroke-miterlimit:4;stroke-dasharray:none"
       id="path1258-1"
       cx="7.4218745"
       cy="5.8816962"
       r="0.026041677" />
    <circle
       style="opacity:1;fill:#ffffff;fill-opacity:1;stroke:none;stroke-width:0.0239583;stroke-miterlimit:4;stroke-dasharray:none"
       id="path1258-8"
       cx="6.5773811"
       cy="5.7366071"
       r="0.026041677" />
    <circle
       style="opacity:1;fill:#ffffff;fill-opacity:1;stroke:none;stroke-width:0.0239583;stroke-miterlimit:4;stroke-dasharray:none"
       id="path1258-07"
       cx="6.3764882"
       cy="5.8407736"
       r="0.026041677" />
    <circle
       style="opacity:1;fill:#ffffff;fill-opacity:1;stroke:none;stroke-width:0.0239583;stroke-miterlimit:4;stroke-dasharray:none"
       id="path1258-15"
       cx="6.4471726"
       cy="5.9375"
       r="0.026041677" />
    <circle
       style="opacity:1;fill:#ffffff;fill-opacity:1;stroke:none;stroke-width:0.0239583;stroke-miterlimit:4;stroke-dasharray:none"
       id="path1258-31"
       cx="6.1532741"
       cy="5.6808033"
       r="0.026041677" />
    <circle
       style="opacity:1;fill:#ffffff;fill-opacity:1;stroke:none;stroke-width:0.0239583;stroke-miterlimit:4;stroke-dasharray:none"
       id="path1258-80"
       cx="5.8147321"
       cy="5.6994047"
       r="0.026041677" />
    <circle
       style="opacity:1;fill:#ffffff;fill-opacity:1;stroke:none;stroke-width:0.0239583;stroke-miterlimit:4;stroke-dasharray:none"
       id="path1258-2"
       cx="5.9895835"
       cy="5.8816962"
       r="0.026041677" />
    <circle
       style="opacity:1;fill:#ffffff;fill-opacity:1;stroke:none;stroke-width:0.0239583;stroke-miterlimit:4;stroke-dasharray:none"
       id="path1258-16"
       cx="6.2313986"
       cy="6.09375"
       r="0.026041677" />
    <circle
       style="opacity:1;fill:#ffffff;fill-opacity:1;stroke:none;stroke-width:0.0239583;stroke-miterlimit:4;stroke-dasharray:none"
       id="path1258-17"
       cx="5.9821429"
       cy="6.2016368"
       r="0.026041677" />
    <circle
       style="opacity:1;fill:#ffffff;fill-opacity:1;stroke:none;stroke-width:0.0239583;stroke-miterlimit:4;stroke-dasharray:none"
       id="path1258-6"
       cx="6.7261906"
       cy="5.78125"
       r="0.026041677" />
    <circle
       style="opacity:1;fill:#ffffff;fill-opacity:1;stroke:none;stroke-width:0.0239583;stroke-miterlimit:4;stroke-dasharray:none"
       id="path1258-98"
       cx="6.953125"
       cy="5.9784226"
       r="0.026041677" />
    <circle
       style="opacity:1;fill:#ffffff;fill-opacity:1;stroke:none;stroke-width:0.0239583;stroke-miterlimit:4;stroke-dasharray:none"
       id="path1258-15-0"
       cx="6.5513391"
       cy="6.4360118"
       r="0.026041677" />
    <circle
       style="opacity:1;fill:#ffffff;fill-opacity:1;stroke:none;stroke-width:0.0239583;stroke-miterlimit:4;stroke-dasharray:none"
       id="path1258-15-5"
       cx="6.6480656"
       cy="6.2313986"
       r="0.026041677" />
    <circle
       style="opacity:1;fill:#ffffff;fill-opacity:1;stroke:none;stroke-width:0.0239583;stroke-miterlimit:4;stroke-dasharray:none"
       id="path1258-15-9"
       cx="6.3392854"
       cy="6.6815476"
       r="0.026041677" />
    <circle
       style="opacity:1;fill:#ffffff;fill-opacity:1;stroke:none;stroke-width:0.0239583;stroke-miterlimit:4;stroke-dasharray:none"
       id="path1258-15-94"
       cx="7.4330354"
       cy="6.25"
       r="0.026041677" />
    <circle
       style="opacity:1;fill:#ffffff;fill-opacity:1;stroke:none;stroke-width:0.0239583;stroke-miterlimit:4;stroke-dasharray:none"
       id="path1258-15-1"
       cx="7.6376486"
       cy="6.3727679"
       r="0.026041677" />
    <circle
       style="opacity:1;fill:#ffffff;fill-opacity:1;stroke:none;stroke-width:0.0239583;stroke-miterlimit:4;stroke-dasharray:none"
       id="path1258-15-04"
       cx="7.6748509"
       cy="6.5327382"
       r="0.026041677" />
  </g>
</svg>
