<?xml version="1.0" encoding="UTF-8" standalone="no"?>
<svg
   xmlns:dc="http://purl.org/dc/elements/1.1/"
   xmlns:cc="http://creativecommons.org/ns#"
   xmlns:rdf="http://www.w3.org/1999/02/22-rdf-syntax-ns#"
   xmlns:svg="http://www.w3.org/2000/svg"
   xmlns="http://www.w3.org/2000/svg"
   xmlns:sodipodi="http://sodipodi.sourceforge.net/DTD/sodipodi-0.dtd"
   xmlns:inkscape="http://www.inkscape.org/namespaces/inkscape"
   width="11.0in"
   height="1.1in"
   viewBox="0 0 11.0 9.5"
   transform ="translate(-480,-10)"
   version="1.1"
   id="SVGRoot"
   sodipodi:docname="butterfly.svg"
   inkscape:version="1.0.1 (3bc2e813f5, 2020-09-07)">
  <defs
     id="defs1402" />
  <sodipodi:namedview
     id="base"
     pagecolor="#ffffff"
     bordercolor="#666666"
     borderopacity="1.0"
     inkscape:pageopacity="0.0"
     inkscape:pageshadow="2"
     inkscape:zoom="0.24748737"
     inkscape:cx="69.327008"
     inkscape:cy="179.06602"
     inkscape:document-units="in"
     inkscape:current-layer="layer1"
     inkscape:document-rotation="0"
     showgrid="false"
     inkscape:window-width="1267"
     inkscape:window-height="728"
     inkscape:window-x="83"
     inkscape:window-y="0"
     inkscape:window-maximized="0" />
  <metadata
     id="metadata1405">
    <rdf:RDF>
      <cc:Work
         rdf:about="">
        <dc:format>image/svg+xml</dc:format>
        <dc:type
           rdf:resource="http://purl.org/dc/dcmitype/StillImage" />
        <dc:title></dc:title>
      </cc:Work>
    </rdf:RDF>
  </metadata>
  <g
     inkscape:label="Layer 1"
     inkscape:groupmode="layer"
     id="layer1">
    <path
       style="fill:#ffff00;fill-opacity:1;stroke:none;stroke-width:0.0104167px;stroke-linecap:butt;stroke-linejoin:miter;stroke-opacity:1"
       d="m 5.3577642,3.8048342 c 0,0 -0.3869049,-2.3660722 1.0267861,-2.7232151 0,0 1.7708313,0.2380949 0.8333313,3.3035711 0,0 1.3392857,0.3720238 1.1607143,1.2053571 0,0 -0.8482143,0.7142858 -2.1130952,-0.2827381 0,0 -0.3571396,-0.9821405 -0.9077365,-1.502975 z"
       id="path1990" />
    <path
       style="fill:#782121;stroke:none;stroke-width:0.0104167px;stroke-linecap:butt;stroke-linejoin:miter;stroke-opacity:1"
       d="m 5.1041683,3.5937511 c 0,0 -0.1785715,0.3125002 0.342262,1.1979171 0,0 0.4166649,0.8928556 0.8928554,1.0937485 0,0 0.1785714,-0.4315476 -0.5952381,-1.6666667 C 5.7291667,4.1815476 5.4241104,3.7276808 5.1041683,3.5937511 Z"
       id="path1994" />
    <path
       style="fill:#ffff00;stroke:none;stroke-width:0.0104167px;stroke-linecap:butt;stroke-linejoin:miter;stroke-opacity:1"
       d="m 5.0718092,3.8617302 c 0,0 -1.8414245,-1.7046329 -2.8094876,-0.7997043 0,0 -0.8102273,0.8312704 1.1995554,2.2097077 0,0 0.6523901,0.4208969 1.1679888,0.3788072 0,0 -0.599778,1.220601 0.2420157,1.5994082 0,0 1.0522423,0.031567 1.0522423,-1.7046324 0,0 -0.8846737,-1.4156073 -0.8523146,-1.6835864 z"
       id="path2013" />
    <path
       style="fill:#ac9393;stroke:none;stroke-width:0.0104167px;stroke-linecap:butt;stroke-linejoin:miter;stroke-opacity:1"
       d="m 5.0223231,3.4077392 c 0,-0.1116072 0,-0.5580359 -0.052083,-0.9002979 0,0 -0.1041687,-0.8705365 0.2529742,-1.0416675 l 0.066964,0.052083 c 0,0 -0.3869048,0.4166667 -0.1934524,1.1532739 0,0 0.0217,0.8603446 0.1413693,0.9970241 L 5.1041683,3.5937511 5.0718092,3.8617302 c 0,0 -0.4512735,-0.7888135 -0.6521663,-0.9376231 0,0 -0.639881,-0.7291666 -1.0639881,-0.7291666 l 0.037202,-0.059524 c 0,0 0.6919643,0.1488095 0.9970239,0.5877976 0,0 0.5431584,0.6919667 0.6324424,0.6845251 z"
       id="path2015" />
    <ellipse
       style="fill:#c8b7b7;fill-opacity:1;stroke:none;stroke-width:0.015625"
       id="path2017"
       cx="3.3854179"
       cy="2.1577384"
       rx="0.081845269"
       ry="0.089285739" />
    <ellipse
       style="fill:#c8b7b7;fill-opacity:1;stroke:none;stroke-width:0.015625"
       id="path2017-7"
       cx="5.2380953"
       cy="1.4732144"
       rx="0.081845269"
       ry="0.089285739" />
  </g>
</svg>
