<?xml version="1.0" encoding="UTF-8" standalone="no"?>
<svg
   xmlns:dc="http://purl.org/dc/elements/1.1/"
   xmlns:cc="http://creativecommons.org/ns#"
   xmlns:rdf="http://www.w3.org/1999/02/22-rdf-syntax-ns#"
   xmlns:svg="http://www.w3.org/2000/svg"
   xmlns="http://www.w3.org/2000/svg"
   xmlns:sodipodi="http://sodipodi.sourceforge.net/DTD/sodipodi-0.dtd"
   xmlns:inkscape="http://www.inkscape.org/namespaces/inkscape"
   width="11.0in"
   height="1.5in"
   viewBox="0 0 11.0 9.5"
   version="1.1"
   transform ="translate(-470,-10)"
   id="SVGRoot"
   sodipodi:docname="butterfly2.svg"
   inkscape:version="1.0.1 (3bc2e813f5, 2020-09-07)">
  <defs
     id="defs1402" />
  <sodipodi:namedview
     id="base"
     pagecolor="#ffffff"
     bordercolor="#666666"
     borderopacity="1.0"
     inkscape:pageopacity="0.0"
     inkscape:pageshadow="2"
     inkscape:zoom="0.7"
     inkscape:cx="329.36237"
     inkscape:cy="296.17128"
     inkscape:document-units="in"
     inkscape:current-layer="layer1"
     inkscape:document-rotation="0"
     showgrid="false"
     inkscape:window-width="1267"
     inkscape:window-height="728"
     inkscape:window-x="83"
     inkscape:window-y="0"
     inkscape:window-maximized="0" />
  <metadata
     id="metadata1405">
    <rdf:RDF>
      <cc:Work
         rdf:about="">
        <dc:format>image/svg+xml</dc:format>
        <dc:type
           rdf:resource="http://purl.org/dc/dcmitype/StillImage" />
        <dc:title></dc:title>
      </cc:Work>
    </rdf:RDF>
  </metadata>
  <g
     inkscape:label="Layer 1"
     inkscape:groupmode="layer"
     id="layer1">
    <path
       style="fill:#ff5555;fill-opacity:1;stroke:none;stroke-width:0.0104167px;stroke-linecap:butt;stroke-linejoin:miter;stroke-opacity:1"
       d="m 3.2887317,2.0748299 c 0,0 -0.141112,-0.8629536 0.3744893,-0.9932108 0,0 0.6458574,0.086838 0.3039325,1.2048782 0,0 0.4884642,0.1356845 0.4233356,0.4396177 0,0 -0.3093607,0.2605142 -0.7706879,-0.1031202 0,0 -0.1302559,-0.3582062 -0.3310695,-0.5481649 z"
       id="path1990" />
    <path
       style="fill:#782121;stroke:none;stroke-width:0.0104167px;stroke-linecap:butt;stroke-linejoin:miter;stroke-opacity:1"
       d="m 3.1962402,1.9978437 c 0,0 -0.065128,0.113975 0.1248297,0.4369042 0,0 0.151966,0.3256422 0.3256422,0.3989119 0,0 0.065128,-0.1573941 -0.2170952,-0.6078666 C 3.4241895,2.2122247 3.3129295,2.0466905 3.1962402,1.9978437 Z"
       id="path1994" />
    <path
       style="fill:#ff5555;stroke:none;stroke-width:0.0104167px;stroke-linecap:butt;stroke-linejoin:miter;stroke-opacity:1"
       d="m 3.1844381,2.0955809 c 0,0 -0.6716041,-0.6217135 -1.024676,-0.291668 0,0 -0.295506,0.3031808 0.4375018,0.8059243 0,0 0.2379396,0.1535095 0.4259887,0.1381586 0,0 -0.2187509,0.4451775 0.088268,0.583336 0,0 0.3837738,0.011513 0.3837738,-0.6217133 0,0 -0.3226581,-0.5163002 -0.3108563,-0.6140376 z"
       id="path2013" />
    <path
       style="fill:#ac9393;stroke:none;stroke-width:0.0104167px;stroke-linecap:butt;stroke-linejoin:miter;stroke-opacity:1"
       d="m 3.1663896,1.9300014 c 0,-0.040705 0,-0.2035268 -0.018995,-0.3283566 0,0 -0.037992,-0.3175019 0.092265,-0.3799168 l 0.024423,0.018995 c 0,0 -0.1411119,0.1519667 -0.070556,0.420622 0,0 0.00792,0.3137848 0.05156,0.3636345 l -0.048845,-0.027137 -0.011802,0.097737 c 0,0 -0.1645884,-0.287696 -0.237858,-0.3419698 0,0 -0.2333774,-0.2659416 -0.3880577,-0.2659416 l 0.013568,-0.02171 c 0,0 0.2523731,0.054273 0.3636344,0.2143815 0,0 0.1981007,0.252374 0.2306643,0.2496599 z"
       id="path2015" />
    <ellipse
       style="fill:#c8b7b7;fill-opacity:1;stroke:none;stroke-width:0.015625"
       id="path2017"
       cx="2.5693777"
       cy="1.4741012"
       rx="0.029850598"
       ry="0.032564286" />
    <ellipse
       style="fill:#c8b7b7;fill-opacity:1;stroke:none;stroke-width:0.015625"
       id="path2017-7"
       cx="3.245086"
       cy="1.2244418"
       rx="0.029850598"
       ry="0.032564286" />
	   
  </g>
</svg>
