<?xml version="1.0" encoding="UTF-8" standalone="no"?>
<svg
   xmlns:dc="http://purl.org/dc/elements/1.1/"
   xmlns:cc="http://creativecommons.org/ns#"
   xmlns:rdf="http://www.w3.org/1999/02/22-rdf-syntax-ns#"
   xmlns:svg="http://www.w3.org/2000/svg"
   xmlns="http://www.w3.org/2000/svg"
   xmlns:sodipodi="http://sodipodi.sourceforge.net/DTD/sodipodi-0.dtd"
   xmlns:inkscape="http://www.inkscape.org/namespaces/inkscape"
   width="150"
   height="150"
   viewBox="0 0 150 150"
   version="1.1"
   id="SVGRoot"
   sodipodi:docname="butterfly3.svg"
   inkscape:version="1.0.1 (3bc2e813f5, 2020-09-07)">
  <defs
     id="defs833" />
  <sodipodi:namedview
     id="base"
     pagecolor="#ffffff"
     bordercolor="#666666"
     borderopacity="1.0"
     inkscape:pageopacity="0.0"
     inkscape:pageshadow="2"
     inkscape:zoom="0.49497475"
     inkscape:cx="626.96045"
     inkscape:cy="285.69984"
     inkscape:document-units="in"
     inkscape:current-layer="layer1"
     inkscape:document-rotation="0"
     showgrid="false"
     inkscape:window-width="1366"
     inkscape:window-height="705"
     inkscape:window-x="-8"
     inkscape:window-y="-8"
     inkscape:window-maximized="1"
     units="px" />
  <metadata
     id="metadata836">
    <rdf:RDF>
      <cc:Work
         rdf:about="">
        <dc:format>image/svg+xml</dc:format>
        <dc:type
           rdf:resource="http://purl.org/dc/dcmitype/StillImage" />
        <dc:title></dc:title>
      </cc:Work>
    </rdf:RDF>
  </metadata>
  <g
     inkscape:label="Layer 1"
     inkscape:groupmode="layer"
     id="layer1">
    <g
       id="g856"
       transform="matrix(30.344688,0,0,29.561114,-94.027898,-48.653051)"
       style="stroke-width:0.0333886">
      <path
         style="opacity:1;fill:#ff0000;fill-opacity:1;stroke:#d40000;stroke-width:0.000347799px;stroke-linecap:butt;stroke-linejoin:miter;stroke-opacity:1"
         d="m 4.9627992,3.6607154 c 0,0 -0.014881,-0.3869049 0.2232143,-0.6770835 0,0 0.5580341,-1.0565486 1.1681532,-0.8630962 0,0 0.3422619,-0.037202 0.4166666,0.5357143 0,0 0.1190477,0.3869048 0.1041667,0.7738095 0,0 0.059524,0.2901786 0.3869048,0.8333334 0,0 0.044643,0.4613095 -1.2425596,0.5729166 0,0 -0.7366071,0 -0.9077381,-0.1116071 0,0 0.3645865,-0.4687478 -0.1488079,-1.063987 z"
         id="path1423" />
      <path
         style="opacity:1;fill:#ff8080;stroke:#d40000;stroke-width:0.000347799px;stroke-linecap:butt;stroke-linejoin:miter;stroke-opacity:1"
         d="m 5.2306565,4.322918 c 0,0 1.4880956,0.2232144 1.1383931,-0.6398811 0,0 -0.2678591,-0.3199417 -0.2604186,-0.6101202 0,0 -0.2306548,-0.3720238 -0.7366072,0.2232143 0,0 -0.2232143,0.4315476 -0.2901786,0.4761904 0,0 0.1934559,0.379467 0.1488113,0.5505966 z"
         id="path1485" />
      <ellipse
         style="opacity:1;fill:#ff8080;fill-opacity:1;stroke:#d40000;stroke-width:0.000521697;stroke-opacity:1"
         id="path1487"
         cx="6.1830378"
         cy="2.6227686"
         rx="0.25297627"
         ry="0.22693461" />
      <ellipse
         style="opacity:1;fill:#ff8080;fill-opacity:1;stroke:#d40000;stroke-width:0.000521697;stroke-opacity:1"
         id="path1487-1"
         cx="6.5922618"
         cy="3.0877976"
         rx="0.11160722"
         ry="0.10788699" />
      <path
         style="opacity:1;fill:#ff0000;fill-opacity:1;stroke:#d40000;stroke-width:0.000347799px;stroke-linecap:butt;stroke-linejoin:miter;stroke-opacity:1"
         d="m 6.0193471,4.836311 c 0,0 0.2888471,0.093445 0.4992956,0.403857 0,0 0.1367894,0.4682461 -0.2525402,0.8523145 0,0 -0.3314563,0.4208969 -0.8838835,0.015784 0,0 -0.3367175,-0.2367548 -0.3419787,-0.4419421 0,0 -0.073657,-0.2157096 -0.094702,-0.2735829 0,0 0.1111665,-0.5574189 0.1660688,-0.6680391 0,0 0.5820664,0.1286502 0.90774,0.1116086 z"
         id="path1504" />
      <path
         style="fill:#ff8080;fill-opacity:0.866667;stroke:#d40000;stroke-width:0.000347799px;stroke-linecap:butt;stroke-linejoin:miter;stroke-opacity:1"
         d="m 5.5190123,4.8087485 c 0,0 0.4735091,0.2788444 0.5050764,0.7470922 0,0 -0.1841447,0.589254 -1.0785504,-0.1630992 0,0 0.1111665,-0.5626801 0.1660688,-0.6680391 0,0 0.1653913,0.084048 0.4074052,0.084046 z"
         id="path1506" />
      <ellipse
         style="opacity:1;fill:#ff8080;fill-opacity:1;stroke:#d40000;stroke-width:0.000521697;stroke-opacity:1"
         id="path1487-8"
         cx="5.8452058"
         cy="2.1834028"
         rx="0.25297627"
         ry="0.22693461" />
      <path
         style="fill:#ff0000;stroke:#d40000;stroke-width:0.000347799px;stroke-linecap:butt;stroke-linejoin:miter;stroke-opacity:1"
         d="m 4.9628008,3.6607166 c 0,0 -0.074406,-0.063245 -0.13021,-0.085567 0,0 0.00772,-1.0129398 0.2497392,-1.2128658 0,0 0.6053848,-0.8306097 1.146944,-0.2683218 0,0 -0.9493219,0.1083127 -1.2664732,1.5667546 z"
         id="path1508" />
      <ellipse
         style="opacity:1;fill:#ff8080;fill-opacity:1;stroke:#d40000;stroke-width:0.000521697;stroke-opacity:1"
         id="path1487-18"
         cx="5.6610632"
         cy="2.0623946"
         rx="0.14249083"
         ry="0.13749403" />
      <path
         style="fill:#f2c17f;fill-opacity:0.866667;stroke:#dfa450;stroke-width:0.000347799px;stroke-linecap:butt;stroke-linejoin:miter;stroke-opacity:1"
         d="m 4.7613977,4.7087855 c 0,0 -0.2367547,0.5103376 -0.3367176,0.568211 0,0 -0.2998905,0.4208952 0.089439,0.4577237 0,0 0.3472396,0.047351 0.4314192,-0.3419787 L 5.1116071,4.7247024 c 0,0 -0.2818121,0.1103537 -0.3502094,-0.015917 z"
         id="path1540" />
      <path
         style="fill:#f2c17f;fill-opacity:0.866667;stroke:#dfa456;stroke-width:0.000347799px;stroke-linecap:butt;stroke-linejoin:miter;stroke-opacity:1"
         d="m 4.7613992,4.708787 c 0,0 0.026985,0.1528432 0.3502095,0.015917 0,0 0.2022146,-0.2789806 0.075946,-0.7209223 0,0 -0.1525756,-0.4472029 -0.4840319,-0.4577254 0,0 0.3682848,-0.3261951 -0.1788812,-0.599778 0,0 -0.4945538,-0.1630976 -0.5155987,0.4208969 0,0 0.2104485,0.4261581 0.547166,0.2735829 0,0 -0.178875,0.8417998 0.2051903,1.0680289 z"
         id="path1552" />
      <path
         style="fill:none;stroke:#a05a2c;stroke-width:0.000347799px;stroke-linecap:butt;stroke-linejoin:miter;stroke-opacity:1"
         d="m 4.3675609,2.9203878 c 0,0 -0.3980656,-0.8668157 0.2938989,-0.8482145 0,0 0.2306533,0.026041 0.2455343,0.260416 0,0 -0.063244,0.3534226 -0.3869048,0.070685 0,0 -0.07861,-0.2715105 0.2418155,-0.1562505 0,0 0.089286,0.1078869 -0.055804,0.1004464"
         id="path1554" />
      <path
         style="fill:none;stroke:#a05a2c;stroke-width:0.000347799px;stroke-linecap:butt;stroke-linejoin:miter;stroke-opacity:1"
         d="m 4.1815489,2.9836319 c 0,0 -0.7552085,-0.2566965 -0.6212799,-0.792411 0,0 0.2157727,-0.4575899 0.6398798,-0.1636911 0,0 0.2269345,0.085565 0.022321,0.3311012 0,0 -0.16369,0.1376488 -0.3571424,-0.052083 0,0 -0.093006,-0.3236611 0.2455357,-0.1413694 0,0 -0.037202,0.074405 -0.1227679,0.022321"
         id="path1556" />
    </g>
  </g>
</svg>
