<?xml version="1.0" encoding="UTF-8" standalone="no"?>
<svg
   xmlns:dc="http://purl.org/dc/elements/1.1/"
   xmlns:cc="http://creativecommons.org/ns#"
   xmlns:rdf="http://www.w3.org/1999/02/22-rdf-syntax-ns#"
   xmlns:svg="http://www.w3.org/2000/svg"
   xmlns="http://www.w3.org/2000/svg"
   xmlns:sodipodi="http://sodipodi.sourceforge.net/DTD/sodipodi-0.dtd"
   xmlns:inkscape="http://www.inkscape.org/namespaces/inkscape"
   width="100"
   height="100"
   viewBox="0 0 100 100"
   version="1.1"
   id="SVGRoot"
   sodipodi:docname="design4.svg"
   inkscape:version="1.0.1 (3bc2e813f5, 2020-09-07)">
  <defs
     id="defs919" />
  <sodipodi:namedview
     id="base"
     pagecolor="#ffffff"
     bordercolor="#666666"
     borderopacity="1.0"
     inkscape:pageopacity="0.0"
     inkscape:pageshadow="2"
     inkscape:zoom="1.979899"
     inkscape:cx="137.13269"
     inkscape:cy="91.648166"
     inkscape:document-units="in"
     inkscape:current-layer="layer1"
     inkscape:document-rotation="0"
     showgrid="false"
     inkscape:window-width="1267"
     inkscape:window-height="728"
     inkscape:window-x="83"
     inkscape:window-y="0"
     inkscape:window-maximized="0"
     units="px" />
  <metadata
     id="metadata922">
    <rdf:RDF>
      <cc:Work
         rdf:about="">
        <dc:format>image/svg+xml</dc:format>
        <dc:type
           rdf:resource="http://purl.org/dc/dcmitype/StillImage" />
        <dc:title></dc:title>
      </cc:Work>
    </rdf:RDF>
  </metadata>
  <g
     inkscape:label="Layer 1"
     inkscape:groupmode="layer"
     id="layer1">
    <g
       id="g888"
       transform="matrix(47.046241,0,0,39.880001,-128.6188,-141.75751)"
       style="stroke-width:0.0230866">
      <ellipse
         style="opacity:1;fill:#f6d470;fill-opacity:1;stroke:none;stroke-opacity:1"
         id="path1796"
         cx="-4.3296614"
         cy="4.9967141"
         rx="0.3043415"
         ry="0.3058503"
         transform="scale(-1,1)" />
      <ellipse
         style="opacity:1;fill:#000000;fill-opacity:1;stroke:none;stroke-opacity:1"
         id="path1800"
         cx="-4.3894858"
         cy="4.9117966"
         rx="0.012181245"
         ry="0.015763035"
         transform="scale(-1,1)" />
      <ellipse
         style="opacity:1;fill:#000000;fill-opacity:1;stroke:none;stroke-opacity:1"
         id="path1800-0"
         cx="-4.326261"
         cy="4.9149485"
         rx="0.012181245"
         ry="0.015763035"
         transform="scale(-1,1)" />
      <path
         style="fill:none;stroke:#000000;stroke-width:0.0230866;stroke-linecap:butt;stroke-linejoin:miter;stroke-opacity:1"
         d="m 4.429742,5.0011726 c 0,0 -0.061525,0.087387 -0.1402754,-0.00178"
         id="path1817" />
      <ellipse
         style="opacity:1;fill:#ff8080;fill-opacity:1;stroke:none;stroke-opacity:1"
         id="path1821"
         cx="-4.4375358"
         cy="4.981555"
         rx="0.020098023"
         ry="0.020508913"
         transform="scale(-1,1)" />
      <ellipse
         style="opacity:1;fill:#ff8080;fill-opacity:1;stroke:none;stroke-opacity:1"
         id="path1821-4"
         cx="-4.2796221"
         cy="4.9877968"
         rx="0.020098023"
         ry="0.020508913"
         transform="scale(-1,1)" />
      <path
         style="fill:#eec44e;fill-opacity:1;stroke:none;stroke-width:0.0230866;stroke-linecap:butt;stroke-linejoin:miter;stroke-opacity:1"
         d="m 4.0703546,4.8433752 c 0,0 -0.2830689,-0.034048 -0.3178725,0.2080721 0,0 0.054526,0.2622961 0.3956011,0.1866336 0,0 -0.143855,-0.1223217 -0.1171721,-0.2559916 0,0 0.0058,-0.1097088 0.039443,-0.1387141 z"
         id="path1838" />
      <path
         style="opacity:1;fill:#b5f4f4;fill-opacity:1;stroke:none;stroke-width:0.0230866;stroke-linecap:butt;stroke-linejoin:miter;stroke-opacity:1"
         d="m 4.0703546,4.8433762 c 0,0 -0.067182,8.579e-4 -0.067182,8.579e-4 C 3.9359061,4.7907332 3.8350051,4.45724 3.8350051,4.45724 3.7972704,4.2271838 3.8809429,4.2378845 3.8809429,4.2378845 c 0.1607841,-0.019617 0.219848,0.4280121 0.2296918,0.4440624 0,0 0.024208,-0.338251 0.093814,-0.4492227 0,0 0.073088,-0.1929395 0.2471051,-0.1513255 0,0 0.2018604,0.068096 0.084689,0.3392204 0,0 -0.061486,0.10845 -0.1229724,0.160153 0,0 -0.09049,0.099623 -0.1090513,0.1122336 0,0 -0.1486948,-0.00317 -0.2338645,0.1503705 z"
         id="path1840" />
      <ellipse
         style="opacity:0.612903;fill:none;fill-opacity:1;stroke:#009cb9;stroke-opacity:1"
         id="path1844"
         cx="-4.3546829"
         cy="4.3216276"
         rx="0.017981835"
         ry="0.01954616"
         transform="scale(-1,1)" />
      <ellipse
         style="opacity:0.612903;fill:none;fill-opacity:1;stroke:#009cb9;stroke-opacity:1"
         id="path1844-8"
         cx="-4.055953"
         cy="4.8128037"
         rx="0.017981835"
         ry="0.01954616"
         transform="scale(-1,1)" />
      <ellipse
         style="opacity:0.612903;fill:none;fill-opacity:1;stroke:#009cb9;stroke-opacity:1"
         id="path1844-3"
         cx="-3.9109385"
         cy="4.5568123"
         rx="0.017981835"
         ry="0.01954616"
         transform="scale(-1,1)" />
      <ellipse
         style="opacity:0.612903;fill:none;fill-opacity:1;stroke:#009cb9;stroke-opacity:1"
         id="path1844-0"
         cx="-4.3459826"
         cy="4.1494951"
         rx="0.017981835"
         ry="0.01954616"
         transform="scale(-1,1)" />
      <ellipse
         style="opacity:0.612903;fill:none;fill-opacity:1;stroke:#009cb9;stroke-opacity:1"
         id="path1844-7"
         cx="-4.2438922"
         cy="4.3014507"
         rx="0.0098610073"
         ry="0.011349387"
         transform="scale(-1,1)" />
      <ellipse
         style="opacity:0.612903;fill:none;fill-opacity:1;stroke:#009cb9;stroke-opacity:1"
         id="path1844-7-4"
         cx="-4.4515529"
         cy="4.1331019"
         rx="0.0098610073"
         ry="0.011349387"
         transform="scale(-1,1)" />
      <ellipse
         style="opacity:0.612903;fill:none;fill-opacity:1;stroke:#009cb9;stroke-opacity:1"
         id="path1844-7-6"
         cx="-4.4840364"
         cy="4.3209972"
         rx="0.0098610073"
         ry="0.011349387"
         transform="scale(-1,1)" />
      <ellipse
         style="opacity:0.612903;fill:none;fill-opacity:1;stroke:#009cb9;stroke-opacity:1"
         id="path1844-7-1"
         cx="-4.4387927"
         cy="4.4357519"
         rx="0.0098610073"
         ry="0.011349387"
         transform="scale(-1,1)" />
      <ellipse
         style="opacity:0.612903;fill:none;fill-opacity:1;stroke:#009cb9;stroke-opacity:1"
         id="path1844-7-7"
         cx="-4.2195296"
         cy="4.4597116"
         rx="0.0098610073"
         ry="0.011349387"
         transform="scale(-1,1)" />
      <ellipse
         style="opacity:0.612903;fill:none;fill-opacity:1;stroke:#009cb9;stroke-opacity:1"
         id="path1844-7-0"
         cx="-4.3355417"
         cy="4.5643783"
         rx="0.0098610073"
         ry="0.011349387"
         transform="scale(-1,1)" />
      <ellipse
         style="opacity:0.612903;fill:none;fill-opacity:1;stroke:#009cb9;stroke-opacity:1"
         id="path1844-7-9"
         cx="-4.1893663"
         cy="4.5908604"
         rx="0.0098610073"
         ry="0.011349387"
         transform="scale(-1,1)" />
      <ellipse
         style="opacity:0.612903;fill:none;fill-opacity:1;stroke:#009cb9;stroke-opacity:1"
         id="path1844-7-67"
         cx="-3.9039772"
         cy="4.3184748"
         rx="0.0098610073"
         ry="0.011349387"
         transform="scale(-1,1)" />
      <ellipse
         style="opacity:0.612903;fill:none;fill-opacity:1;stroke:#009cb9;stroke-opacity:1"
         id="path1844-7-04"
         cx="-3.8877356"
         cy="4.4294467"
         rx="0.0098610073"
         ry="0.011349387"
         transform="scale(-1,1)" />
      <ellipse
         style="opacity:0.612903;fill:none;fill-opacity:1;stroke:#009cb9;stroke-opacity:1"
         id="path1844-7-69"
         cx="-3.9863462"
         cy="4.4206195"
         rx="0.0098610073"
         ry="0.011349387"
         transform="scale(-1,1)" />
      <ellipse
         style="opacity:0.612903;fill:none;fill-opacity:1;stroke:#009cb9;stroke-opacity:1"
         id="path1844-7-01"
         cx="-4.0223093"
         cy="4.5378966"
         rx="0.0098610073"
         ry="0.011349387"
         transform="scale(-1,1)" />
      <ellipse
         style="opacity:0.612903;fill:none;fill-opacity:1;stroke:#009cb9;stroke-opacity:1"
         id="path1844-7-98"
         cx="-4.0002675"
         cy="4.6904826"
         rx="0.0098610073"
         ry="0.011349387"
         transform="scale(-1,1)" />
      <path
         style="opacity:1;fill:#f4d470;fill-opacity:1;stroke:none;stroke-width:0.0230866;stroke-linecap:butt;stroke-linejoin:miter;stroke-opacity:1"
         d="m 3.7677375,4.9779885 c 0,0 -0.3346935,-0.033884 -0.6201675,0.1105704 0,0 -0.2460973,0.1052185 -0.2362535,0.2318393 0,0 0.00657,0.048151 0.2247697,-0.080251 0,0 0.2132851,-0.1034369 0.3543814,-0.1123537 0,0 0.2477389,-0.019617 0.2789112,-0.010693 0,0 -0.059065,-0.046366 -0.00164,-0.1391042 z"
         id="path1965" />
      <path
         style="fill:#efc957;fill-opacity:1;stroke:none;stroke-width:0.0230866;stroke-linecap:butt;stroke-linejoin:miter;stroke-opacity:1"
         d="m 3.6167972,4.9833388 0.00164,0.1373209 -0.032813,-8e-7 c 0,0 0.013121,-0.1230539 0.00164,-0.1373209 z"
         id="path1967" />
      <path
         style="fill:#efc957;fill-opacity:1;stroke:none;stroke-width:0.0230866;stroke-linecap:butt;stroke-linejoin:miter;stroke-opacity:1"
         d="m 3.4084341,5.002956 -0.00164,0.142671 -0.029532,0.00893 0.00164,-0.1515878 z"
         id="path1969" />
      <path
         style="fill:#efc957;fill-opacity:1;stroke:none;stroke-width:0.0230866;stroke-linecap:butt;stroke-linejoin:miter;stroke-opacity:1"
         d="m 3.1853059,5.070724 c 0.014765,0.00893 0.00657,0.142671 0.00657,0.142671 l 0.032813,-0.016049 c 0.00328,-0.0214 -0.00657,-0.1391042 -0.00657,-0.1391042 z"
         id="path1971" />
      <path
         style="fill:#efc957;fill-opacity:1;stroke:none;stroke-width:0.0230866;stroke-linecap:butt;stroke-linejoin:miter;stroke-opacity:1"
         d="m 3.0245208,5.1652438 -0.00493,0.1319708 -0.036094,0.016049 c 0,0 0.013121,-0.1194873 0.00657,-0.1319708 z"
         id="path1973" />
    </g>
  </g>
</svg>
