<?xml version="1.0" encoding="UTF-8" standalone="no"?>
<svg
   xmlns:dc="http://purl.org/dc/elements/1.1/"
   xmlns:cc="http://creativecommons.org/ns#"
   xmlns:rdf="http://www.w3.org/1999/02/22-rdf-syntax-ns#"
   xmlns:svg="http://www.w3.org/2000/svg"
   xmlns="http://www.w3.org/2000/svg"
   xmlns:sodipodi="http://sodipodi.sourceforge.net/DTD/sodipodi-0.dtd"
   xmlns:inkscape="http://www.inkscape.org/namespaces/inkscape"
   width="11.0in"
   height="1.5in"
   viewBox="0 0 11.0 9.5"
   version="1.1"
   id="SVGRoot"
   sodipodi:docname="flower2.svg"
   inkscape:version="1.0.1 (3bc2e813f5, 2020-09-07)">
  <defs
     id="defs833">
    <filter
       inkscape:collect="always"
       style="color-interpolation-filters:sRGB"
       id="filter3188"
       x="-0.019941775"
       width="1.0398836"
       y="-0.020016742"
       height="1.0400335">
      <feGaussianBlur
         inkscape:collect="always"
         stdDeviation="0.011672119"
         id="feGaussianBlur3190" />
    </filter>
    <filter
       inkscape:collect="always"
       style="color-interpolation-filters:sRGB"
       id="filter3188-7"
       x="-0.019941775"
       width="1.0398836"
       y="-0.020016743"
       height="1.0400335">
      <feGaussianBlur
         inkscape:collect="always"
         stdDeviation="0.011672119"
         id="feGaussianBlur3190-9" />
    </filter>
  </defs>
  <sodipodi:namedview
     id="base"
     pagecolor="#ffffff"
     bordercolor="#666666"
     borderopacity="1.0"
     inkscape:pageopacity="0.0"
     inkscape:pageshadow="2"
     inkscape:zoom="1.4142136"
     inkscape:cx="552.19462"
     inkscape:cy="143.56119"
     inkscape:document-units="in"
     inkscape:current-layer="layer1"
     inkscape:document-rotation="0"
     showgrid="false"
     inkscape:window-width="1366"
     inkscape:window-height="705"
     inkscape:window-x="-8"
     inkscape:window-y="-8"
     inkscape:window-maximized="1"
     showguides="true"
     inkscape:guide-bbox="true">
    <sodipodi:guide
       position="9.4583333,7.7083333"
       orientation="0,-1"
       id="guide3483" />
    <sodipodi:guide
       position="10.333333,2.9583333"
       orientation="0,-1"
       id="guide3485" />
  </sodipodi:namedview>
  <metadata
     id="metadata836">
    <rdf:RDF>
      <cc:Work
         rdf:about="">
        <dc:format>image/svg+xml</dc:format>
        <dc:type
           rdf:resource="http://purl.org/dc/dcmitype/StillImage" />
        <dc:title></dc:title>
      </cc:Work>
    </rdf:RDF>
  </metadata>
  <g
     inkscape:label="Layer 1"
     inkscape:groupmode="layer"
     id="layer1">
    <path
       style="fill:#ffd05a;fill-opacity:1;stroke:none;stroke-width:0.06966667;stroke-linecap:butt;stroke-linejoin:miter;stroke-opacity:1;stroke-miterlimit:4;stroke-dasharray:none"
       d="m 1.7265805,2.7253083 c 0,0 -0.010522,-0.6629128 0.5524274,-0.6629128 0,0 0.5419039,0.015783 0.4998142,0.6839567 0,0 0.4261581,-0.4103744 0.7997041,0.1315303 0,0 0.2893666,0.4945539 -0.2788442,0.8260102 0,0 0.5682108,0.2367545 0.273583,0.8575774 0,0 -0.299889,0.4419417 -0.7997041,0.1052242 0,0 0.1157467,0.5997781 -0.5155987,0.6786963 0,0 -0.5524271,-0.021045 -0.5261211,-0.6944799 0,0 -0.4892926,0.4314193 -0.84705499,-0.2314933 0,0 -0.1420527,-0.5313823 0.34723989,-0.7365696 0,0 -0.51033739,-0.2157096 -0.28936649,-0.7944429 0,0 0.31567379,-0.5524253 0.78392099,-0.1630966 z"
       id="path3284" />
    <ellipse
       style="fill:#ffffff;fill-opacity:1;stroke-width:0.0354167;filter:url(#filter3188)"
       id="path2024"
       cx="2.2649522"
       cy="-3.6828492"
       rx="0.7023719"
       ry="0.69974136"
       transform="matrix(1,0,0,-1,0.01488096,-0.0744048)" />
    <path
       style="fill:#eaf4f2;fill-opacity:1;stroke:none;stroke-width:0.0104167px;stroke-linecap:butt;stroke-linejoin:miter;stroke-opacity:1"
       d="M 2.631883,4.2205504 C 1.8953131,4.3573419 1.7900889,3.099912 1.7900889,3.099912 c 0,0 -0.410375,0.3840674 -0.068396,0.9101885 0,0 0.3788086,0.5576913 0.9101901,0.2104499 z"
       id="path3192" />
    <path
       style="fill:none;stroke:#000000;stroke-width:0.0104167px;stroke-linecap:butt;stroke-linejoin:miter;stroke-opacity:1"
       d="M 2.2149713,5.3664388 Z"
       id="path3288" />
    <path
       id="path3290"
       style="fill:#a7af54;fill-opacity:1;stroke:#f7efe2;stroke-width:0;stroke-linecap:butt;stroke-linejoin:miter;stroke-miterlimit:4;stroke-dasharray:none;stroke-opacity:1;opacity:1"
       d="m 212.63672,515.17773 v 59.09375 c -17.17253,-54.54807 -70.71094,-53.0332 -70.71094,-53.0332 5.05077,97.98482 77.7832,95.96484 77.7832,95.96484 75.76132,-8.58629 75.25586,-96.46874 75.25586,-96.46874 -52.52792,0.50507 -71.21679,53.0332 -71.21679,53.0332 l -0.50391,-58.58985 z"
       transform="scale(0.01041667)" />
    <path
       style="fill:#939941;stroke:none;stroke-width:0.0104167px;stroke-linecap:butt;stroke-linejoin:miter;stroke-opacity:1;fill-opacity:1"
       d="m 2.2730662,6.2165199 c 0,0 0.1599703,-0.6622026 0.77753,-0.6659229 0,0 -0.017223,0.7862281 -0.7619603,0.8786042 0,0 -0.4582788,-0.056433 -0.6331299,-0.3614929 0,0 -0.1264881,-0.1748511 -0.1636905,-0.5133928 0,0 0.5654776,-0.081841 0.7812507,0.6622044 z"
       id="path3385" />
    <path
       style="fill:#ef5b5b;fill-opacity:1;stroke:none;stroke-width:0.02708333;stroke-linecap:butt;stroke-linejoin:miter;stroke-miterlimit:4;stroke-dasharray:none;stroke-opacity:1;opacity:1"
       d="m 5.332489,1.9140084 c 0,0 -0.081845,-0.5505954 -0.7366075,-0.699405 0,0 -0.5729181,-0.096727 -0.744049,0.4315472 0,0 0.2827381,-0.00744 0.3273809,0.3943453 0,0 0.014881,0.4613095 -0.066964,0.8556547 -0.010465,0.030888 -0.136734,0.7569354 -0.03151,1.1252201 0,0 0.2051874,0.6681739 1.1258994,0.6523902 0,0 1.0785486,0.1262691 1.3363476,-0.5787332 0,0 0.142053,-0.3998521 0.04209,-0.9364956 0,0 -0.147314,-0.7786592 -0.121008,-0.8523162 0,0 -0.08418,-0.6103005 0.315673,-0.6629126 0,0 -0.147314,-0.5366436 -0.762876,-0.4208969 0,0 -0.6163995,0.1678642 -0.6843764,0.691602 z"
       id="path3387" />
    <path
       style="fill:#e24949;stroke:none;stroke-width:0.0104167px;stroke-linecap:butt;stroke-linejoin:miter;stroke-opacity:1;fill-opacity:0.28627452"
       d="m 4.1294656,3.4375011 c 0,0 0.1822917,0.5394347 0.3013394,0.6138395 0,0 0.4166652,0.3236594 0.7291652,0.3124987 0,0 0.859375,0.033482 1.1904762,-0.1450893 0,0 -0.3720238,0.4278274 -1.2016369,0.3385417 0,0 -0.7328869,-0.070685 -0.8668154,-0.4241072 0,-0.026042 -0.2306522,-0.394343 -0.1525285,-0.6956834 z"
       id="path3391" />
    <path
       style="fill:#a7af54;stroke:#f7efe2;stroke-width:0.01354167;stroke-linecap:butt;stroke-linejoin:miter;stroke-opacity:1;fill-opacity:1;stroke-miterlimit:4;stroke-dasharray:none;opacity:1"
       d="m 5.2066404,4.6737624 0.00169,0.8805549 c 0,0 -0.2008899,-0.658484 -0.9226161,-0.6994066 0,0 -0.014881,1.1011905 0.9151786,1.2276786 0,0 0.4501488,0.014881 0.7477678,-0.3013393 0,0 0.2938988,-0.297619 0.3162203,-0.922619 0,0 -0.6808036,-0.029762 -0.9300596,0.6994047 l 0,-0.8816964 z"
       id="path3393" />
    <path
       style="fill:#939941;stroke:none;stroke-width:0.0104167px;stroke-linecap:butt;stroke-linejoin:miter;stroke-opacity:1;fill-opacity:1"
       d="m 5.2604183,5.8437519 c 0,0 0.2708335,-0.8906253 0.979167,-0.8281253 0,0 0.036456,0.8177067 -0.8541686,1.0781234 0,0 -0.5833334,0.052083 -0.921875,-0.484375 0,0 -0.09375,-0.098958 -0.1666667,-0.5833333 0,0 0.7291699,-0.1406212 0.9635433,0.8177102 z"
       id="path3397" />
    <path
       style="fill:#ffd05a;fill-opacity:1;stroke:none;stroke-width:0.0708661;stroke-linecap:butt;stroke-linejoin:miter;stroke-miterlimit:4;stroke-dasharray:none;stroke-opacity:1"
       d="m 7.8194379,2.7127741 c 0,0 -0.010522,-0.6629128 0.5524273,-0.6629128 0,0 0.541904,0.015783 0.4998143,0.6839567 0,0 0.426158,-0.4103744 0.7997047,0.1315303 0,0 0.2893702,0.4945539 -0.2788448,0.8260102 0,0 0.568215,0.2367545 0.2735835,0.8575774 0,0 -0.2998896,0.4419417 -0.7997047,0.1052242 0,0 0.1157468,0.5997781 -0.5155986,0.6786962 0,0 -0.5524271,-0.021045 -0.5261211,-0.6944799 0,0 -0.4892926,0.4314194 -0.8470551,-0.2314932 0,0 -0.1420527,-0.5313823 0.34724,-0.7365696 0,0 -0.5103375,-0.2157097 -0.2893665,-0.7944429 0,0 0.3156738,-0.5524253 0.783921,-0.1630966 z"
       id="path3284-4" />
    <ellipse
       style="fill:#ffffff;fill-opacity:1;stroke-width:0.0354167;filter:url(#filter3188-7)"
       id="path2024-0"
       cx="2.2649522"
       cy="-3.6828492"
       rx="0.7023719"
       ry="0.69974136"
       transform="matrix(1,0,0,-1,6.1077383,-0.08693916)" />
    <path
       style="fill:#eaf4f2;fill-opacity:1;stroke:none;stroke-width:0.0104167px;stroke-linecap:butt;stroke-linejoin:miter;stroke-opacity:1"
       d="M 8.7247403,4.2080162 C 7.9881704,4.3448077 7.8829463,3.0873778 7.8829463,3.0873778 c 0,0 -0.410375,0.3840674 -0.068396,0.9101884 0,0 0.3788085,0.5576914 0.91019,0.21045 z"
       id="path3192-2" />
    <path
       style="fill:none;stroke:#000000;stroke-width:0.0104167px;stroke-linecap:butt;stroke-linejoin:miter;stroke-opacity:1"
       d="M 8.3078286,5.3539046 Z"
       id="path3288-7" />
    <path
       id="path3290-4"
       style="opacity:1;fill:#a7af54;fill-opacity:1;stroke:#f7efe2;stroke-width:0;stroke-linecap:butt;stroke-linejoin:miter;stroke-miterlimit:4;stroke-dasharray:none;stroke-opacity:1"
       d="M 8.3078232,5.3539005 V 5.9694604 C 8.1289427,5.4012513 7.5712509,5.4170312 7.5712509,5.4170312 7.6238631,6.4377064 8.3814926,6.416665 8.3814926,6.416665 9.170673,6.3272244 9.1654078,5.4117823 9.1654078,5.4117823 8.618242,5.4170434 8.4235662,5.9642114 8.4235662,5.9642114 l -0.00525,-0.6103109 z" />
    <path
       style="fill:#939941;fill-opacity:1;stroke:none;stroke-width:0.0104167px;stroke-linecap:butt;stroke-linejoin:miter;stroke-opacity:1"
       d="m 8.3659235,6.2039857 c 0,0 0.1599703,-0.6622026 0.77753,-0.6659229 0,0 -0.017223,0.7862281 -0.7619603,0.8786041 0,0 -0.4582788,-0.056433 -0.6331298,-0.3614929 0,0 -0.1264881,-0.174851 -0.1636905,-0.5133928 0,0 0.5654775,-0.081841 0.7812506,0.6622045 z"
       id="path3385-4" />
    <path
       id="path3370-4"
       style="fill:#f2f2f2;fill-opacity:0;stroke:#f7efe2;stroke-width:0;stroke-miterlimit:4;stroke-dasharray:none;stroke-opacity:1"
       d="m 8.2608261,5.5505761 c -0.013153,-1.167e-4 -0.026421,0.012778 -0.026652,0.038819 -5.21e-5,0.00626 -2.959e-4,0.013472 2.437e-4,0.019002 5.406e-4,0.00319 -5.687e-4,0.00676 -8.542e-4,0.00987 -0.00137,0.01486 -0.00137,0.00863 0.00407,0.025309 3.396e-4,2.969e-4 6.771e-4,5.979e-4 0.00102,8.948e-4 -1.458e-4,0.00157 -3.5e-4,0.00273 -8.344e-4,0.00875 8.115e-4,0.00584 0.00132,0.011742 0.00242,0.017537 7.458e-4,0.00392 0.00311,0.00736 0.00448,0.011109 0.00383,0.010478 0.00655,0.021348 0.00838,0.032349 0.00855,0.051377 0.061789,0.040757 0.051575,-0.010315 l 2.08e-5,-2.08e-5 c -8.771e-4,-0.00438 -0.00159,-0.00881 -0.00262,-0.013163 -0.00204,-0.00856 -0.00447,-0.017196 -0.00743,-0.025513 -0.00116,-0.00325 -0.00243,-0.00646 -0.0037,-0.00966 -0.00239,-0.00602 -0.00413,-0.00663 -5.698e-4,-0.00444 0.0029,-0.011027 0.00179,-0.020927 -0.00382,-0.031189 5.177e-4,-0.00477 5.125e-4,-0.011721 3.667e-4,-0.014872 -5.386e-4,-0.00502 -1.875e-4,-0.010115 -1.427e-4,-0.015177 2.323e-4,-0.02604 -0.012787,-0.039169 -0.02594,-0.039286 z m -0.017904,0.097636 c 0.00259,0.00227 0.00518,0.00455 0.00777,0.00682 0.00259,0.00227 -0.00632,-0.00368 -0.00777,-0.0068 -2.7e-6,-5.9e-6 2.7e-6,-1.05e-5 0,-2e-5 z" />
    <path
       id="path3374-6"
       style="fill:#f2f2f2;fill-opacity:0;stroke:#f7efe2;stroke-width:0;stroke-miterlimit:4;stroke-dasharray:none;stroke-opacity:1"
       d="m 8.2608261,5.5505761 c -0.013153,-1.167e-4 -0.026421,0.012778 -0.026652,0.038819 -5.21e-5,0.00626 -2.959e-4,0.013472 2.437e-4,0.019002 5.406e-4,0.00319 -5.687e-4,0.00676 -8.542e-4,0.00987 -0.00137,0.01486 -0.00137,0.00863 0.00407,0.025309 3.396e-4,2.969e-4 6.771e-4,5.979e-4 0.00102,8.948e-4 -1.458e-4,0.00157 -3.5e-4,0.00273 -8.344e-4,0.00875 8.115e-4,0.00584 0.00132,0.011742 0.00242,0.017537 7.458e-4,0.00392 0.00311,0.00736 0.00448,0.011109 0.00383,0.010478 0.00655,0.021348 0.00838,0.032349 0.00855,0.051377 0.061789,0.040757 0.051575,-0.010315 l 2.08e-5,-2.08e-5 c -8.771e-4,-0.00438 -0.00159,-0.00881 -0.00262,-0.013163 -0.00204,-0.00856 -0.00447,-0.017196 -0.00743,-0.025513 -0.00116,-0.00325 -0.00243,-0.00646 -0.0037,-0.00966 -0.00239,-0.00602 -0.00413,-0.00663 -5.698e-4,-0.00444 0.0029,-0.011027 0.00179,-0.020927 -0.00382,-0.031189 5.177e-4,-0.00477 5.125e-4,-0.011721 3.667e-4,-0.014872 -5.386e-4,-0.00502 -1.875e-4,-0.010115 -1.427e-4,-0.015177 2.323e-4,-0.02604 -0.012787,-0.039169 -0.02594,-0.039286 z m -0.017904,0.097636 c 0.00259,0.00227 0.00518,0.00455 0.00777,0.00682 0.00259,0.00227 -0.00632,-0.00368 -0.00777,-0.0068 -2.7e-6,-5.9e-6 2.7e-6,-1.05e-5 0,-2e-5 z" />
  </g>
  <path
     id="path3370"
     style="fill:#f2f2f2;fill-opacity:0;stroke:#f7efe2;stroke-width:0;stroke-miterlimit:4;stroke-dasharray:none;stroke-opacity:1"
     d="m 208.125,534.05859 c -1.26266,-0.0112 -2.53642,1.22665 -2.55859,3.72657 -0.005,0.60096 -0.0284,1.29333 0.0234,1.82422 0.0519,0.30624 -0.0546,0.6487 -0.082,0.94726 -0.13152,1.42656 -0.13161,0.82831 0.39063,2.42969 0.0326,0.0285 0.065,0.0574 0.0977,0.0859 -0.014,0.1507 -0.0336,0.26182 -0.0801,0.83984 0.0779,0.56064 0.12682,1.12718 0.23242,1.68359 0.0716,0.37632 0.29816,0.70651 0.42968,1.06641 0.36768,1.00589 0.62901,2.04937 0.80469,3.10547 0.8208,4.93219 5.93172,3.91268 4.95117,-0.99024 l 0.002,-0.002 c -0.0842,-0.42048 -0.15308,-0.84578 -0.25196,-1.26367 -0.19584,-0.82176 -0.42873,-1.65079 -0.71289,-2.44922 -0.11136,-0.312 -0.23355,-0.62053 -0.35547,-0.92773 -0.22944,-0.57792 -0.3965,-0.63603 -0.0547,-0.42579 0.27859,-1.05855 0.17203,-2.009 -0.36719,-2.99414 0.0497,-0.45778 0.0492,-1.12517 0.0352,-1.42773 -0.0517,-0.48192 -0.018,-0.97108 -0.0137,-1.45703 0.0223,-2.49989 -1.22757,-3.76026 -2.49023,-3.77149 z m -1.71875,9.37305 c 0.249,0.21796 0.49733,0.43638 0.74609,0.6543 0.24864,0.21792 -0.60689,-0.35283 -0.74609,-0.65235 -2.6e-4,-5.6e-4 2.6e-4,-0.001 0,-0.002 z"
     transform="scale(0.01041667)" />
  <path
     id="path3374"
     style="fill:#f2f2f2;fill-opacity:0;stroke:#f7efe2;stroke-width:0;stroke-miterlimit:4;stroke-dasharray:none;stroke-opacity:1"
     d="m 208.125,534.05859 c -1.26266,-0.0112 -2.53642,1.22665 -2.55859,3.72657 -0.005,0.60096 -0.0284,1.29333 0.0234,1.82422 0.0519,0.30624 -0.0546,0.6487 -0.082,0.94726 -0.13152,1.42656 -0.13161,0.82831 0.39063,2.42969 0.0326,0.0285 0.065,0.0574 0.0977,0.0859 -0.014,0.1507 -0.0336,0.26182 -0.0801,0.83984 0.0779,0.56064 0.12682,1.12718 0.23242,1.68359 0.0716,0.37632 0.29816,0.70651 0.42968,1.06641 0.36768,1.00589 0.62901,2.04937 0.80469,3.10547 0.8208,4.93219 5.93172,3.91268 4.95117,-0.99024 l 0.002,-0.002 c -0.0842,-0.42048 -0.15308,-0.84578 -0.25196,-1.26367 -0.19584,-0.82176 -0.42873,-1.65079 -0.71289,-2.44922 -0.11136,-0.312 -0.23355,-0.62053 -0.35547,-0.92773 -0.22944,-0.57792 -0.3965,-0.63603 -0.0547,-0.42579 0.27859,-1.05855 0.17203,-2.009 -0.36719,-2.99414 0.0497,-0.45778 0.0492,-1.12517 0.0352,-1.42773 -0.0517,-0.48192 -0.018,-0.97108 -0.0137,-1.45703 0.0223,-2.49989 -1.22757,-3.76026 -2.49023,-3.77149 z m -1.71875,9.37305 c 0.249,0.21796 0.49733,0.43638 0.74609,0.6543 0.24864,0.21792 -0.60689,-0.35283 -0.74609,-0.65235 -2.6e-4,-5.6e-4 2.6e-4,-0.001 0,-0.002 z"
     transform="scale(0.01041667)" />
</svg>
