<?xml version="1.0" encoding="UTF-8" standalone="no"?>
<svg
   xmlns:dc="http://purl.org/dc/elements/1.1/"
   xmlns:cc="http://creativecommons.org/ns#"
   xmlns:rdf="http://www.w3.org/1999/02/22-rdf-syntax-ns#"
   xmlns:svg="http://www.w3.org/2000/svg"
   xmlns="http://www.w3.org/2000/svg"
   xmlns:sodipodi="http://sodipodi.sourceforge.net/DTD/sodipodi-0.dtd"
   xmlns:inkscape="http://www.inkscape.org/namespaces/inkscape"
   width="11.0in"
   height="1.5in"
   viewBox="0 0 11.0 9.5"
   version="1.1"
   id="SVGRoot"
   sodipodi:docname="flower1.svg"
   inkscape:version="1.0.1 (3bc2e813f5, 2020-09-07)">
  <defs
     id="defs2131" />
  <sodipodi:namedview
     id="base"
     pagecolor="#ffffff"
     bordercolor="#666666"
     borderopacity="1.0"
     inkscape:pageopacity="0.0"
     inkscape:pageshadow="2"
     inkscape:zoom="0.49497475"
     inkscape:cx="487.62629"
     inkscape:cy="394.86972"
     inkscape:document-units="in"
     inkscape:current-layer="layer1"
     inkscape:document-rotation="0"
     showgrid="false"
     inkscape:window-width="1267"
     inkscape:window-height="728"
     inkscape:window-x="83"
     inkscape:window-y="0"
     inkscape:window-maximized="0" />
  <metadata
     id="metadata2134">
    <rdf:RDF>
      <cc:Work
         rdf:about="">
        <dc:format>image/svg+xml</dc:format>
        <dc:type
           rdf:resource="http://purl.org/dc/dcmitype/StillImage" />
        <dc:title></dc:title>
      </cc:Work>
    </rdf:RDF>
  </metadata>
  <g
     inkscape:label="Layer 1"
     inkscape:groupmode="layer"
     id="layer1">
    <path
       style="fill:#ff5555;stroke:none;stroke-width:0.0104167px;stroke-linecap:butt;stroke-linejoin:miter;stroke-opacity:1"
       d="m 3.1041156,1.7046329 c 0,0 -0.1473139,-0.3051503 -0.5050764,-0.3682849 0,0 0.063134,0.6629122 -0.010523,0.7365692 0,0 -0.1052245,0.5261211 -0.04209,0.7365696 0,0 0.094702,0.399852 0.3998521,0.5366435 0,0 0.5050762,0.1578363 0.7155247,-0.3156727 0,0 0.2104484,-0.4419417 0.2209708,-0.7155247 0,0 0.1367915,-0.6313453 0.2104485,-0.673435 0,0 -0.031567,-0.1578363 -0.4840314,0.1262691 0,0 -0.1052243,-0.2420158 -0.1999261,-0.34724 0,0 -0.2735809,0.2104494 -0.3051492,0.2841059 z"
       id="path2719" />
    <path
       style="fill:#008000;stroke:none;stroke-width:0.0104167px;stroke-linecap:butt;stroke-linejoin:miter;stroke-opacity:1"
       d="m 2.7516143,5.1296826 c 0,0 0,-0.6944801 0.015784,-0.8786226 0,0 0.068395,-0.7997055 0.17888,-0.9049297 0,0 0.1420527,0.031567 0.1736199,0.026306 0,0 -0.126269,0.6260842 -0.1315303,0.7418308 0,0 -0.068396,0.7839205 -0.047351,0.8838835 0,0 0.036829,0.5629496 0.057873,0.573472 l -0.042089,0.099963 z"
       id="path2723" />
    <path
       style="fill:#77dd77;stroke:none;stroke-width:0.0104167px;stroke-linecap:butt;stroke-linejoin:miter;stroke-opacity:1;fill-opacity:1"
       d="m 2.9568019,5.6715874 c 0,0 0.1681991,-0.3442048 0.1905206,-0.4483715 0,0 0.1488085,-0.4761921 0.141368,-0.5803588 0,0 0.096726,-0.4836309 0.141369,-0.6398809 0,0 0.2380953,-0.4613095 0.3348215,-0.6175595 0,0 0.1860119,-0.2752976 0.1636904,0.074405 l -0.052083,0.5208331 c 0,0 -0.00744,0.3273809 -0.081846,0.5282738 0,0 -0.1264876,0.4017857 -0.178571,0.5059524 0,0 -0.1636904,0.3497023 -0.2232143,0.5059523 0,0 -0.126488,0.2306548 -0.1339285,0.3571429 0,0 -0.096726,0.9598214 -0.639881,0.4092262 0,0 -0.3720238,-0.483631 -0.4761905,-0.6473214 0,0 -0.1636904,-0.2976191 -0.3422619,-0.3720239 0,0 -0.1934523,-0.282738 0.2827381,-0.1190476 0,0 -0.1934523,-1.3095238 0.1339286,-1.5773809 0,0 0.052083,-0.081845 0.15625,0.4017857 0,0 0.029762,0.4910714 0.1339286,0.5952381 z"
       id="path2731" />
    <path
       style="fill:#ff5555;stroke:none;stroke-width:0.0104167px;stroke-linecap:butt;stroke-linejoin:miter;stroke-opacity:1"
       d="m 7.1710331,1.7835512 c 0,0 0.1630976,-0.2577995 0.2104485,-0.3104116 0,0 0.1367892,-0.021045 0.35776,0.094701 0,0 0.1683588,-0.1841421 0.2367545,-0.2104481 0,0 0.2893667,0.3261951 0.3156727,0.8417938 0,0 0.073657,0.9364956 -0.5103375,1.1153767 0,0 -0.6366065,0.1104855 -0.8996671,-0.6576514 0,0 -0.273583,-0.8207489 -0.126269,-1.0048913 0,0 0.1841469,0.00526 0.4156379,0.1315309 z"
       id="path2733" />
    <path
       style="fill:none;stroke:#000000;stroke-width:0.0104167px;stroke-linecap:butt;stroke-linejoin:miter;stroke-opacity:1"
       d="m 7.5595263,5.2157755 c 0,0 0.2008928,-1.7931553 0.044643,-1.897322"
       id="path2737" />
    <path
       style="fill:#008000;stroke:none;stroke-width:0.0104167px;stroke-linecap:butt;stroke-linejoin:miter;stroke-opacity:1"
       d="m 7.6041717,3.3184546 0.177162,-0.00389 0.038607,0.7776973 c 0,0 -0.096726,0.2380952 -0.037203,0.7738095 0,0 0.066965,0.4761905 -0.081845,0.6919643 L 7.5595263,5.2157755"
       id="path2739" />
    <path
       style="fill:#ff00ff;stroke:none;stroke-width:0.0104167px;stroke-linecap:butt;stroke-linejoin:miter;stroke-opacity:1"
       d="m 5.0718092,2.9673241 c 0,0 -0.2157097,-0.3840686 -0.6103007,-0.147314 0,0 -0.00526,0.052611 0.099962,0.1157457 0,0 0.1052238,0.1210079 0.099963,0.3051503 0,0 -0.052613,0.6208229 -0.00526,0.773398 0,0 0.084178,0.5576884 0.6576498,0.6734351 0,0 0.4156357,0.026306 0.6050393,-0.3998521 v 0 c 0,0 0.1052242,-0.3525011 0.078918,-0.7786592 0,0 -0.021045,-0.52086 0.1525753,-0.6313454 0,0 0,-0.2577993 -0.5576884,0.1210079 0,0 -0.2209709,-0.2420157 -0.3051503,-0.2893666 0,0 -0.073654,0.010524 -0.215708,0.2578003 z"
       id="path2741" 
	   
	   />
	   
    <path
       style="fill:#008000;stroke:none;stroke-width:0.0104167px;stroke-linecap:butt;stroke-linejoin:miter;stroke-opacity:1"
       d="m 5.313825,4.6877407 c 0,0 -0.016204,0.7438086 -0.00876,0.9298206 0,0 0.029756,0.6547601 -0.014886,0.699403 l 0.1264877,0.2083333 0.081845,-0.2827381 c 0,0 -0.074405,-1.5029762 -0.029762,-1.5699404 z"
       id="path2743" />
    <path
       style="fill:#77dd77;stroke:none;stroke-width:0.0104167px;stroke-linecap:butt;stroke-linejoin:miter;stroke-opacity:1;fill-opacity:1"
       d="m 7.7008952,5.5580375 c 0,0 -0.5580357,-1.4434529 -0.6473215,-1.4732147 0,0 -0.2976213,0.066963 -0.2083356,1.1532724 0.014881,0 0.2008929,0.8333334 0.483631,1.09375 0,0 0.3348214,0.5580358 0.625,-0.014881 0,0 0.2678571,-0.8482142 0.3571428,-1.0342261 v 0 c 0,0 0.4241072,-0.9895833 0.4464286,-1.0267857 0,0 0.5729142,-1.1979184 -0.3125,-0.1190476 L 8.3333333,4.3303571 c 0,0 -0.5431547,-1.0714285 -0.5803571,0.2157739 0,0 0.08929,0.8705392 -0.052081,1.0119065 z"
       id="path2751" />
    <path
       style="fill:#77dd77;stroke:none;stroke-width:0.0104167px;stroke-linecap:butt;stroke-linejoin:miter;stroke-opacity:1;fill-opacity:1"
       d="m 5.4166684,6.5252997 0.081845,-0.2827382 c 0,0 0.1562485,-1.0119067 0.3571414,-1.2053591 0,0 0.3348214,-0.7514881 0.6845238,-0.8333333 0,0 0.1116071,0.044643 -0.2306548,0.9002976 0,0 -0.3645833,1.0342262 -0.3199405,1.1681547 0,0 -0.096726,0.9151786 -0.6994047,1.4508929 0,0 -0.8630953,-0.6175595 -0.9598215,-1.4880952 0,0 -0.029762,-0.7440477 0.022322,-0.9300596 0,0 0.1711304,-0.7440476 0.2976185,0.014881 0,0 0.1488095,0.6026786 0.171131,0.6622024 0,0 0.1339285,-1.0044643 0.2901785,-0.037202 0,0 0.305063,0.5803609 0.3050613,0.5803588 z"
       id="path2753" />
	   
	  
  </g>
</svg>
